G75*
%MOIN*%
%OFA0B0*%
%FSLAX25Y25*%
%IPPOS*%
%LPD*%
%AMOC8*
5,1,8,0,0,1.08239X$1,22.5*
%
%ADD10C,0.00600*%
%ADD11C,0.01000*%
%ADD12C,0.01600*%
%ADD13C,0.00300*%
%ADD14C,0.00200*%
%ADD15C,0.00000*%
%ADD16R,0.02559X0.05512*%
%ADD17R,0.05512X0.02559*%
%ADD18C,0.00400*%
%ADD19C,0.00500*%
%ADD20C,0.00800*%
D10*
X0026041Y0063999D02*
X0026041Y0065067D01*
X0023906Y0067202D01*
X0021771Y0067202D02*
X0026041Y0067202D01*
X0024973Y0069377D02*
X0023906Y0069377D01*
X0023906Y0073647D01*
X0024973Y0073647D02*
X0026041Y0072580D01*
X0026041Y0070444D01*
X0024973Y0069377D01*
X0021771Y0070444D02*
X0021771Y0072580D01*
X0022838Y0073647D01*
X0024973Y0073647D01*
X0028176Y0076877D02*
X0021771Y0076877D01*
X0021771Y0077944D02*
X0021771Y0075809D01*
X0021771Y0080106D02*
X0021771Y0082241D01*
X0021771Y0081174D02*
X0028176Y0081174D01*
X0028176Y0082241D01*
X0024973Y0084416D02*
X0026041Y0085484D01*
X0026041Y0087619D01*
X0024973Y0088687D01*
X0022838Y0088687D01*
X0021771Y0087619D01*
X0021771Y0085484D01*
X0022838Y0084416D01*
X0024973Y0084416D01*
X0026041Y0090855D02*
X0026041Y0091923D01*
X0023906Y0094058D01*
X0021771Y0094058D02*
X0026041Y0094058D01*
X0026041Y0096220D02*
X0026041Y0098355D01*
X0027109Y0097287D02*
X0022838Y0097287D01*
X0021771Y0096220D01*
X0021771Y0100530D02*
X0024973Y0100530D01*
X0026041Y0101598D01*
X0026041Y0104800D01*
X0021771Y0104800D01*
X0022838Y0106976D02*
X0024973Y0106976D01*
X0026041Y0108043D01*
X0026041Y0110178D01*
X0024973Y0111246D01*
X0022838Y0111246D01*
X0021771Y0110178D01*
X0021771Y0108043D01*
X0022838Y0106976D01*
X0022838Y0113421D02*
X0021771Y0114489D01*
X0021771Y0116624D01*
X0022838Y0117691D01*
X0027109Y0117691D01*
X0028176Y0116624D01*
X0028176Y0114489D01*
X0027109Y0113421D01*
X0024973Y0126312D02*
X0022838Y0126312D01*
X0021771Y0127380D01*
X0021771Y0129515D01*
X0022838Y0130582D01*
X0024973Y0130582D01*
X0026041Y0129515D01*
X0026041Y0127380D01*
X0024973Y0126312D01*
X0024973Y0132758D02*
X0021771Y0132758D01*
X0021771Y0134893D02*
X0024973Y0134893D01*
X0026041Y0133825D01*
X0024973Y0132758D01*
X0024973Y0134893D02*
X0026041Y0135960D01*
X0026041Y0137028D01*
X0021771Y0137028D01*
X0022838Y0139203D02*
X0021771Y0140271D01*
X0021771Y0142406D01*
X0022838Y0143473D01*
X0027109Y0143473D01*
X0028176Y0142406D01*
X0028176Y0140271D01*
X0027109Y0139203D01*
X0022838Y0139203D01*
X0028176Y0077944D02*
X0028176Y0076877D01*
X0082589Y0034479D02*
X0082589Y0034109D01*
X0082589Y0034479D02*
X0088967Y0034479D01*
X0088967Y0034109D01*
X0088967Y0030935D02*
X0088967Y0026825D01*
X0088967Y0023652D02*
X0088967Y0023282D01*
X0082589Y0023282D01*
X0082589Y0023652D01*
X0082589Y0026825D02*
X0082589Y0027195D01*
X0082589Y0030565D02*
X0082589Y0030935D01*
D11*
X0018376Y0007817D02*
X0018376Y0142817D01*
X0018378Y0142957D01*
X0018384Y0143097D01*
X0018394Y0143237D01*
X0018407Y0143377D01*
X0018425Y0143516D01*
X0018447Y0143655D01*
X0018472Y0143792D01*
X0018501Y0143930D01*
X0018534Y0144066D01*
X0018571Y0144201D01*
X0018612Y0144335D01*
X0018657Y0144468D01*
X0018705Y0144600D01*
X0018757Y0144730D01*
X0018812Y0144859D01*
X0018871Y0144986D01*
X0018934Y0145112D01*
X0019000Y0145236D01*
X0019069Y0145357D01*
X0019142Y0145477D01*
X0019219Y0145595D01*
X0019298Y0145710D01*
X0019381Y0145824D01*
X0019467Y0145934D01*
X0019556Y0146043D01*
X0019648Y0146149D01*
X0019743Y0146252D01*
X0019840Y0146353D01*
X0019941Y0146450D01*
X0020044Y0146545D01*
X0020150Y0146637D01*
X0020259Y0146726D01*
X0020369Y0146812D01*
X0020483Y0146895D01*
X0020598Y0146974D01*
X0020716Y0147051D01*
X0020836Y0147124D01*
X0020957Y0147193D01*
X0021081Y0147259D01*
X0021207Y0147322D01*
X0021334Y0147381D01*
X0021463Y0147436D01*
X0021593Y0147488D01*
X0021725Y0147536D01*
X0021858Y0147581D01*
X0021992Y0147622D01*
X0022127Y0147659D01*
X0022263Y0147692D01*
X0022401Y0147721D01*
X0022538Y0147746D01*
X0022677Y0147768D01*
X0022816Y0147786D01*
X0022956Y0147799D01*
X0023096Y0147809D01*
X0023236Y0147815D01*
X0023376Y0147817D01*
X0123376Y0147817D01*
X0123516Y0147815D01*
X0123656Y0147809D01*
X0123796Y0147799D01*
X0123936Y0147786D01*
X0124075Y0147768D01*
X0124214Y0147746D01*
X0124351Y0147721D01*
X0124489Y0147692D01*
X0124625Y0147659D01*
X0124760Y0147622D01*
X0124894Y0147581D01*
X0125027Y0147536D01*
X0125159Y0147488D01*
X0125289Y0147436D01*
X0125418Y0147381D01*
X0125545Y0147322D01*
X0125671Y0147259D01*
X0125795Y0147193D01*
X0125916Y0147124D01*
X0126036Y0147051D01*
X0126154Y0146974D01*
X0126269Y0146895D01*
X0126383Y0146812D01*
X0126493Y0146726D01*
X0126602Y0146637D01*
X0126708Y0146545D01*
X0126811Y0146450D01*
X0126912Y0146353D01*
X0127009Y0146252D01*
X0127104Y0146149D01*
X0127196Y0146043D01*
X0127285Y0145934D01*
X0127371Y0145824D01*
X0127454Y0145710D01*
X0127533Y0145595D01*
X0127610Y0145477D01*
X0127683Y0145357D01*
X0127752Y0145236D01*
X0127818Y0145112D01*
X0127881Y0144986D01*
X0127940Y0144859D01*
X0127995Y0144730D01*
X0128047Y0144600D01*
X0128095Y0144468D01*
X0128140Y0144335D01*
X0128181Y0144201D01*
X0128218Y0144066D01*
X0128251Y0143930D01*
X0128280Y0143792D01*
X0128305Y0143655D01*
X0128327Y0143516D01*
X0128345Y0143377D01*
X0128358Y0143237D01*
X0128368Y0143097D01*
X0128374Y0142957D01*
X0128376Y0142817D01*
X0128376Y0007817D01*
X0128374Y0007677D01*
X0128368Y0007537D01*
X0128358Y0007397D01*
X0128345Y0007257D01*
X0128327Y0007118D01*
X0128305Y0006979D01*
X0128280Y0006842D01*
X0128251Y0006704D01*
X0128218Y0006568D01*
X0128181Y0006433D01*
X0128140Y0006299D01*
X0128095Y0006166D01*
X0128047Y0006034D01*
X0127995Y0005904D01*
X0127940Y0005775D01*
X0127881Y0005648D01*
X0127818Y0005522D01*
X0127752Y0005398D01*
X0127683Y0005277D01*
X0127610Y0005157D01*
X0127533Y0005039D01*
X0127454Y0004924D01*
X0127371Y0004810D01*
X0127285Y0004700D01*
X0127196Y0004591D01*
X0127104Y0004485D01*
X0127009Y0004382D01*
X0126912Y0004281D01*
X0126811Y0004184D01*
X0126708Y0004089D01*
X0126602Y0003997D01*
X0126493Y0003908D01*
X0126383Y0003822D01*
X0126269Y0003739D01*
X0126154Y0003660D01*
X0126036Y0003583D01*
X0125916Y0003510D01*
X0125795Y0003441D01*
X0125671Y0003375D01*
X0125545Y0003312D01*
X0125418Y0003253D01*
X0125289Y0003198D01*
X0125159Y0003146D01*
X0125027Y0003098D01*
X0124894Y0003053D01*
X0124760Y0003012D01*
X0124625Y0002975D01*
X0124489Y0002942D01*
X0124351Y0002913D01*
X0124214Y0002888D01*
X0124075Y0002866D01*
X0123936Y0002848D01*
X0123796Y0002835D01*
X0123656Y0002825D01*
X0123516Y0002819D01*
X0123376Y0002817D01*
X0023376Y0002817D01*
X0023236Y0002819D01*
X0023096Y0002825D01*
X0022956Y0002835D01*
X0022816Y0002848D01*
X0022677Y0002866D01*
X0022538Y0002888D01*
X0022401Y0002913D01*
X0022263Y0002942D01*
X0022127Y0002975D01*
X0021992Y0003012D01*
X0021858Y0003053D01*
X0021725Y0003098D01*
X0021593Y0003146D01*
X0021463Y0003198D01*
X0021334Y0003253D01*
X0021207Y0003312D01*
X0021081Y0003375D01*
X0020957Y0003441D01*
X0020836Y0003510D01*
X0020716Y0003583D01*
X0020598Y0003660D01*
X0020483Y0003739D01*
X0020369Y0003822D01*
X0020259Y0003908D01*
X0020150Y0003997D01*
X0020044Y0004089D01*
X0019941Y0004184D01*
X0019840Y0004281D01*
X0019743Y0004382D01*
X0019648Y0004485D01*
X0019556Y0004591D01*
X0019467Y0004700D01*
X0019381Y0004810D01*
X0019298Y0004924D01*
X0019219Y0005039D01*
X0019142Y0005157D01*
X0019069Y0005277D01*
X0019000Y0005398D01*
X0018934Y0005522D01*
X0018871Y0005648D01*
X0018812Y0005775D01*
X0018757Y0005904D01*
X0018705Y0006034D01*
X0018657Y0006166D01*
X0018612Y0006299D01*
X0018571Y0006433D01*
X0018534Y0006568D01*
X0018501Y0006704D01*
X0018472Y0006842D01*
X0018447Y0006979D01*
X0018425Y0007118D01*
X0018407Y0007257D01*
X0018394Y0007397D01*
X0018384Y0007537D01*
X0018378Y0007677D01*
X0018376Y0007817D01*
D12*
X0075813Y0122713D02*
X0075815Y0122760D01*
X0075821Y0122807D01*
X0075830Y0122853D01*
X0075844Y0122898D01*
X0075861Y0122942D01*
X0075882Y0122984D01*
X0075906Y0123025D01*
X0075933Y0123063D01*
X0075964Y0123099D01*
X0075997Y0123132D01*
X0076033Y0123163D01*
X0076071Y0123190D01*
X0076112Y0123214D01*
X0076154Y0123235D01*
X0076198Y0123252D01*
X0076243Y0123266D01*
X0076289Y0123275D01*
X0076336Y0123281D01*
X0076383Y0123283D01*
X0076430Y0123281D01*
X0076477Y0123275D01*
X0076523Y0123266D01*
X0076568Y0123252D01*
X0076612Y0123235D01*
X0076654Y0123214D01*
X0076695Y0123190D01*
X0076733Y0123163D01*
X0076769Y0123132D01*
X0076802Y0123099D01*
X0076833Y0123063D01*
X0076860Y0123025D01*
X0076884Y0122984D01*
X0076905Y0122942D01*
X0076922Y0122898D01*
X0076936Y0122853D01*
X0076945Y0122807D01*
X0076951Y0122760D01*
X0076953Y0122713D01*
X0076951Y0122666D01*
X0076945Y0122619D01*
X0076936Y0122573D01*
X0076922Y0122528D01*
X0076905Y0122484D01*
X0076884Y0122442D01*
X0076860Y0122401D01*
X0076833Y0122363D01*
X0076802Y0122327D01*
X0076769Y0122294D01*
X0076733Y0122263D01*
X0076695Y0122236D01*
X0076654Y0122212D01*
X0076612Y0122191D01*
X0076568Y0122174D01*
X0076523Y0122160D01*
X0076477Y0122151D01*
X0076430Y0122145D01*
X0076383Y0122143D01*
X0076336Y0122145D01*
X0076289Y0122151D01*
X0076243Y0122160D01*
X0076198Y0122174D01*
X0076154Y0122191D01*
X0076112Y0122212D01*
X0076071Y0122236D01*
X0076033Y0122263D01*
X0075997Y0122294D01*
X0075964Y0122327D01*
X0075933Y0122363D01*
X0075906Y0122401D01*
X0075882Y0122442D01*
X0075861Y0122484D01*
X0075844Y0122528D01*
X0075830Y0122573D01*
X0075821Y0122619D01*
X0075815Y0122666D01*
X0075813Y0122713D01*
D13*
X0089236Y0097425D02*
X0090203Y0095974D01*
X0091171Y0097425D01*
X0091171Y0095974D02*
X0088268Y0095974D01*
X0088268Y0093995D02*
X0091171Y0093995D01*
X0091171Y0094962D02*
X0091171Y0093027D01*
X0089236Y0093027D02*
X0088268Y0093995D01*
X0065184Y0048884D02*
X0065184Y0045981D01*
X0065184Y0046949D02*
X0066635Y0047916D01*
X0065184Y0046949D02*
X0066635Y0045981D01*
X0064172Y0046465D02*
X0063688Y0045981D01*
X0062721Y0045981D01*
X0062237Y0046465D01*
X0061248Y0046465D02*
X0061248Y0045981D01*
X0060764Y0045981D01*
X0060764Y0046465D01*
X0061248Y0046465D01*
X0059752Y0045981D02*
X0057817Y0045981D01*
X0059752Y0047916D01*
X0059752Y0048400D01*
X0059269Y0048884D01*
X0058301Y0048884D01*
X0057817Y0048400D01*
X0056806Y0048884D02*
X0054871Y0048884D01*
X0054871Y0047433D01*
X0055838Y0047916D01*
X0056322Y0047916D01*
X0056806Y0047433D01*
X0056806Y0046465D01*
X0056322Y0045981D01*
X0055355Y0045981D01*
X0054871Y0046465D01*
X0052670Y0042978D02*
X0052670Y0040076D01*
X0052670Y0041043D02*
X0054121Y0042011D01*
X0052670Y0041043D02*
X0054121Y0040076D01*
X0051659Y0040076D02*
X0049724Y0040076D01*
X0050691Y0040076D02*
X0050691Y0042978D01*
X0049724Y0042011D01*
X0048734Y0040560D02*
X0048250Y0040560D01*
X0048250Y0040076D01*
X0048734Y0040076D01*
X0048734Y0040560D01*
X0047239Y0040560D02*
X0046755Y0040076D01*
X0045788Y0040076D01*
X0045304Y0040560D01*
X0047239Y0042495D01*
X0047239Y0040560D01*
X0047239Y0042495D02*
X0046755Y0042978D01*
X0045788Y0042978D01*
X0045304Y0042495D01*
X0045304Y0040560D01*
X0044292Y0040560D02*
X0043809Y0040076D01*
X0042841Y0040076D01*
X0042357Y0040560D01*
X0043325Y0041527D02*
X0043809Y0041527D01*
X0044292Y0041043D01*
X0044292Y0040560D01*
X0043809Y0041527D02*
X0044292Y0042011D01*
X0044292Y0042495D01*
X0043809Y0042978D01*
X0042841Y0042978D01*
X0042357Y0042495D01*
X0036817Y0052504D02*
X0034966Y0052504D01*
X0034966Y0054973D02*
X0037435Y0054973D01*
X0037435Y0053122D01*
X0036817Y0052504D01*
X0036817Y0056188D02*
X0035583Y0056188D01*
X0034966Y0056805D01*
X0034966Y0058039D01*
X0035583Y0058656D01*
X0036817Y0058656D01*
X0037435Y0058039D01*
X0037435Y0056805D01*
X0036817Y0056188D01*
X0042173Y0080886D02*
X0040938Y0082120D01*
X0042173Y0083355D01*
X0044642Y0083355D01*
X0044642Y0084569D02*
X0044642Y0086421D01*
X0044024Y0087038D01*
X0042790Y0087038D01*
X0042173Y0086421D01*
X0042173Y0084569D01*
X0045876Y0084569D01*
X0042790Y0083355D02*
X0042790Y0080886D01*
X0042173Y0080886D02*
X0044642Y0080886D01*
X0044642Y0088252D02*
X0042173Y0088252D01*
X0043407Y0088252D02*
X0042173Y0089487D01*
X0042173Y0090104D01*
X0042173Y0095005D02*
X0041556Y0095622D01*
X0040321Y0095622D01*
X0042173Y0096846D02*
X0040938Y0098081D01*
X0044642Y0098081D01*
X0044642Y0099315D02*
X0044642Y0096846D01*
X0044024Y0100529D02*
X0042790Y0100529D01*
X0042790Y0102381D01*
X0043407Y0102998D01*
X0044024Y0102998D01*
X0044642Y0102381D01*
X0044642Y0101147D01*
X0044024Y0100529D01*
X0042790Y0100529D02*
X0041556Y0101764D01*
X0040938Y0102998D01*
X0044024Y0104213D02*
X0044024Y0104830D01*
X0044642Y0104830D01*
X0044642Y0104213D01*
X0044024Y0104213D01*
X0042173Y0109737D02*
X0044642Y0110972D01*
X0042173Y0112206D01*
X0041556Y0113420D02*
X0040938Y0114038D01*
X0040938Y0115272D01*
X0041556Y0115889D01*
X0042173Y0115889D01*
X0044642Y0113420D01*
X0044642Y0115889D01*
X0044642Y0117104D02*
X0044642Y0117721D01*
X0044024Y0117721D01*
X0044024Y0117104D01*
X0044642Y0117104D01*
X0062721Y0048884D02*
X0063688Y0048884D01*
X0064172Y0048400D01*
X0064172Y0047916D01*
X0063688Y0047433D01*
X0064172Y0046949D01*
X0064172Y0046465D01*
X0063688Y0047433D02*
X0063205Y0047433D01*
X0062237Y0048400D02*
X0062721Y0048884D01*
X0080713Y0021857D02*
X0080713Y0019922D01*
X0083616Y0019922D01*
X0083616Y0018910D02*
X0081681Y0018910D01*
X0082164Y0019922D02*
X0082164Y0020889D01*
X0083616Y0018910D02*
X0083616Y0017459D01*
X0083132Y0016975D01*
X0081681Y0016975D01*
X0083616Y0015964D02*
X0083616Y0014029D01*
X0083616Y0014996D02*
X0080713Y0014996D01*
X0081681Y0014029D01*
X0082724Y0012539D02*
X0082724Y0010604D01*
X0081757Y0011572D02*
X0083692Y0011572D01*
X0100243Y0008331D02*
X0100243Y0006396D01*
X0100726Y0005913D01*
X0101694Y0005913D01*
X0102178Y0006396D01*
X0103189Y0005913D02*
X0103189Y0008815D01*
X0102178Y0008331D02*
X0101694Y0008815D01*
X0100726Y0008815D01*
X0100243Y0008331D01*
X0103189Y0007364D02*
X0105124Y0007364D01*
X0106136Y0006880D02*
X0107587Y0006880D01*
X0108071Y0007364D01*
X0108071Y0008331D01*
X0107587Y0008815D01*
X0106136Y0008815D01*
X0106136Y0005913D01*
X0105124Y0005913D02*
X0105124Y0008815D01*
X0107103Y0006880D02*
X0108071Y0005913D01*
X0109082Y0006396D02*
X0109566Y0005913D01*
X0110533Y0005913D01*
X0111017Y0006396D01*
X0111017Y0007364D01*
X0110050Y0007364D01*
X0111017Y0008331D02*
X0110533Y0008815D01*
X0109566Y0008815D01*
X0109082Y0008331D01*
X0109082Y0006396D01*
X0118887Y0012014D02*
X0118887Y0013465D01*
X0119371Y0013949D01*
X0119855Y0013949D01*
X0120338Y0013465D01*
X0120338Y0012014D01*
X0118887Y0012014D02*
X0121790Y0012014D01*
X0121790Y0013465D01*
X0121306Y0013949D01*
X0120822Y0013949D01*
X0120338Y0013465D01*
X0120338Y0014961D02*
X0120338Y0016896D01*
X0119855Y0016896D02*
X0121790Y0016896D01*
X0119855Y0016896D02*
X0118887Y0015928D01*
X0119855Y0014961D01*
X0121790Y0014961D01*
X0121790Y0018875D02*
X0118887Y0018875D01*
X0118887Y0019842D02*
X0118887Y0017907D01*
X0118887Y0020854D02*
X0118887Y0022789D01*
X0118887Y0021821D02*
X0121790Y0021821D01*
X0117513Y0022933D02*
X0115578Y0022933D01*
X0114538Y0022633D02*
X0114538Y0024084D01*
X0112603Y0024084D01*
X0113087Y0025096D02*
X0113087Y0026063D01*
X0114538Y0025096D02*
X0111636Y0025096D01*
X0111636Y0027031D01*
X0114538Y0022633D02*
X0114054Y0022149D01*
X0112603Y0022149D01*
X0111636Y0020170D02*
X0114538Y0020170D01*
X0114538Y0019203D02*
X0114538Y0021138D01*
X0116545Y0021965D02*
X0116545Y0023900D01*
X0112603Y0019203D02*
X0111636Y0020170D01*
X0041442Y0007750D02*
X0040825Y0008367D01*
X0037739Y0008367D01*
X0038356Y0010199D02*
X0039590Y0010199D01*
X0040207Y0010816D01*
X0040207Y0012050D01*
X0039590Y0012667D01*
X0038356Y0012667D01*
X0037739Y0012050D01*
X0037739Y0010816D01*
X0038356Y0010199D01*
X0039590Y0008984D02*
X0039590Y0007750D01*
X0039590Y0006529D02*
X0039590Y0005294D01*
X0040825Y0005912D02*
X0041442Y0005294D01*
X0040825Y0005912D02*
X0037739Y0005912D01*
D14*
X0043470Y0067298D02*
X0042736Y0068032D01*
X0044938Y0068032D01*
X0044938Y0067298D02*
X0044938Y0068766D01*
X0044571Y0069508D02*
X0044938Y0069875D01*
X0044938Y0070976D01*
X0043470Y0070976D01*
X0043837Y0071717D02*
X0043837Y0072451D01*
X0044938Y0071717D02*
X0042736Y0071717D01*
X0042736Y0073185D01*
X0043470Y0069508D02*
X0044571Y0069508D01*
X0047221Y0087040D02*
X0046854Y0087407D01*
X0046854Y0088141D01*
X0047221Y0088508D01*
X0048689Y0087040D01*
X0049056Y0087407D01*
X0049056Y0088141D01*
X0048689Y0088508D01*
X0047221Y0088508D01*
X0047221Y0087040D02*
X0048689Y0087040D01*
X0048689Y0089250D02*
X0048689Y0089617D01*
X0049056Y0089617D01*
X0049056Y0089250D01*
X0048689Y0089250D01*
X0049056Y0090355D02*
X0049056Y0091823D01*
X0049056Y0091089D02*
X0046854Y0091089D01*
X0047588Y0090355D01*
X0047588Y0092565D02*
X0048689Y0092565D01*
X0049056Y0092932D01*
X0049056Y0094033D01*
X0047588Y0094033D01*
X0047955Y0094775D02*
X0047955Y0095509D01*
X0046854Y0094775D02*
X0046854Y0096243D01*
X0046854Y0094775D02*
X0049056Y0094775D01*
X0066507Y0087823D02*
X0066507Y0087456D01*
X0066874Y0087089D01*
X0067608Y0087089D01*
X0067975Y0086722D01*
X0067975Y0086355D01*
X0067608Y0085988D01*
X0066874Y0085988D01*
X0066507Y0086355D01*
X0066507Y0087823D02*
X0066874Y0088190D01*
X0067608Y0088190D01*
X0067975Y0087823D01*
X0068717Y0087823D02*
X0068717Y0086355D01*
X0069084Y0085988D01*
X0069818Y0085988D01*
X0070185Y0086355D01*
X0070927Y0085988D02*
X0072395Y0085988D01*
X0070927Y0085988D02*
X0070927Y0088190D01*
X0070185Y0087823D02*
X0069818Y0088190D01*
X0069084Y0088190D01*
X0068717Y0087823D01*
X0080294Y0109158D02*
X0079927Y0109525D01*
X0081395Y0110993D01*
X0081395Y0109525D01*
X0081028Y0109158D01*
X0080294Y0109158D01*
X0079927Y0109525D02*
X0079927Y0110993D01*
X0080294Y0111360D01*
X0081028Y0111360D01*
X0081395Y0110993D01*
X0082136Y0109525D02*
X0082503Y0109525D01*
X0082503Y0109158D01*
X0082136Y0109158D01*
X0082136Y0109525D01*
X0083241Y0109158D02*
X0084709Y0109158D01*
X0083975Y0109158D02*
X0083975Y0111360D01*
X0083241Y0110626D01*
X0085451Y0110626D02*
X0085451Y0109525D01*
X0085818Y0109158D01*
X0086919Y0109158D01*
X0086919Y0110626D01*
X0087661Y0110259D02*
X0088395Y0110259D01*
X0087661Y0109158D02*
X0087661Y0111360D01*
X0089129Y0111360D01*
X0101901Y0108858D02*
X0102635Y0109592D01*
X0104103Y0109592D01*
X0103002Y0109592D02*
X0103002Y0108124D01*
X0102635Y0108124D02*
X0101901Y0108858D01*
X0102635Y0108124D02*
X0104103Y0108124D01*
X0103736Y0107383D02*
X0102268Y0107383D01*
X0101901Y0107016D01*
X0101901Y0105915D01*
X0104103Y0105915D01*
X0104103Y0107016D01*
X0103736Y0107383D01*
X0103736Y0105173D02*
X0104103Y0104806D01*
X0104103Y0104072D01*
X0103736Y0103705D01*
X0103002Y0104072D02*
X0103002Y0104806D01*
X0103369Y0105173D01*
X0103736Y0105173D01*
X0103002Y0104072D02*
X0102635Y0103705D01*
X0102268Y0103705D01*
X0101901Y0104072D01*
X0101901Y0104806D01*
X0102268Y0105173D01*
X0112431Y0118906D02*
X0111697Y0119640D01*
X0113899Y0119640D01*
X0113899Y0118906D02*
X0113899Y0120374D01*
X0113532Y0121116D02*
X0112064Y0121116D01*
X0111697Y0121482D01*
X0111697Y0122216D01*
X0112064Y0122583D01*
X0113532Y0121116D01*
X0113899Y0121482D01*
X0113899Y0122216D01*
X0113532Y0122583D01*
X0112064Y0122583D01*
X0111697Y0123325D02*
X0113899Y0123325D01*
X0113165Y0123325D02*
X0112431Y0124426D01*
X0113165Y0123325D02*
X0113899Y0124426D01*
X0109627Y0087818D02*
X0109627Y0085616D01*
X0109627Y0086350D02*
X0110728Y0087084D01*
X0109627Y0086350D02*
X0110728Y0085616D01*
X0108885Y0085616D02*
X0107417Y0085616D01*
X0108151Y0085616D02*
X0108151Y0087818D01*
X0107417Y0087084D01*
X0068111Y0117628D02*
X0067744Y0117261D01*
X0066276Y0118729D01*
X0067744Y0118729D01*
X0068111Y0118362D01*
X0068111Y0117628D01*
X0067744Y0117261D02*
X0066276Y0117261D01*
X0065909Y0117628D01*
X0065909Y0118362D01*
X0066276Y0118729D01*
X0067744Y0119471D02*
X0067744Y0119838D01*
X0068111Y0119838D01*
X0068111Y0119471D01*
X0067744Y0119471D01*
X0068111Y0120575D02*
X0068111Y0122043D01*
X0068111Y0121309D02*
X0065909Y0121309D01*
X0066643Y0120575D01*
X0066643Y0122785D02*
X0067744Y0122785D01*
X0068111Y0123152D01*
X0068111Y0124253D01*
X0066643Y0124253D01*
X0067010Y0124995D02*
X0067010Y0125729D01*
X0065909Y0124995D02*
X0065909Y0126463D01*
X0065909Y0124995D02*
X0068111Y0124995D01*
X0046209Y0125206D02*
X0044374Y0125206D01*
X0044007Y0125573D01*
X0045108Y0125573D02*
X0045108Y0124839D01*
X0044741Y0124097D02*
X0046209Y0124097D01*
X0046209Y0122996D01*
X0045842Y0122629D01*
X0044741Y0122629D01*
X0046209Y0121887D02*
X0046209Y0120419D01*
X0046209Y0121153D02*
X0044007Y0121153D01*
X0044741Y0120419D01*
D15*
X0069907Y0088008D02*
X0069974Y0088008D01*
X0069999Y0088008D02*
X0070049Y0088008D01*
X0070066Y0087992D01*
X0070066Y0087958D01*
X0070049Y0087942D01*
X0069999Y0087942D01*
X0069999Y0087908D02*
X0069999Y0088008D01*
X0069940Y0088008D02*
X0069940Y0087908D01*
X0070091Y0087908D02*
X0070141Y0087908D01*
X0070158Y0087925D01*
X0070158Y0087942D01*
X0070141Y0087958D01*
X0070091Y0087958D01*
X0070091Y0087908D02*
X0070091Y0088008D01*
X0070141Y0088008D01*
X0070158Y0087992D01*
X0070158Y0087975D01*
X0070141Y0087958D01*
X0070183Y0087975D02*
X0070216Y0088008D01*
X0070216Y0087908D01*
X0070183Y0087908D02*
X0070250Y0087908D01*
X0070275Y0087875D02*
X0070308Y0087908D01*
X0070292Y0087908D01*
X0070292Y0087925D01*
X0070308Y0087925D01*
X0070308Y0087908D01*
X0070336Y0087908D02*
X0070403Y0087975D01*
X0070403Y0087992D01*
X0070387Y0088008D01*
X0070353Y0088008D01*
X0070336Y0087992D01*
X0070336Y0087908D02*
X0070403Y0087908D01*
X0070429Y0087908D02*
X0070429Y0087925D01*
X0070495Y0087992D01*
X0070495Y0088008D01*
X0070429Y0088008D01*
X0101184Y0096060D02*
X0101251Y0096060D01*
X0101276Y0096060D02*
X0101326Y0096060D01*
X0101343Y0096044D01*
X0101343Y0096010D01*
X0101326Y0095994D01*
X0101276Y0095994D01*
X0101276Y0095960D02*
X0101276Y0096060D01*
X0101218Y0096060D02*
X0101218Y0095960D01*
X0101369Y0095960D02*
X0101419Y0095960D01*
X0101435Y0095977D01*
X0101435Y0095994D01*
X0101419Y0096010D01*
X0101369Y0096010D01*
X0101419Y0096010D02*
X0101435Y0096027D01*
X0101435Y0096044D01*
X0101419Y0096060D01*
X0101369Y0096060D01*
X0101369Y0095960D01*
X0101461Y0095960D02*
X0101527Y0095960D01*
X0101494Y0095960D02*
X0101494Y0096060D01*
X0101461Y0096027D01*
X0101569Y0095977D02*
X0101569Y0095960D01*
X0101586Y0095960D01*
X0101586Y0095977D01*
X0101569Y0095977D01*
X0101586Y0095960D02*
X0101553Y0095927D01*
X0101614Y0095960D02*
X0101681Y0096027D01*
X0101681Y0096044D01*
X0101664Y0096060D01*
X0101631Y0096060D01*
X0101614Y0096044D01*
X0101614Y0095960D02*
X0101681Y0095960D01*
X0101706Y0095960D02*
X0101706Y0095977D01*
X0101773Y0096044D01*
X0101773Y0096060D01*
X0101706Y0096060D01*
X0068486Y0048404D02*
X0068486Y0048387D01*
X0068420Y0048321D01*
X0068420Y0048304D01*
X0068394Y0048304D02*
X0068328Y0048304D01*
X0068394Y0048371D01*
X0068394Y0048387D01*
X0068378Y0048404D01*
X0068344Y0048404D01*
X0068328Y0048387D01*
X0068300Y0048321D02*
X0068283Y0048321D01*
X0068283Y0048304D01*
X0068300Y0048304D01*
X0068300Y0048321D01*
X0068300Y0048304D02*
X0068266Y0048270D01*
X0068241Y0048304D02*
X0068174Y0048304D01*
X0068149Y0048321D02*
X0068132Y0048304D01*
X0068082Y0048304D01*
X0068082Y0048404D01*
X0068132Y0048404D01*
X0068149Y0048387D01*
X0068149Y0048371D01*
X0068132Y0048354D01*
X0068082Y0048354D01*
X0068057Y0048354D02*
X0068040Y0048337D01*
X0067990Y0048337D01*
X0067990Y0048304D02*
X0067990Y0048404D01*
X0068040Y0048404D01*
X0068057Y0048387D01*
X0068057Y0048354D01*
X0068132Y0048354D02*
X0068149Y0048337D01*
X0068149Y0048321D01*
X0068174Y0048371D02*
X0068208Y0048404D01*
X0068208Y0048304D01*
X0068420Y0048404D02*
X0068486Y0048404D01*
X0067965Y0048404D02*
X0067898Y0048404D01*
X0067931Y0048404D02*
X0067931Y0048304D01*
X0073986Y0014051D02*
X0074053Y0014051D01*
X0074078Y0014051D02*
X0074128Y0014051D01*
X0074145Y0014035D01*
X0074145Y0014001D01*
X0074128Y0013985D01*
X0074078Y0013985D01*
X0074078Y0013951D02*
X0074078Y0014051D01*
X0074020Y0014051D02*
X0074020Y0013951D01*
X0074170Y0013951D02*
X0074220Y0013951D01*
X0074237Y0013968D01*
X0074237Y0013985D01*
X0074220Y0014001D01*
X0074170Y0014001D01*
X0074170Y0013951D02*
X0074170Y0014051D01*
X0074220Y0014051D01*
X0074237Y0014035D01*
X0074237Y0014018D01*
X0074220Y0014001D01*
X0074262Y0014018D02*
X0074296Y0014051D01*
X0074296Y0013951D01*
X0074329Y0013951D02*
X0074262Y0013951D01*
X0074355Y0013918D02*
X0074388Y0013951D01*
X0074371Y0013951D01*
X0074371Y0013968D01*
X0074388Y0013968D01*
X0074388Y0013951D01*
X0074416Y0013951D02*
X0074483Y0014018D01*
X0074483Y0014035D01*
X0074466Y0014051D01*
X0074433Y0014051D01*
X0074416Y0014035D01*
X0074416Y0013951D02*
X0074483Y0013951D01*
X0074508Y0013951D02*
X0074508Y0013968D01*
X0074575Y0014035D01*
X0074575Y0014051D01*
X0074508Y0014051D01*
X0021831Y0057020D02*
X0021831Y0057037D01*
X0021898Y0057104D01*
X0021898Y0057120D01*
X0021831Y0057120D01*
X0021805Y0057104D02*
X0021789Y0057120D01*
X0021755Y0057120D01*
X0021739Y0057104D01*
X0021805Y0057104D02*
X0021805Y0057087D01*
X0021739Y0057020D01*
X0021805Y0057020D01*
X0021711Y0057020D02*
X0021694Y0057020D01*
X0021694Y0057037D01*
X0021711Y0057037D01*
X0021711Y0057020D01*
X0021677Y0056987D01*
X0021652Y0057020D02*
X0021585Y0057020D01*
X0021560Y0057037D02*
X0021543Y0057020D01*
X0021493Y0057020D01*
X0021493Y0057120D01*
X0021543Y0057120D01*
X0021560Y0057104D01*
X0021560Y0057087D01*
X0021543Y0057070D01*
X0021493Y0057070D01*
X0021468Y0057070D02*
X0021451Y0057054D01*
X0021401Y0057054D01*
X0021401Y0057020D02*
X0021401Y0057120D01*
X0021451Y0057120D01*
X0021468Y0057104D01*
X0021468Y0057070D01*
X0021543Y0057070D02*
X0021560Y0057054D01*
X0021560Y0057037D01*
X0021585Y0057087D02*
X0021619Y0057120D01*
X0021619Y0057020D01*
X0021376Y0057120D02*
X0021309Y0057120D01*
X0021342Y0057120D02*
X0021342Y0057020D01*
D16*
X0042385Y0046878D03*
X0048185Y0046878D03*
X0056952Y0052784D03*
X0062752Y0052784D03*
X0105519Y0091594D03*
X0111319Y0091594D03*
D17*
X0112083Y0108520D03*
X0112083Y0114320D03*
X0095776Y0101048D03*
X0095776Y0095248D03*
D18*
X0056956Y0078687D02*
X0056956Y0075618D01*
X0052352Y0075618D01*
X0053886Y0074083D02*
X0052352Y0072549D01*
X0053886Y0071014D01*
X0056956Y0071014D01*
X0055421Y0069480D02*
X0052352Y0069480D01*
X0054654Y0071014D02*
X0054654Y0074083D01*
X0053886Y0074083D02*
X0056956Y0074083D01*
X0055421Y0069480D02*
X0056956Y0067945D01*
X0055421Y0066410D01*
X0052352Y0066410D01*
X0054654Y0064876D02*
X0056956Y0061806D01*
X0054654Y0064876D02*
X0052352Y0061806D01*
X0043058Y0040538D02*
X0043058Y0037469D01*
X0043058Y0039003D02*
X0038454Y0039003D01*
X0039989Y0037469D01*
X0039221Y0035934D02*
X0038454Y0035167D01*
X0038454Y0033632D01*
X0039221Y0032865D01*
X0039989Y0032865D01*
X0040756Y0033632D01*
X0040756Y0035167D01*
X0041523Y0035934D01*
X0042291Y0035934D01*
X0043058Y0035167D01*
X0043058Y0033632D01*
X0042291Y0032865D01*
X0037133Y0027861D02*
X0037133Y0024791D01*
X0032529Y0024791D01*
X0034063Y0023257D02*
X0037133Y0023257D01*
X0034831Y0023257D02*
X0034831Y0020187D01*
X0034063Y0020187D02*
X0032529Y0021722D01*
X0034063Y0023257D01*
X0034063Y0020187D02*
X0037133Y0020187D01*
X0035598Y0018653D02*
X0032529Y0018653D01*
X0032529Y0015583D02*
X0035598Y0015583D01*
X0037133Y0017118D01*
X0035598Y0018653D01*
X0034831Y0014049D02*
X0037133Y0010980D01*
X0034831Y0014049D02*
X0032529Y0010980D01*
D19*
X0036289Y0011557D02*
X0021329Y0011557D01*
X0021329Y0022975D01*
X0022510Y0022975D01*
X0022510Y0039510D01*
X0021329Y0039510D01*
X0021329Y0050928D01*
X0036289Y0050928D01*
X0036289Y0033998D01*
X0033533Y0033998D01*
X0033533Y0028487D01*
X0036289Y0028487D01*
X0036289Y0011557D01*
X0039833Y0014195D02*
X0044833Y0014195D01*
X0039833Y0014195D02*
X0039833Y0029195D01*
X0069833Y0029195D01*
X0069833Y0014195D01*
X0064833Y0014195D01*
X0036289Y0028487D02*
X0036289Y0033998D01*
X0021329Y0035180D02*
X0021329Y0027306D01*
X0001250Y0027306D01*
X0001250Y0035180D01*
X0021329Y0035180D01*
X0021329Y0039510D01*
X0021329Y0027306D02*
X0021329Y0022975D01*
X0059242Y0058369D02*
X0059242Y0060337D01*
X0059242Y0058369D02*
X0061211Y0058369D01*
X0069872Y0058369D02*
X0071841Y0058369D01*
X0071841Y0060337D01*
X0071841Y0072935D02*
X0071841Y0074904D01*
X0069872Y0074904D01*
X0058454Y0074904D02*
X0058456Y0074943D01*
X0058462Y0074982D01*
X0058472Y0075020D01*
X0058485Y0075057D01*
X0058502Y0075092D01*
X0058522Y0075126D01*
X0058546Y0075157D01*
X0058573Y0075186D01*
X0058602Y0075212D01*
X0058634Y0075235D01*
X0058668Y0075255D01*
X0058704Y0075271D01*
X0058741Y0075283D01*
X0058780Y0075292D01*
X0058819Y0075297D01*
X0058858Y0075298D01*
X0058897Y0075295D01*
X0058936Y0075288D01*
X0058973Y0075277D01*
X0059010Y0075263D01*
X0059045Y0075245D01*
X0059078Y0075224D01*
X0059109Y0075199D01*
X0059137Y0075172D01*
X0059162Y0075142D01*
X0059184Y0075109D01*
X0059203Y0075075D01*
X0059218Y0075039D01*
X0059230Y0075001D01*
X0059238Y0074963D01*
X0059242Y0074924D01*
X0059242Y0074884D01*
X0059238Y0074845D01*
X0059230Y0074807D01*
X0059218Y0074769D01*
X0059203Y0074733D01*
X0059184Y0074699D01*
X0059162Y0074666D01*
X0059137Y0074636D01*
X0059109Y0074609D01*
X0059078Y0074584D01*
X0059045Y0074563D01*
X0059010Y0074545D01*
X0058973Y0074531D01*
X0058936Y0074520D01*
X0058897Y0074513D01*
X0058858Y0074510D01*
X0058819Y0074511D01*
X0058780Y0074516D01*
X0058741Y0074525D01*
X0058704Y0074537D01*
X0058668Y0074553D01*
X0058634Y0074573D01*
X0058602Y0074596D01*
X0058573Y0074622D01*
X0058546Y0074651D01*
X0058522Y0074682D01*
X0058502Y0074716D01*
X0058485Y0074751D01*
X0058472Y0074788D01*
X0058462Y0074826D01*
X0058456Y0074865D01*
X0058454Y0074904D01*
X0064301Y0103031D02*
X0068238Y0103031D01*
X0068238Y0111692D02*
X0064301Y0111692D01*
X0062332Y0112480D02*
X0062334Y0112519D01*
X0062340Y0112558D01*
X0062350Y0112596D01*
X0062363Y0112633D01*
X0062380Y0112668D01*
X0062400Y0112702D01*
X0062424Y0112733D01*
X0062451Y0112762D01*
X0062480Y0112788D01*
X0062512Y0112811D01*
X0062546Y0112831D01*
X0062582Y0112847D01*
X0062619Y0112859D01*
X0062658Y0112868D01*
X0062697Y0112873D01*
X0062736Y0112874D01*
X0062775Y0112871D01*
X0062814Y0112864D01*
X0062851Y0112853D01*
X0062888Y0112839D01*
X0062923Y0112821D01*
X0062956Y0112800D01*
X0062987Y0112775D01*
X0063015Y0112748D01*
X0063040Y0112718D01*
X0063062Y0112685D01*
X0063081Y0112651D01*
X0063096Y0112615D01*
X0063108Y0112577D01*
X0063116Y0112539D01*
X0063120Y0112500D01*
X0063120Y0112460D01*
X0063116Y0112421D01*
X0063108Y0112383D01*
X0063096Y0112345D01*
X0063081Y0112309D01*
X0063062Y0112275D01*
X0063040Y0112242D01*
X0063015Y0112212D01*
X0062987Y0112185D01*
X0062956Y0112160D01*
X0062923Y0112139D01*
X0062888Y0112121D01*
X0062851Y0112107D01*
X0062814Y0112096D01*
X0062775Y0112089D01*
X0062736Y0112086D01*
X0062697Y0112087D01*
X0062658Y0112092D01*
X0062619Y0112101D01*
X0062582Y0112113D01*
X0062546Y0112129D01*
X0062512Y0112149D01*
X0062480Y0112172D01*
X0062451Y0112198D01*
X0062424Y0112227D01*
X0062400Y0112258D01*
X0062380Y0112292D01*
X0062363Y0112327D01*
X0062350Y0112364D01*
X0062340Y0112402D01*
X0062334Y0112441D01*
X0062332Y0112480D01*
D20*
X0039377Y0141243D02*
X0029535Y0141243D01*
X0029535Y0060534D01*
X0039377Y0060534D01*
X0039377Y0141243D01*
X0079124Y0077987D02*
X0079126Y0078036D01*
X0079132Y0078084D01*
X0079142Y0078132D01*
X0079156Y0078179D01*
X0079173Y0078225D01*
X0079194Y0078269D01*
X0079219Y0078311D01*
X0079247Y0078351D01*
X0079279Y0078389D01*
X0079313Y0078424D01*
X0079350Y0078456D01*
X0079389Y0078485D01*
X0079431Y0078511D01*
X0079475Y0078533D01*
X0079520Y0078551D01*
X0079567Y0078566D01*
X0079614Y0078577D01*
X0079663Y0078584D01*
X0079712Y0078587D01*
X0079761Y0078586D01*
X0079809Y0078581D01*
X0079858Y0078572D01*
X0079905Y0078559D01*
X0079951Y0078542D01*
X0079995Y0078522D01*
X0080038Y0078498D01*
X0080079Y0078471D01*
X0080117Y0078440D01*
X0080153Y0078407D01*
X0080185Y0078371D01*
X0080215Y0078332D01*
X0080242Y0078291D01*
X0080265Y0078247D01*
X0080284Y0078202D01*
X0080300Y0078156D01*
X0080312Y0078109D01*
X0080320Y0078060D01*
X0080324Y0078011D01*
X0080324Y0077963D01*
X0080320Y0077914D01*
X0080312Y0077865D01*
X0080300Y0077818D01*
X0080284Y0077772D01*
X0080265Y0077727D01*
X0080242Y0077683D01*
X0080215Y0077642D01*
X0080185Y0077603D01*
X0080153Y0077567D01*
X0080117Y0077534D01*
X0080079Y0077503D01*
X0080038Y0077476D01*
X0079995Y0077452D01*
X0079951Y0077432D01*
X0079905Y0077415D01*
X0079858Y0077402D01*
X0079809Y0077393D01*
X0079761Y0077388D01*
X0079712Y0077387D01*
X0079663Y0077390D01*
X0079614Y0077397D01*
X0079567Y0077408D01*
X0079520Y0077423D01*
X0079475Y0077441D01*
X0079431Y0077463D01*
X0079389Y0077489D01*
X0079350Y0077518D01*
X0079313Y0077550D01*
X0079279Y0077585D01*
X0079247Y0077623D01*
X0079219Y0077663D01*
X0079194Y0077705D01*
X0079173Y0077749D01*
X0079156Y0077795D01*
X0079142Y0077842D01*
X0079132Y0077890D01*
X0079126Y0077938D01*
X0079124Y0077987D01*
X0080325Y0075888D02*
X0081722Y0077286D01*
X0107923Y0077286D01*
X0107923Y0049687D01*
X0080325Y0049687D01*
X0080325Y0075888D01*
X0116132Y0060534D02*
X0125974Y0060534D01*
X0125974Y0141243D01*
X0116132Y0141243D01*
X0116132Y0060534D01*
M02*
