G75*
%MOIN*%
%OFA0B0*%
%FSLAX25Y25*%
%IPPOS*%
%LPD*%
%AMOC8*
5,1,8,0,0,1.08239X$1,22.5*
%
%ADD10C,0.01000*%
%ADD11R,0.05906X0.05118*%
%ADD12R,0.05118X0.05906*%
%ADD13R,0.04724X0.02165*%
%ADD14R,0.07400X0.07400*%
%ADD15OC8,0.07400*%
%ADD16C,0.05000*%
%ADD17R,0.04331X0.05512*%
%ADD18R,0.05512X0.04331*%
%ADD19R,0.03937X0.05512*%
%ADD20R,0.05000X0.02200*%
%ADD21R,0.02200X0.05000*%
%ADD22R,0.02362X0.08661*%
%ADD23R,0.13780X0.08661*%
%ADD24R,0.05150X0.05150*%
%ADD25C,0.05150*%
%ADD26C,0.06299*%
%ADD27C,0.05600*%
%ADD28C,0.10000*%
%ADD29R,0.02362X0.00886*%
%ADD30C,0.01200*%
%ADD31C,0.00709*%
%ADD32R,0.03562X0.03562*%
%ADD33C,0.00669*%
%ADD34C,0.01600*%
D10*
X0018376Y0007817D02*
X0018376Y0142817D01*
X0018378Y0142957D01*
X0018384Y0143097D01*
X0018394Y0143237D01*
X0018407Y0143377D01*
X0018425Y0143516D01*
X0018447Y0143655D01*
X0018472Y0143792D01*
X0018501Y0143930D01*
X0018534Y0144066D01*
X0018571Y0144201D01*
X0018612Y0144335D01*
X0018657Y0144468D01*
X0018705Y0144600D01*
X0018757Y0144730D01*
X0018812Y0144859D01*
X0018871Y0144986D01*
X0018934Y0145112D01*
X0019000Y0145236D01*
X0019069Y0145357D01*
X0019142Y0145477D01*
X0019219Y0145595D01*
X0019298Y0145710D01*
X0019381Y0145824D01*
X0019467Y0145934D01*
X0019556Y0146043D01*
X0019648Y0146149D01*
X0019743Y0146252D01*
X0019840Y0146353D01*
X0019941Y0146450D01*
X0020044Y0146545D01*
X0020150Y0146637D01*
X0020259Y0146726D01*
X0020369Y0146812D01*
X0020483Y0146895D01*
X0020598Y0146974D01*
X0020716Y0147051D01*
X0020836Y0147124D01*
X0020957Y0147193D01*
X0021081Y0147259D01*
X0021207Y0147322D01*
X0021334Y0147381D01*
X0021463Y0147436D01*
X0021593Y0147488D01*
X0021725Y0147536D01*
X0021858Y0147581D01*
X0021992Y0147622D01*
X0022127Y0147659D01*
X0022263Y0147692D01*
X0022401Y0147721D01*
X0022538Y0147746D01*
X0022677Y0147768D01*
X0022816Y0147786D01*
X0022956Y0147799D01*
X0023096Y0147809D01*
X0023236Y0147815D01*
X0023376Y0147817D01*
X0123376Y0147817D01*
X0123516Y0147815D01*
X0123656Y0147809D01*
X0123796Y0147799D01*
X0123936Y0147786D01*
X0124075Y0147768D01*
X0124214Y0147746D01*
X0124351Y0147721D01*
X0124489Y0147692D01*
X0124625Y0147659D01*
X0124760Y0147622D01*
X0124894Y0147581D01*
X0125027Y0147536D01*
X0125159Y0147488D01*
X0125289Y0147436D01*
X0125418Y0147381D01*
X0125545Y0147322D01*
X0125671Y0147259D01*
X0125795Y0147193D01*
X0125916Y0147124D01*
X0126036Y0147051D01*
X0126154Y0146974D01*
X0126269Y0146895D01*
X0126383Y0146812D01*
X0126493Y0146726D01*
X0126602Y0146637D01*
X0126708Y0146545D01*
X0126811Y0146450D01*
X0126912Y0146353D01*
X0127009Y0146252D01*
X0127104Y0146149D01*
X0127196Y0146043D01*
X0127285Y0145934D01*
X0127371Y0145824D01*
X0127454Y0145710D01*
X0127533Y0145595D01*
X0127610Y0145477D01*
X0127683Y0145357D01*
X0127752Y0145236D01*
X0127818Y0145112D01*
X0127881Y0144986D01*
X0127940Y0144859D01*
X0127995Y0144730D01*
X0128047Y0144600D01*
X0128095Y0144468D01*
X0128140Y0144335D01*
X0128181Y0144201D01*
X0128218Y0144066D01*
X0128251Y0143930D01*
X0128280Y0143792D01*
X0128305Y0143655D01*
X0128327Y0143516D01*
X0128345Y0143377D01*
X0128358Y0143237D01*
X0128368Y0143097D01*
X0128374Y0142957D01*
X0128376Y0142817D01*
X0128376Y0007817D01*
X0128374Y0007677D01*
X0128368Y0007537D01*
X0128358Y0007397D01*
X0128345Y0007257D01*
X0128327Y0007118D01*
X0128305Y0006979D01*
X0128280Y0006842D01*
X0128251Y0006704D01*
X0128218Y0006568D01*
X0128181Y0006433D01*
X0128140Y0006299D01*
X0128095Y0006166D01*
X0128047Y0006034D01*
X0127995Y0005904D01*
X0127940Y0005775D01*
X0127881Y0005648D01*
X0127818Y0005522D01*
X0127752Y0005398D01*
X0127683Y0005277D01*
X0127610Y0005157D01*
X0127533Y0005039D01*
X0127454Y0004924D01*
X0127371Y0004810D01*
X0127285Y0004700D01*
X0127196Y0004591D01*
X0127104Y0004485D01*
X0127009Y0004382D01*
X0126912Y0004281D01*
X0126811Y0004184D01*
X0126708Y0004089D01*
X0126602Y0003997D01*
X0126493Y0003908D01*
X0126383Y0003822D01*
X0126269Y0003739D01*
X0126154Y0003660D01*
X0126036Y0003583D01*
X0125916Y0003510D01*
X0125795Y0003441D01*
X0125671Y0003375D01*
X0125545Y0003312D01*
X0125418Y0003253D01*
X0125289Y0003198D01*
X0125159Y0003146D01*
X0125027Y0003098D01*
X0124894Y0003053D01*
X0124760Y0003012D01*
X0124625Y0002975D01*
X0124489Y0002942D01*
X0124351Y0002913D01*
X0124214Y0002888D01*
X0124075Y0002866D01*
X0123936Y0002848D01*
X0123796Y0002835D01*
X0123656Y0002825D01*
X0123516Y0002819D01*
X0123376Y0002817D01*
X0023376Y0002817D01*
X0023236Y0002819D01*
X0023096Y0002825D01*
X0022956Y0002835D01*
X0022816Y0002848D01*
X0022677Y0002866D01*
X0022538Y0002888D01*
X0022401Y0002913D01*
X0022263Y0002942D01*
X0022127Y0002975D01*
X0021992Y0003012D01*
X0021858Y0003053D01*
X0021725Y0003098D01*
X0021593Y0003146D01*
X0021463Y0003198D01*
X0021334Y0003253D01*
X0021207Y0003312D01*
X0021081Y0003375D01*
X0020957Y0003441D01*
X0020836Y0003510D01*
X0020716Y0003583D01*
X0020598Y0003660D01*
X0020483Y0003739D01*
X0020369Y0003822D01*
X0020259Y0003908D01*
X0020150Y0003997D01*
X0020044Y0004089D01*
X0019941Y0004184D01*
X0019840Y0004281D01*
X0019743Y0004382D01*
X0019648Y0004485D01*
X0019556Y0004591D01*
X0019467Y0004700D01*
X0019381Y0004810D01*
X0019298Y0004924D01*
X0019219Y0005039D01*
X0019142Y0005157D01*
X0019069Y0005277D01*
X0019000Y0005398D01*
X0018934Y0005522D01*
X0018871Y0005648D01*
X0018812Y0005775D01*
X0018757Y0005904D01*
X0018705Y0006034D01*
X0018657Y0006166D01*
X0018612Y0006299D01*
X0018571Y0006433D01*
X0018534Y0006568D01*
X0018501Y0006704D01*
X0018472Y0006842D01*
X0018447Y0006979D01*
X0018425Y0007118D01*
X0018407Y0007257D01*
X0018394Y0007397D01*
X0018384Y0007537D01*
X0018378Y0007677D01*
X0018376Y0007817D01*
X0023809Y0060020D02*
X0024057Y0060268D01*
X0024057Y0095391D01*
X0024042Y0095407D01*
X0034456Y0096951D01*
X0039336Y0079589D02*
X0039336Y0134313D01*
X0051447Y0134313D01*
X0069163Y0128802D02*
X0071526Y0132345D01*
X0071526Y0140219D01*
X0073494Y0142187D01*
X0092392Y0142187D01*
X0093848Y0140731D01*
X0093848Y0133920D01*
X0093848Y0123920D02*
X0104433Y0115476D01*
X0105778Y0114628D01*
X0089400Y0086676D02*
X0089242Y0086676D01*
X0089400Y0086676D02*
X0089400Y0080387D01*
X0092549Y0080387D02*
X0092785Y0080150D01*
X0092785Y0071321D01*
X0103022Y0071321D01*
X0098888Y0080387D02*
X0098848Y0080387D01*
X0086358Y0080387D02*
X0086358Y0072482D01*
X0086250Y0080387D02*
X0086358Y0080387D01*
X0077645Y0108937D02*
X0077825Y0109117D01*
X0039336Y0079589D02*
X0041998Y0066991D01*
X0041998Y0061085D01*
X0104990Y0039431D02*
X0105148Y0039431D01*
X0105148Y0046587D01*
D11*
X0107156Y0027739D03*
X0107156Y0021046D03*
X0049734Y0071172D03*
X0049734Y0077865D03*
X0053875Y0094567D03*
X0053875Y0101260D03*
X0051089Y0119291D03*
X0051089Y0125984D03*
X0061180Y0125976D03*
X0061180Y0119283D03*
X0083243Y0105228D03*
X0083243Y0098535D03*
D12*
X0088258Y0017266D03*
X0094951Y0017266D03*
D13*
X0090896Y0025140D03*
X0090896Y0032620D03*
X0080659Y0032620D03*
X0080659Y0028880D03*
X0080659Y0025140D03*
D14*
X0083848Y0123920D03*
D15*
X0083848Y0133920D03*
X0093848Y0133920D03*
X0093848Y0123920D03*
X0103848Y0123920D03*
X0103848Y0133920D03*
D16*
X0103684Y0098960D03*
X0072407Y0090908D03*
X0070398Y0051304D03*
X0076486Y0016951D03*
X0114045Y0011872D03*
X0113258Y0041794D03*
X0023809Y0060020D03*
D17*
X0041368Y0046872D03*
X0049242Y0046872D03*
X0055935Y0052778D03*
X0063809Y0052778D03*
X0104502Y0091588D03*
X0112376Y0091588D03*
D18*
X0112077Y0107463D03*
X0112077Y0115337D03*
X0095782Y0102105D03*
X0095782Y0094231D03*
D19*
X0068691Y0070967D03*
X0062392Y0070967D03*
X0062392Y0062306D03*
X0068691Y0062306D03*
D20*
X0077224Y0061912D03*
X0077224Y0065061D03*
X0077224Y0068211D03*
X0077224Y0071361D03*
X0077224Y0074510D03*
X0077224Y0058762D03*
X0077224Y0055613D03*
X0077224Y0052463D03*
X0111024Y0052463D03*
X0111024Y0055613D03*
X0111024Y0058762D03*
X0111024Y0061912D03*
X0111024Y0065061D03*
X0111024Y0068211D03*
X0111024Y0071361D03*
X0111024Y0074510D03*
D21*
X0105148Y0080387D03*
X0101998Y0080387D03*
X0098848Y0080387D03*
X0095699Y0080387D03*
X0092549Y0080387D03*
X0089400Y0080387D03*
X0086250Y0080387D03*
X0083100Y0080387D03*
X0083100Y0046587D03*
X0086250Y0046587D03*
X0089400Y0046587D03*
X0092549Y0046587D03*
X0095699Y0046587D03*
X0098848Y0046587D03*
X0101998Y0046587D03*
X0105148Y0046587D03*
D22*
X0064833Y0034195D03*
X0059833Y0034195D03*
X0054833Y0034195D03*
X0049833Y0034195D03*
X0044833Y0034195D03*
D23*
X0054833Y0009786D03*
D24*
X0034456Y0136321D03*
X0121053Y0136321D03*
D25*
X0121053Y0128447D03*
X0121053Y0120573D03*
X0121053Y0112699D03*
X0121053Y0104825D03*
X0121053Y0096951D03*
X0121053Y0089077D03*
X0121053Y0081203D03*
X0121053Y0073329D03*
X0121053Y0065455D03*
X0034456Y0065455D03*
X0034456Y0073329D03*
X0034456Y0081203D03*
X0034456Y0089077D03*
X0034456Y0096951D03*
X0034456Y0104825D03*
X0034456Y0112699D03*
X0034456Y0120573D03*
X0034456Y0128447D03*
D26*
X0120187Y0034983D03*
X0120187Y0027109D03*
X0094951Y0008487D03*
X0087077Y0008487D03*
D27*
X0028809Y0023762D03*
X0028809Y0031243D03*
X0028809Y0039117D03*
D28*
X0028809Y0050140D03*
X0028809Y0012345D03*
D29*
X0062726Y0104212D03*
X0062726Y0105787D03*
X0062726Y0107362D03*
X0062726Y0108937D03*
X0062726Y0110511D03*
X0069813Y0110511D03*
X0069813Y0108937D03*
X0069813Y0107362D03*
X0069813Y0105787D03*
X0069813Y0104212D03*
D30*
X0068644Y0095856D02*
X0064171Y0095856D01*
X0063526Y0095212D01*
X0063526Y0090738D01*
X0064171Y0090094D01*
X0068644Y0090094D01*
X0068807Y0090256D01*
X0068807Y0090192D01*
X0069355Y0088869D01*
X0070368Y0087856D01*
X0071691Y0087308D01*
X0073123Y0087308D01*
X0074446Y0087856D01*
X0075459Y0088869D01*
X0075703Y0089458D01*
X0086921Y0089472D01*
X0086361Y0088912D01*
X0086361Y0084439D01*
X0086813Y0083987D01*
X0084694Y0083987D01*
X0084675Y0083967D01*
X0084656Y0083987D01*
X0084555Y0083987D01*
X0084555Y0086097D01*
X0083703Y0086949D01*
X0080312Y0086949D01*
X0080312Y0087731D01*
X0079668Y0088376D01*
X0075194Y0088376D01*
X0074550Y0087731D01*
X0074550Y0083258D01*
X0075194Y0082613D01*
X0079668Y0082613D01*
X0080312Y0083258D01*
X0080312Y0084040D01*
X0081646Y0084040D01*
X0081646Y0083987D01*
X0081545Y0083987D01*
X0080900Y0083342D01*
X0080900Y0077431D01*
X0081545Y0076787D01*
X0084656Y0076787D01*
X0084675Y0076806D01*
X0084694Y0076787D01*
X0084758Y0076787D01*
X0084758Y0075363D01*
X0084121Y0075363D01*
X0083477Y0074719D01*
X0083477Y0070246D01*
X0084121Y0069601D01*
X0088594Y0069601D01*
X0089239Y0070246D01*
X0089239Y0074719D01*
X0088594Y0075363D01*
X0087958Y0075363D01*
X0087958Y0076787D01*
X0090955Y0076787D01*
X0090974Y0076806D01*
X0090994Y0076787D01*
X0091185Y0076787D01*
X0091185Y0070659D01*
X0092123Y0069721D01*
X0100141Y0069721D01*
X0100141Y0069085D01*
X0100785Y0068440D01*
X0105258Y0068440D01*
X0105903Y0069085D01*
X0105903Y0073558D01*
X0105258Y0074202D01*
X0100785Y0074202D01*
X0100141Y0073558D01*
X0100141Y0072921D01*
X0094385Y0072921D01*
X0094385Y0076787D01*
X0097254Y0076787D01*
X0097274Y0076806D01*
X0097293Y0076787D01*
X0100404Y0076787D01*
X0100423Y0076806D01*
X0100442Y0076787D01*
X0103554Y0076787D01*
X0103573Y0076806D01*
X0103592Y0076787D01*
X0106703Y0076787D01*
X0107348Y0077431D01*
X0107348Y0083342D01*
X0106703Y0083987D01*
X0103592Y0083987D01*
X0103573Y0083967D01*
X0103554Y0083987D01*
X0100442Y0083987D01*
X0100423Y0083967D01*
X0100404Y0083987D01*
X0100283Y0083987D01*
X0100283Y0085341D01*
X0102675Y0087732D01*
X0107123Y0087732D01*
X0107767Y0088377D01*
X0107767Y0094800D01*
X0107123Y0095444D01*
X0105937Y0095444D01*
X0105937Y0096121D01*
X0106736Y0096921D01*
X0107284Y0098244D01*
X0107284Y0098722D01*
X0108190Y0098726D01*
X0108190Y0097255D01*
X0108835Y0096611D01*
X0109637Y0096611D01*
X0109637Y0095326D01*
X0109111Y0094800D01*
X0109111Y0088377D01*
X0109755Y0087732D01*
X0114997Y0087732D01*
X0115641Y0088377D01*
X0115641Y0094800D01*
X0114997Y0095444D01*
X0112506Y0095444D01*
X0112506Y0096611D01*
X0113308Y0096611D01*
X0113952Y0097255D01*
X0113952Y0098746D01*
X0117825Y0098760D01*
X0117378Y0097682D01*
X0117378Y0096220D01*
X0117938Y0094870D01*
X0118972Y0093836D01*
X0120322Y0093276D01*
X0121784Y0093276D01*
X0123135Y0093836D01*
X0124168Y0094870D01*
X0124728Y0096220D01*
X0124728Y0097682D01*
X0124272Y0098782D01*
X0126276Y0098789D01*
X0126276Y0007817D01*
X0126220Y0007252D01*
X0125787Y0006206D01*
X0124987Y0005406D01*
X0123942Y0004973D01*
X0123376Y0004917D01*
X0098098Y0004917D01*
X0098574Y0005392D01*
X0099013Y0005997D01*
X0099352Y0006663D01*
X0099583Y0007374D01*
X0099700Y0008113D01*
X0099700Y0008398D01*
X0095040Y0008398D01*
X0095040Y0008576D01*
X0094862Y0008576D01*
X0094862Y0013236D01*
X0094577Y0013236D01*
X0094351Y0013200D01*
X0094351Y0016666D01*
X0095551Y0016666D01*
X0095551Y0017866D01*
X0099110Y0017866D01*
X0099110Y0020430D01*
X0099001Y0020836D01*
X0098790Y0021201D01*
X0098492Y0021499D01*
X0098127Y0021710D01*
X0097720Y0021819D01*
X0095551Y0021819D01*
X0095551Y0017866D01*
X0094351Y0017866D01*
X0094351Y0021819D01*
X0092181Y0021819D01*
X0091774Y0021710D01*
X0091409Y0021499D01*
X0091229Y0021319D01*
X0090158Y0021319D01*
X0090158Y0022957D01*
X0093714Y0022957D01*
X0094358Y0023602D01*
X0094358Y0026678D01*
X0093714Y0027323D01*
X0088078Y0027323D01*
X0087795Y0027040D01*
X0087471Y0027040D01*
X0086358Y0025927D01*
X0086358Y0021319D01*
X0085243Y0021319D01*
X0084599Y0020675D01*
X0084599Y0013858D01*
X0085177Y0013280D01*
X0085177Y0012299D01*
X0084670Y0012089D01*
X0083474Y0010894D01*
X0082827Y0009332D01*
X0082827Y0007641D01*
X0083474Y0006079D01*
X0084636Y0004917D01*
X0063235Y0004917D01*
X0063322Y0005244D01*
X0063322Y0009186D01*
X0055433Y0009186D01*
X0055433Y0010386D01*
X0063322Y0010386D01*
X0063322Y0014327D01*
X0063213Y0014734D01*
X0063003Y0015099D01*
X0062705Y0015397D01*
X0062340Y0015607D01*
X0061933Y0015717D01*
X0055433Y0015717D01*
X0055433Y0010386D01*
X0054233Y0010386D01*
X0054233Y0015717D01*
X0047732Y0015717D01*
X0047325Y0015607D01*
X0046960Y0015397D01*
X0046663Y0015099D01*
X0046452Y0014734D01*
X0046343Y0014327D01*
X0046343Y0010386D01*
X0054233Y0010386D01*
X0054233Y0009186D01*
X0046343Y0009186D01*
X0046343Y0005244D01*
X0046431Y0004917D01*
X0023376Y0004917D01*
X0022810Y0004973D01*
X0021765Y0005406D01*
X0020965Y0006206D01*
X0020532Y0007252D01*
X0020476Y0007817D01*
X0020476Y0058660D01*
X0020757Y0057981D01*
X0021770Y0056968D01*
X0023093Y0056420D01*
X0024525Y0056420D01*
X0025848Y0056968D01*
X0026861Y0057981D01*
X0027409Y0059304D01*
X0027409Y0060736D01*
X0026861Y0062059D01*
X0025848Y0063072D01*
X0025657Y0063151D01*
X0025657Y0094029D01*
X0031340Y0094872D01*
X0031341Y0094870D01*
X0032375Y0093836D01*
X0033725Y0093276D01*
X0035187Y0093276D01*
X0036538Y0093836D01*
X0037571Y0094870D01*
X0037736Y0095266D01*
X0037736Y0090762D01*
X0037571Y0091159D01*
X0036538Y0092193D01*
X0035187Y0092752D01*
X0033725Y0092752D01*
X0032375Y0092193D01*
X0031341Y0091159D01*
X0030781Y0089808D01*
X0030781Y0088346D01*
X0031341Y0086996D01*
X0032375Y0085962D01*
X0033725Y0085402D01*
X0035187Y0085402D01*
X0036538Y0085962D01*
X0037571Y0086996D01*
X0037736Y0087392D01*
X0037736Y0082888D01*
X0037571Y0083285D01*
X0036538Y0084318D01*
X0035187Y0084878D01*
X0033725Y0084878D01*
X0032375Y0084318D01*
X0031341Y0083285D01*
X0030781Y0081934D01*
X0030781Y0080472D01*
X0031341Y0079122D01*
X0032375Y0078088D01*
X0033725Y0077528D01*
X0035187Y0077528D01*
X0036538Y0078088D01*
X0037571Y0079122D01*
X0037722Y0079486D01*
X0037736Y0079422D01*
X0037736Y0078926D01*
X0037869Y0078793D01*
X0040398Y0066823D01*
X0040398Y0063966D01*
X0039761Y0063966D01*
X0039117Y0063322D01*
X0039117Y0058848D01*
X0039761Y0058204D01*
X0044235Y0058204D01*
X0044879Y0058848D01*
X0044879Y0063322D01*
X0044235Y0063966D01*
X0043598Y0063966D01*
X0043598Y0066516D01*
X0043700Y0066673D01*
X0043598Y0067158D01*
X0043598Y0067653D01*
X0043465Y0067786D01*
X0040936Y0079756D01*
X0040936Y0098489D01*
X0044699Y0098502D01*
X0045001Y0098199D01*
X0049475Y0098199D01*
X0049795Y0098520D01*
X0049822Y0098520D01*
X0049822Y0098289D01*
X0049642Y0098109D01*
X0049431Y0097744D01*
X0049322Y0097337D01*
X0049322Y0095167D01*
X0053275Y0095167D01*
X0053275Y0093967D01*
X0054475Y0093967D01*
X0054475Y0090408D01*
X0057038Y0090408D01*
X0057445Y0090517D01*
X0057810Y0090728D01*
X0058108Y0091026D01*
X0058319Y0091391D01*
X0058428Y0091798D01*
X0058428Y0093967D01*
X0054475Y0093967D01*
X0054475Y0095167D01*
X0058428Y0095167D01*
X0058428Y0097337D01*
X0058319Y0097744D01*
X0058263Y0097839D01*
X0060642Y0097839D01*
X0060642Y0088479D01*
X0060622Y0088459D01*
X0060622Y0087254D01*
X0067488Y0080388D01*
X0068340Y0079536D01*
X0071666Y0079536D01*
X0071666Y0074272D01*
X0071115Y0074823D01*
X0070591Y0074823D01*
X0070591Y0076361D01*
X0070670Y0076440D01*
X0070670Y0078014D01*
X0069557Y0079127D01*
X0064376Y0079127D01*
X0064163Y0079339D01*
X0062589Y0079339D01*
X0062376Y0079127D01*
X0062077Y0079127D01*
X0061423Y0078473D01*
X0059896Y0078640D01*
X0059896Y0079749D01*
X0059252Y0080393D01*
X0054778Y0080393D01*
X0054134Y0079749D01*
X0054134Y0078808D01*
X0053786Y0078848D01*
X0053786Y0080880D01*
X0053142Y0081524D01*
X0046325Y0081524D01*
X0045681Y0080880D01*
X0045681Y0074894D01*
X0045500Y0074714D01*
X0045290Y0074349D01*
X0045181Y0073942D01*
X0045181Y0071772D01*
X0049133Y0071772D01*
X0049133Y0070572D01*
X0045181Y0070572D01*
X0045181Y0068402D01*
X0045290Y0067995D01*
X0045500Y0067631D01*
X0045798Y0067333D01*
X0046163Y0067122D01*
X0046570Y0067013D01*
X0049134Y0067013D01*
X0049134Y0070572D01*
X0050333Y0070572D01*
X0050333Y0067013D01*
X0052897Y0067013D01*
X0053304Y0067122D01*
X0053669Y0067333D01*
X0053967Y0067631D01*
X0054177Y0067995D01*
X0054286Y0068402D01*
X0054286Y0070572D01*
X0050334Y0070572D01*
X0050334Y0071772D01*
X0054286Y0071772D01*
X0054286Y0073942D01*
X0054177Y0074349D01*
X0053967Y0074714D01*
X0053786Y0074894D01*
X0053786Y0075960D01*
X0054134Y0075920D01*
X0054134Y0075275D01*
X0054778Y0074631D01*
X0059252Y0074631D01*
X0059896Y0075275D01*
X0059896Y0075754D01*
X0060570Y0075680D01*
X0060570Y0074823D01*
X0059968Y0074823D01*
X0059323Y0074178D01*
X0059323Y0067755D01*
X0059968Y0067111D01*
X0064816Y0067111D01*
X0065460Y0067755D01*
X0065460Y0074178D01*
X0064816Y0074823D01*
X0064370Y0074823D01*
X0064370Y0075327D01*
X0066791Y0075327D01*
X0066791Y0074823D01*
X0066267Y0074823D01*
X0065622Y0074178D01*
X0065622Y0067755D01*
X0066267Y0067111D01*
X0071115Y0067111D01*
X0071759Y0067755D01*
X0071759Y0073783D01*
X0072506Y0073036D01*
X0073624Y0073036D01*
X0073624Y0072955D01*
X0073643Y0072935D01*
X0073624Y0072916D01*
X0073624Y0070474D01*
X0073444Y0070293D01*
X0073233Y0069929D01*
X0073124Y0069522D01*
X0073124Y0068211D01*
X0073124Y0066900D01*
X0073233Y0066493D01*
X0073444Y0066129D01*
X0073624Y0065948D01*
X0073624Y0064175D01*
X0073444Y0063994D01*
X0073233Y0063629D01*
X0073124Y0063222D01*
X0073124Y0061912D01*
X0077224Y0061912D01*
X0077224Y0061912D01*
X0081324Y0061912D01*
X0081324Y0063161D01*
X0086161Y0063161D01*
X0086161Y0061210D01*
X0085824Y0061210D01*
X0085276Y0060662D01*
X0081324Y0060662D01*
X0081324Y0061912D01*
X0077224Y0061912D01*
X0077224Y0061912D01*
X0073124Y0061912D01*
X0073124Y0060601D01*
X0073233Y0060194D01*
X0073444Y0059829D01*
X0073624Y0059649D01*
X0073624Y0058982D01*
X0071759Y0061421D01*
X0071759Y0065517D01*
X0071115Y0066161D01*
X0066267Y0066161D01*
X0065827Y0065721D01*
X0065641Y0066044D01*
X0065343Y0066342D01*
X0064978Y0066552D01*
X0064571Y0066661D01*
X0062776Y0066661D01*
X0062776Y0062690D01*
X0062007Y0062690D01*
X0062007Y0061921D01*
X0058823Y0061921D01*
X0058823Y0059339D01*
X0058932Y0058932D01*
X0059143Y0058567D01*
X0059441Y0058269D01*
X0059806Y0058059D01*
X0060213Y0057950D01*
X0062007Y0057950D01*
X0062007Y0061921D01*
X0062776Y0061921D01*
X0062776Y0057950D01*
X0064571Y0057950D01*
X0064978Y0058059D01*
X0065343Y0058269D01*
X0065641Y0058567D01*
X0065827Y0058890D01*
X0066267Y0058450D01*
X0069248Y0058450D01*
X0071909Y0054969D01*
X0071909Y0054826D01*
X0072338Y0054397D01*
X0071114Y0054904D01*
X0069682Y0054904D01*
X0068359Y0054356D01*
X0067346Y0053343D01*
X0067074Y0052687D01*
X0067074Y0055989D01*
X0066430Y0056634D01*
X0061188Y0056634D01*
X0060544Y0055989D01*
X0060544Y0049566D01*
X0061097Y0049013D01*
X0059515Y0047431D01*
X0057084Y0047431D01*
X0056440Y0046786D01*
X0056440Y0042313D01*
X0057084Y0041669D01*
X0057933Y0041669D01*
X0057933Y0039363D01*
X0057552Y0038982D01*
X0057552Y0038969D01*
X0057505Y0039144D01*
X0057294Y0039508D01*
X0056996Y0039806D01*
X0056631Y0040017D01*
X0056224Y0040126D01*
X0054833Y0040126D01*
X0054833Y0034195D01*
X0054833Y0028265D01*
X0056224Y0028265D01*
X0056631Y0028374D01*
X0056996Y0028584D01*
X0057294Y0028882D01*
X0057505Y0029247D01*
X0057552Y0029422D01*
X0057552Y0029409D01*
X0058196Y0028765D01*
X0061469Y0028765D01*
X0062114Y0029409D01*
X0062114Y0038982D01*
X0061733Y0039363D01*
X0061733Y0041844D01*
X0062202Y0042313D01*
X0062202Y0044744D01*
X0064596Y0047138D01*
X0065709Y0048251D01*
X0065709Y0048922D01*
X0066430Y0048922D01*
X0067074Y0049566D01*
X0067074Y0049921D01*
X0067346Y0049265D01*
X0068359Y0048252D01*
X0069682Y0047704D01*
X0071114Y0047704D01*
X0072437Y0048252D01*
X0073450Y0049265D01*
X0073982Y0050549D01*
X0074268Y0050263D01*
X0080180Y0050263D01*
X0080824Y0050907D01*
X0080824Y0054019D01*
X0080805Y0054038D01*
X0080824Y0054057D01*
X0080824Y0056862D01*
X0085180Y0056862D01*
X0085180Y0056092D01*
X0085824Y0055448D01*
X0090298Y0055448D01*
X0090942Y0056092D01*
X0090942Y0060566D01*
X0090298Y0061210D01*
X0089961Y0061210D01*
X0089961Y0065809D01*
X0088848Y0066922D01*
X0088809Y0066961D01*
X0081324Y0066961D01*
X0081324Y0068211D01*
X0077224Y0068211D01*
X0073124Y0068211D01*
X0077224Y0068211D01*
X0077224Y0068211D01*
X0077224Y0068211D01*
X0081324Y0068211D01*
X0081324Y0069522D01*
X0081215Y0069929D01*
X0081004Y0070293D01*
X0080824Y0070474D01*
X0080824Y0072916D01*
X0080805Y0072935D01*
X0080824Y0072955D01*
X0080824Y0076066D01*
X0080180Y0076710D01*
X0074535Y0076710D01*
X0074535Y0080369D01*
X0074555Y0080388D01*
X0074555Y0081593D01*
X0073703Y0082445D01*
X0069545Y0082445D01*
X0063511Y0088479D01*
X0063511Y0098568D01*
X0082643Y0098636D01*
X0082643Y0097935D01*
X0083843Y0097935D01*
X0083843Y0094376D01*
X0086406Y0094376D01*
X0086813Y0094485D01*
X0087178Y0094696D01*
X0087476Y0094994D01*
X0087687Y0095359D01*
X0087796Y0095766D01*
X0087796Y0097935D01*
X0083843Y0097935D01*
X0083843Y0098640D01*
X0100084Y0098697D01*
X0100084Y0098244D01*
X0100632Y0096921D01*
X0101645Y0095908D01*
X0102766Y0095444D01*
X0101881Y0095444D01*
X0101237Y0094800D01*
X0101237Y0090352D01*
X0098254Y0087369D01*
X0097414Y0086529D01*
X0097414Y0083987D01*
X0097293Y0083987D01*
X0097274Y0083967D01*
X0097254Y0083987D01*
X0097153Y0083987D01*
X0097153Y0088934D01*
X0097201Y0090316D01*
X0097222Y0090337D01*
X0097222Y0090914D01*
X0097223Y0090966D01*
X0098994Y0090966D01*
X0099638Y0091610D01*
X0099638Y0096852D01*
X0098994Y0097496D01*
X0092571Y0097496D01*
X0091926Y0096852D01*
X0091926Y0092387D01*
X0075699Y0092367D01*
X0075459Y0092947D01*
X0074446Y0093960D01*
X0073418Y0094386D01*
X0073395Y0094409D01*
X0073361Y0094409D01*
X0073123Y0094508D01*
X0071691Y0094508D01*
X0071452Y0094409D01*
X0069289Y0094409D01*
X0069289Y0095212D01*
X0068644Y0095856D01*
X0069289Y0095103D02*
X0078947Y0095103D01*
X0079010Y0094994D02*
X0079308Y0094696D01*
X0079673Y0094485D01*
X0080080Y0094376D01*
X0082643Y0094376D01*
X0082643Y0097935D01*
X0078690Y0097935D01*
X0078690Y0095766D01*
X0078799Y0095359D01*
X0079010Y0094994D01*
X0078690Y0096301D02*
X0063511Y0096301D01*
X0063511Y0095103D02*
X0063526Y0095103D01*
X0063511Y0093904D02*
X0063526Y0093904D01*
X0063511Y0092706D02*
X0063526Y0092706D01*
X0063511Y0091507D02*
X0063526Y0091507D01*
X0063511Y0090309D02*
X0063956Y0090309D01*
X0063511Y0089110D02*
X0069255Y0089110D01*
X0070312Y0087912D02*
X0064079Y0087912D01*
X0065277Y0086713D02*
X0074550Y0086713D01*
X0074550Y0085515D02*
X0066476Y0085515D01*
X0067674Y0084316D02*
X0074550Y0084316D01*
X0074690Y0083118D02*
X0068873Y0083118D01*
X0067156Y0080721D02*
X0053786Y0080721D01*
X0053786Y0079522D02*
X0054134Y0079522D01*
X0054078Y0075927D02*
X0053786Y0075927D01*
X0053952Y0074728D02*
X0054681Y0074728D01*
X0054286Y0073529D02*
X0059323Y0073529D01*
X0059323Y0072331D02*
X0054286Y0072331D01*
X0054286Y0069934D02*
X0059323Y0069934D01*
X0059323Y0071132D02*
X0050334Y0071132D01*
X0050333Y0069934D02*
X0049134Y0069934D01*
X0049133Y0071132D02*
X0042758Y0071132D01*
X0043011Y0069934D02*
X0045181Y0069934D01*
X0045181Y0068735D02*
X0043265Y0068735D01*
X0043598Y0067537D02*
X0045594Y0067537D01*
X0043598Y0066338D02*
X0059437Y0066338D01*
X0059441Y0066342D02*
X0059143Y0066044D01*
X0058932Y0065679D01*
X0058823Y0065272D01*
X0058823Y0062690D01*
X0062007Y0062690D01*
X0062007Y0066661D01*
X0060213Y0066661D01*
X0059806Y0066552D01*
X0059441Y0066342D01*
X0059542Y0067537D02*
X0053873Y0067537D01*
X0054286Y0068735D02*
X0059323Y0068735D01*
X0062007Y0066338D02*
X0062776Y0066338D01*
X0062776Y0065140D02*
X0062007Y0065140D01*
X0062007Y0063941D02*
X0062776Y0063941D01*
X0062776Y0062743D02*
X0062007Y0062743D01*
X0062007Y0061544D02*
X0062776Y0061544D01*
X0062776Y0060346D02*
X0062007Y0060346D01*
X0062007Y0059147D02*
X0062776Y0059147D01*
X0060544Y0055552D02*
X0059200Y0055552D01*
X0059200Y0055989D02*
X0058556Y0056634D01*
X0053314Y0056634D01*
X0052670Y0055989D01*
X0052670Y0054678D01*
X0048455Y0054678D01*
X0047342Y0053565D01*
X0047342Y0050728D01*
X0046621Y0050728D01*
X0045977Y0050084D01*
X0045977Y0043661D01*
X0046621Y0043017D01*
X0047933Y0043017D01*
X0047933Y0039363D01*
X0047552Y0038982D01*
X0047552Y0029409D01*
X0048196Y0028765D01*
X0051469Y0028765D01*
X0052114Y0029409D01*
X0052114Y0029422D01*
X0052161Y0029247D01*
X0052371Y0028882D01*
X0052669Y0028584D01*
X0053034Y0028374D01*
X0053441Y0028265D01*
X0054833Y0028265D01*
X0054833Y0034195D01*
X0054833Y0034195D01*
X0054833Y0034195D01*
X0054833Y0040126D01*
X0053441Y0040126D01*
X0053034Y0040017D01*
X0052669Y0039806D01*
X0052371Y0039508D01*
X0052161Y0039144D01*
X0052114Y0038969D01*
X0052114Y0038982D01*
X0051733Y0039363D01*
X0051733Y0043017D01*
X0051863Y0043017D01*
X0052507Y0043661D01*
X0052507Y0050084D01*
X0051863Y0050728D01*
X0051142Y0050728D01*
X0051142Y0050878D01*
X0052670Y0050878D01*
X0052670Y0049566D01*
X0053314Y0048922D01*
X0058556Y0048922D01*
X0059200Y0049566D01*
X0059200Y0055989D01*
X0059200Y0054353D02*
X0060544Y0054353D01*
X0060544Y0053155D02*
X0059200Y0053155D01*
X0059200Y0051956D02*
X0060544Y0051956D01*
X0060544Y0050758D02*
X0059200Y0050758D01*
X0059193Y0049559D02*
X0060551Y0049559D01*
X0060445Y0048361D02*
X0052507Y0048361D01*
X0052507Y0049559D02*
X0052677Y0049559D01*
X0052670Y0050758D02*
X0051142Y0050758D01*
X0047342Y0050758D02*
X0044667Y0050758D01*
X0044814Y0050611D02*
X0044516Y0050909D01*
X0044151Y0051119D01*
X0043744Y0051228D01*
X0041851Y0051228D01*
X0041851Y0047355D01*
X0045133Y0047355D01*
X0045133Y0049839D01*
X0045024Y0050246D01*
X0044814Y0050611D01*
X0045133Y0049559D02*
X0045977Y0049559D01*
X0045977Y0048361D02*
X0045133Y0048361D01*
X0045977Y0047162D02*
X0041851Y0047162D01*
X0041851Y0047355D02*
X0041851Y0046390D01*
X0045133Y0046390D01*
X0045133Y0043906D01*
X0045024Y0043499D01*
X0044814Y0043134D01*
X0044516Y0042836D01*
X0044151Y0042626D01*
X0043744Y0042517D01*
X0041851Y0042517D01*
X0041851Y0046390D01*
X0040885Y0046390D01*
X0037603Y0046390D01*
X0037603Y0043906D01*
X0037712Y0043499D01*
X0037922Y0043134D01*
X0038220Y0042836D01*
X0038585Y0042626D01*
X0038992Y0042517D01*
X0040885Y0042517D01*
X0040885Y0046390D01*
X0040885Y0047355D01*
X0037603Y0047355D01*
X0037603Y0049839D01*
X0037712Y0050246D01*
X0037922Y0050611D01*
X0038220Y0050909D01*
X0038585Y0051119D01*
X0038992Y0051228D01*
X0040885Y0051228D01*
X0040885Y0047355D01*
X0041851Y0047355D01*
X0040885Y0047162D02*
X0034178Y0047162D01*
X0033980Y0046685D02*
X0034909Y0048927D01*
X0034909Y0051354D01*
X0033980Y0053596D01*
X0032264Y0055311D01*
X0030022Y0056240D01*
X0027596Y0056240D01*
X0025354Y0055311D01*
X0023638Y0053596D01*
X0022709Y0051354D01*
X0022709Y0048927D01*
X0023638Y0046685D01*
X0025354Y0044969D01*
X0027596Y0044040D01*
X0030022Y0044040D01*
X0032264Y0044969D01*
X0033980Y0046685D01*
X0033259Y0045964D02*
X0037603Y0045964D01*
X0037603Y0044765D02*
X0031773Y0044765D01*
X0031018Y0042423D02*
X0029585Y0043017D01*
X0028033Y0043017D01*
X0026600Y0042423D01*
X0025503Y0041326D01*
X0024909Y0039892D01*
X0024909Y0038341D01*
X0025503Y0036907D01*
X0026600Y0035810D01*
X0028033Y0035217D01*
X0029585Y0035217D01*
X0031018Y0035810D01*
X0032115Y0036907D01*
X0032243Y0037217D01*
X0042552Y0037217D01*
X0042552Y0029409D01*
X0043196Y0028765D01*
X0046469Y0028765D01*
X0047114Y0029409D01*
X0047114Y0038982D01*
X0046733Y0039363D01*
X0046733Y0039904D01*
X0045620Y0041017D01*
X0032243Y0041017D01*
X0032115Y0041326D01*
X0031018Y0042423D01*
X0031073Y0042368D02*
X0047933Y0042368D01*
X0047933Y0041170D02*
X0032180Y0041170D01*
X0031584Y0036376D02*
X0042552Y0036376D01*
X0042552Y0035177D02*
X0020476Y0035177D01*
X0020476Y0033979D02*
X0026030Y0033979D01*
X0025503Y0033452D02*
X0024909Y0032018D01*
X0024909Y0030467D01*
X0025503Y0029033D01*
X0026600Y0027936D01*
X0027647Y0027502D01*
X0026600Y0027068D01*
X0025503Y0025971D01*
X0024909Y0024538D01*
X0024909Y0022986D01*
X0025503Y0021553D01*
X0026600Y0020456D01*
X0028033Y0019862D01*
X0029585Y0019862D01*
X0031018Y0020456D01*
X0032115Y0021553D01*
X0032709Y0022986D01*
X0032709Y0024538D01*
X0032115Y0025971D01*
X0031018Y0027068D01*
X0029971Y0027502D01*
X0030686Y0027799D01*
X0037653Y0023373D01*
X0038061Y0022965D01*
X0038296Y0022965D01*
X0038494Y0022839D01*
X0039058Y0022965D01*
X0069479Y0022965D01*
X0069883Y0022809D01*
X0070235Y0022965D01*
X0070620Y0022965D01*
X0070926Y0023271D01*
X0071322Y0023446D01*
X0071460Y0023805D01*
X0071733Y0024078D01*
X0071733Y0024511D01*
X0076136Y0035917D01*
X0088996Y0035917D01*
X0088996Y0034803D01*
X0088078Y0034803D01*
X0087433Y0034159D01*
X0087433Y0031082D01*
X0088078Y0030438D01*
X0093714Y0030438D01*
X0094114Y0030839D01*
X0098759Y0030839D01*
X0098759Y0026952D01*
X0099872Y0025839D01*
X0103103Y0025839D01*
X0103103Y0024767D01*
X0102922Y0024587D01*
X0102712Y0024222D01*
X0102603Y0023815D01*
X0102603Y0021646D01*
X0106555Y0021646D01*
X0106555Y0020446D01*
X0102603Y0020446D01*
X0102603Y0018276D01*
X0102712Y0017869D01*
X0102922Y0017504D01*
X0103220Y0017206D01*
X0103585Y0016996D01*
X0103992Y0016887D01*
X0106556Y0016887D01*
X0106556Y0020446D01*
X0107755Y0020446D01*
X0107755Y0016887D01*
X0110319Y0016887D01*
X0110726Y0016996D01*
X0111091Y0017206D01*
X0111389Y0017504D01*
X0111599Y0017869D01*
X0111708Y0018276D01*
X0111708Y0020446D01*
X0107756Y0020446D01*
X0107756Y0021646D01*
X0111708Y0021646D01*
X0111708Y0023815D01*
X0111599Y0024222D01*
X0111389Y0024587D01*
X0111208Y0024767D01*
X0111208Y0025209D01*
X0116374Y0025209D01*
X0116584Y0024701D01*
X0117780Y0023506D01*
X0119342Y0022859D01*
X0121032Y0022859D01*
X0122594Y0023506D01*
X0123790Y0024701D01*
X0124437Y0026263D01*
X0124437Y0027954D01*
X0123790Y0029516D01*
X0122594Y0030711D01*
X0122413Y0030786D01*
X0122676Y0030920D01*
X0123281Y0031360D01*
X0123810Y0031889D01*
X0124249Y0032493D01*
X0124589Y0033159D01*
X0124820Y0033870D01*
X0124937Y0034609D01*
X0124937Y0034894D01*
X0120276Y0034894D01*
X0120276Y0035072D01*
X0120098Y0035072D01*
X0120098Y0039732D01*
X0119813Y0039732D01*
X0119075Y0039615D01*
X0118364Y0039384D01*
X0117698Y0039045D01*
X0117093Y0038605D01*
X0116564Y0038077D01*
X0116125Y0037472D01*
X0115785Y0036806D01*
X0115554Y0036095D01*
X0115437Y0035356D01*
X0115437Y0035072D01*
X0120098Y0035072D01*
X0120098Y0034894D01*
X0115437Y0034894D01*
X0115437Y0034609D01*
X0115554Y0033870D01*
X0115785Y0033159D01*
X0116125Y0032493D01*
X0116564Y0031889D01*
X0117093Y0031360D01*
X0117698Y0030920D01*
X0117961Y0030786D01*
X0117780Y0030711D01*
X0116584Y0029516D01*
X0116374Y0029009D01*
X0115158Y0029009D01*
X0115158Y0038684D01*
X0115297Y0038742D01*
X0116310Y0039754D01*
X0116858Y0041078D01*
X0116858Y0042510D01*
X0116310Y0043833D01*
X0115297Y0044846D01*
X0113974Y0045394D01*
X0112542Y0045394D01*
X0111219Y0044846D01*
X0110206Y0043833D01*
X0109658Y0042510D01*
X0109658Y0041078D01*
X0110206Y0039754D01*
X0111219Y0038742D01*
X0111358Y0038684D01*
X0111358Y0029009D01*
X0111208Y0029009D01*
X0111208Y0030753D01*
X0110564Y0031398D01*
X0103747Y0031398D01*
X0103103Y0030753D01*
X0103103Y0029639D01*
X0102559Y0029639D01*
X0102559Y0033526D01*
X0101446Y0034639D01*
X0093878Y0034639D01*
X0093714Y0034803D01*
X0092796Y0034803D01*
X0092796Y0038604D01*
X0091683Y0039717D01*
X0075187Y0039717D01*
X0074783Y0039873D01*
X0074431Y0039717D01*
X0074046Y0039717D01*
X0073739Y0039411D01*
X0073344Y0039236D01*
X0073205Y0038877D01*
X0072933Y0038604D01*
X0072933Y0038171D01*
X0068529Y0026765D01*
X0039401Y0026765D01*
X0032709Y0031016D01*
X0032709Y0032018D01*
X0032115Y0033452D01*
X0031018Y0034549D01*
X0029585Y0035143D01*
X0028033Y0035143D01*
X0026600Y0034549D01*
X0025503Y0033452D01*
X0025225Y0032780D02*
X0020476Y0032780D01*
X0020476Y0031582D02*
X0024909Y0031582D01*
X0024944Y0030383D02*
X0020476Y0030383D01*
X0020476Y0029185D02*
X0025440Y0029185D01*
X0026550Y0027986D02*
X0020476Y0027986D01*
X0020476Y0026788D02*
X0026319Y0026788D01*
X0025344Y0025589D02*
X0020476Y0025589D01*
X0020476Y0024391D02*
X0024909Y0024391D01*
X0024909Y0023192D02*
X0020476Y0023192D01*
X0020476Y0021994D02*
X0025320Y0021994D01*
X0026261Y0020795D02*
X0020476Y0020795D01*
X0020476Y0019596D02*
X0074040Y0019596D01*
X0074447Y0020003D02*
X0073434Y0018990D01*
X0072886Y0017667D01*
X0072886Y0016235D01*
X0073434Y0014912D01*
X0074447Y0013899D01*
X0075770Y0013351D01*
X0077202Y0013351D01*
X0078525Y0013899D01*
X0079538Y0014912D01*
X0080086Y0016235D01*
X0080086Y0017667D01*
X0079538Y0018990D01*
X0078525Y0020003D01*
X0078386Y0020061D01*
X0078386Y0022957D01*
X0083477Y0022957D01*
X0084122Y0023602D01*
X0084122Y0026635D01*
X0084302Y0026815D01*
X0084513Y0027180D01*
X0084622Y0027587D01*
X0084622Y0028880D01*
X0080660Y0028880D01*
X0080660Y0028880D01*
X0084622Y0028880D01*
X0084622Y0030174D01*
X0084513Y0030581D01*
X0084302Y0030945D01*
X0084122Y0031126D01*
X0084122Y0034159D01*
X0083477Y0034803D01*
X0077842Y0034803D01*
X0077197Y0034159D01*
X0077197Y0031126D01*
X0077017Y0030945D01*
X0076806Y0030581D01*
X0076697Y0030174D01*
X0076697Y0028880D01*
X0076697Y0027587D01*
X0076806Y0027180D01*
X0076887Y0027040D01*
X0075699Y0027040D01*
X0074586Y0025927D01*
X0074586Y0020061D01*
X0074447Y0020003D01*
X0074586Y0020795D02*
X0031357Y0020795D01*
X0032298Y0021994D02*
X0074586Y0021994D01*
X0074586Y0023192D02*
X0070847Y0023192D01*
X0071733Y0024391D02*
X0074586Y0024391D01*
X0074586Y0025589D02*
X0072149Y0025589D01*
X0072612Y0026788D02*
X0075447Y0026788D01*
X0076697Y0027986D02*
X0073074Y0027986D01*
X0073537Y0029185D02*
X0076697Y0029185D01*
X0076697Y0028880D02*
X0080659Y0028880D01*
X0076697Y0028880D01*
X0076753Y0030383D02*
X0074000Y0030383D01*
X0074462Y0031582D02*
X0077197Y0031582D01*
X0077197Y0032780D02*
X0074925Y0032780D01*
X0075388Y0033979D02*
X0077197Y0033979D01*
X0075850Y0035177D02*
X0088996Y0035177D01*
X0087433Y0033979D02*
X0084122Y0033979D01*
X0084122Y0032780D02*
X0087433Y0032780D01*
X0087433Y0031582D02*
X0084122Y0031582D01*
X0084566Y0030383D02*
X0098759Y0030383D01*
X0098759Y0029185D02*
X0084622Y0029185D01*
X0084622Y0027986D02*
X0098759Y0027986D01*
X0098923Y0026788D02*
X0094249Y0026788D01*
X0094358Y0025589D02*
X0103103Y0025589D01*
X0102809Y0024391D02*
X0094358Y0024391D01*
X0093948Y0023192D02*
X0102603Y0023192D01*
X0102603Y0021994D02*
X0090158Y0021994D01*
X0086358Y0021994D02*
X0078386Y0021994D01*
X0078386Y0020795D02*
X0084719Y0020795D01*
X0084599Y0019596D02*
X0078932Y0019596D01*
X0079784Y0018398D02*
X0084599Y0018398D01*
X0084599Y0017199D02*
X0080086Y0017199D01*
X0079989Y0016001D02*
X0084599Y0016001D01*
X0084599Y0014802D02*
X0079429Y0014802D01*
X0077812Y0013604D02*
X0084853Y0013604D01*
X0085177Y0012405D02*
X0063322Y0012405D01*
X0063322Y0011207D02*
X0083787Y0011207D01*
X0083107Y0010008D02*
X0055433Y0010008D01*
X0055433Y0011207D02*
X0054233Y0011207D01*
X0054233Y0012405D02*
X0055433Y0012405D01*
X0055433Y0013604D02*
X0054233Y0013604D01*
X0054233Y0014802D02*
X0055433Y0014802D01*
X0054233Y0010008D02*
X0034444Y0010008D01*
X0033980Y0008890D02*
X0034909Y0011132D01*
X0034909Y0013558D01*
X0033980Y0015800D01*
X0032264Y0017516D01*
X0030022Y0018445D01*
X0027596Y0018445D01*
X0025354Y0017516D01*
X0023638Y0015800D01*
X0022709Y0013558D01*
X0022709Y0011132D01*
X0023638Y0008890D01*
X0025354Y0007174D01*
X0027596Y0006245D01*
X0030022Y0006245D01*
X0032264Y0007174D01*
X0033980Y0008890D01*
X0033901Y0008810D02*
X0046343Y0008810D01*
X0046343Y0007611D02*
X0032702Y0007611D01*
X0030428Y0006413D02*
X0046343Y0006413D01*
X0046351Y0005214D02*
X0022228Y0005214D01*
X0020879Y0006413D02*
X0027190Y0006413D01*
X0024916Y0007611D02*
X0020496Y0007611D01*
X0020476Y0008810D02*
X0023717Y0008810D01*
X0023174Y0010008D02*
X0020476Y0010008D01*
X0020476Y0011207D02*
X0022709Y0011207D01*
X0022709Y0012405D02*
X0020476Y0012405D01*
X0020476Y0013604D02*
X0022728Y0013604D01*
X0023224Y0014802D02*
X0020476Y0014802D01*
X0020476Y0016001D02*
X0023838Y0016001D01*
X0025037Y0017199D02*
X0020476Y0017199D01*
X0020476Y0018398D02*
X0027482Y0018398D01*
X0030136Y0018398D02*
X0073189Y0018398D01*
X0072886Y0017199D02*
X0032581Y0017199D01*
X0033780Y0016001D02*
X0072983Y0016001D01*
X0073544Y0014802D02*
X0063174Y0014802D01*
X0063322Y0013604D02*
X0075160Y0013604D01*
X0082827Y0008810D02*
X0063322Y0008810D01*
X0063322Y0007611D02*
X0082840Y0007611D01*
X0083336Y0006413D02*
X0063322Y0006413D01*
X0063314Y0005214D02*
X0084339Y0005214D01*
X0094351Y0013604D02*
X0095551Y0013604D01*
X0095551Y0013200D02*
X0095325Y0013236D01*
X0095040Y0013236D01*
X0095040Y0008576D01*
X0099700Y0008576D01*
X0099700Y0008860D01*
X0099583Y0009599D01*
X0099352Y0010310D01*
X0099013Y0010976D01*
X0098574Y0011581D01*
X0098045Y0012109D01*
X0097440Y0012549D01*
X0097117Y0012713D01*
X0097720Y0012713D01*
X0098127Y0012822D01*
X0098492Y0013033D01*
X0098790Y0013331D01*
X0099001Y0013696D01*
X0099110Y0014103D01*
X0099110Y0016666D01*
X0095551Y0016666D01*
X0095551Y0013200D01*
X0095040Y0012405D02*
X0094862Y0012405D01*
X0094862Y0011207D02*
X0095040Y0011207D01*
X0095040Y0010008D02*
X0094862Y0010008D01*
X0094862Y0008810D02*
X0095040Y0008810D01*
X0098395Y0005214D02*
X0124524Y0005214D01*
X0125873Y0006413D02*
X0099225Y0006413D01*
X0099621Y0007611D02*
X0126256Y0007611D01*
X0126276Y0008810D02*
X0116781Y0008810D01*
X0116716Y0008745D02*
X0117173Y0009201D01*
X0117552Y0009724D01*
X0117845Y0010299D01*
X0118044Y0010912D01*
X0118101Y0011272D01*
X0114645Y0011272D01*
X0114645Y0007816D01*
X0115005Y0007873D01*
X0115619Y0008073D01*
X0116194Y0008366D01*
X0116716Y0008745D01*
X0117697Y0010008D02*
X0126276Y0010008D01*
X0126276Y0011207D02*
X0118091Y0011207D01*
X0118101Y0012472D02*
X0118044Y0012833D01*
X0117845Y0013446D01*
X0117552Y0014021D01*
X0117173Y0014543D01*
X0116716Y0015000D01*
X0116194Y0015379D01*
X0115619Y0015672D01*
X0115005Y0015871D01*
X0114645Y0015929D01*
X0114645Y0012472D01*
X0118101Y0012472D01*
X0117765Y0013604D02*
X0126276Y0013604D01*
X0126276Y0014802D02*
X0116914Y0014802D01*
X0114645Y0014802D02*
X0113445Y0014802D01*
X0113445Y0015929D02*
X0113445Y0012472D01*
X0113445Y0011272D01*
X0114645Y0011272D01*
X0114645Y0012472D01*
X0113445Y0012472D01*
X0109989Y0012472D01*
X0110046Y0012833D01*
X0110246Y0013446D01*
X0110539Y0014021D01*
X0110918Y0014543D01*
X0111374Y0015000D01*
X0111896Y0015379D01*
X0112471Y0015672D01*
X0113085Y0015871D01*
X0113445Y0015929D01*
X0113445Y0013604D02*
X0114645Y0013604D01*
X0114645Y0012405D02*
X0126276Y0012405D01*
X0126276Y0016001D02*
X0099110Y0016001D01*
X0099110Y0014802D02*
X0111177Y0014802D01*
X0110326Y0013604D02*
X0098948Y0013604D01*
X0097638Y0012405D02*
X0113445Y0012405D01*
X0113445Y0011272D02*
X0109989Y0011272D01*
X0110046Y0010912D01*
X0110246Y0010299D01*
X0110539Y0009724D01*
X0110918Y0009201D01*
X0111374Y0008745D01*
X0111896Y0008366D01*
X0112471Y0008073D01*
X0113085Y0007873D01*
X0113445Y0007816D01*
X0113445Y0011272D01*
X0113445Y0011207D02*
X0114645Y0011207D01*
X0114645Y0010008D02*
X0113445Y0010008D01*
X0113445Y0008810D02*
X0114645Y0008810D01*
X0111310Y0008810D02*
X0099700Y0008810D01*
X0099450Y0010008D02*
X0110394Y0010008D01*
X0110000Y0011207D02*
X0098845Y0011207D01*
X0095551Y0014802D02*
X0094351Y0014802D01*
X0094351Y0016001D02*
X0095551Y0016001D01*
X0095551Y0017199D02*
X0103232Y0017199D01*
X0102603Y0018398D02*
X0099110Y0018398D01*
X0099110Y0019596D02*
X0102603Y0019596D01*
X0099012Y0020795D02*
X0106555Y0020795D01*
X0106556Y0019596D02*
X0107755Y0019596D01*
X0107755Y0018398D02*
X0106556Y0018398D01*
X0106556Y0017199D02*
X0107755Y0017199D01*
X0111079Y0017199D02*
X0126276Y0017199D01*
X0126276Y0018398D02*
X0111708Y0018398D01*
X0111708Y0019596D02*
X0126276Y0019596D01*
X0126276Y0020795D02*
X0107756Y0020795D01*
X0111708Y0021994D02*
X0126276Y0021994D01*
X0126276Y0023192D02*
X0121836Y0023192D01*
X0123479Y0024391D02*
X0126276Y0024391D01*
X0126276Y0025589D02*
X0124157Y0025589D01*
X0124437Y0026788D02*
X0126276Y0026788D01*
X0126276Y0027986D02*
X0124423Y0027986D01*
X0123927Y0029185D02*
X0126276Y0029185D01*
X0126276Y0030383D02*
X0122922Y0030383D01*
X0123503Y0031582D02*
X0126276Y0031582D01*
X0126276Y0032780D02*
X0124395Y0032780D01*
X0124837Y0033979D02*
X0126276Y0033979D01*
X0126276Y0035177D02*
X0124937Y0035177D01*
X0124937Y0035072D02*
X0124937Y0035356D01*
X0124820Y0036095D01*
X0124589Y0036806D01*
X0124249Y0037472D01*
X0123810Y0038077D01*
X0123281Y0038605D01*
X0122676Y0039045D01*
X0122010Y0039384D01*
X0121299Y0039615D01*
X0120561Y0039732D01*
X0120276Y0039732D01*
X0120276Y0035072D01*
X0124937Y0035072D01*
X0124728Y0036376D02*
X0126276Y0036376D01*
X0126276Y0037574D02*
X0124175Y0037574D01*
X0123051Y0038773D02*
X0126276Y0038773D01*
X0126276Y0039971D02*
X0116400Y0039971D01*
X0116858Y0041170D02*
X0126276Y0041170D01*
X0126276Y0042368D02*
X0116858Y0042368D01*
X0116420Y0043567D02*
X0126276Y0043567D01*
X0126276Y0044765D02*
X0115378Y0044765D01*
X0118644Y0046644D02*
X0118644Y0048785D01*
X0116476Y0050563D01*
X0114280Y0050563D01*
X0113980Y0050263D01*
X0108068Y0050263D01*
X0107424Y0050907D01*
X0107424Y0054019D01*
X0107443Y0054038D01*
X0107424Y0054057D01*
X0107424Y0057168D01*
X0107443Y0057187D01*
X0107424Y0057207D01*
X0107424Y0060318D01*
X0107443Y0060337D01*
X0107424Y0060356D01*
X0107424Y0062799D01*
X0107244Y0062979D01*
X0107033Y0063344D01*
X0106924Y0063751D01*
X0106924Y0065061D01*
X0111024Y0065061D01*
X0111024Y0065061D01*
X0111024Y0065061D01*
X0115124Y0065061D01*
X0115124Y0063751D01*
X0115015Y0063344D01*
X0114804Y0062979D01*
X0114624Y0062799D01*
X0114624Y0060356D01*
X0114605Y0060337D01*
X0114624Y0060318D01*
X0114624Y0057513D01*
X0118644Y0057513D01*
X0118644Y0057810D01*
X0119289Y0058454D01*
X0123762Y0058454D01*
X0124407Y0057810D01*
X0124407Y0053336D01*
X0123762Y0052692D01*
X0119873Y0052692D01*
X0121008Y0051761D01*
X0123762Y0051761D01*
X0124407Y0051117D01*
X0124407Y0046644D01*
X0123762Y0045999D01*
X0119289Y0045999D01*
X0118644Y0046644D01*
X0118644Y0047162D02*
X0107348Y0047162D01*
X0107348Y0045964D02*
X0126276Y0045964D01*
X0126276Y0047162D02*
X0124407Y0047162D01*
X0124407Y0048361D02*
X0126276Y0048361D01*
X0126276Y0049559D02*
X0124407Y0049559D01*
X0124407Y0050758D02*
X0126276Y0050758D01*
X0126276Y0051956D02*
X0120770Y0051956D01*
X0117701Y0049559D02*
X0107331Y0049559D01*
X0107348Y0049542D02*
X0106703Y0050187D01*
X0103698Y0050187D01*
X0103698Y0054309D01*
X0102702Y0055305D01*
X0098422Y0055305D01*
X0098422Y0055841D01*
X0097778Y0056486D01*
X0093305Y0056486D01*
X0092660Y0055841D01*
X0092660Y0051368D01*
X0093305Y0050724D01*
X0097778Y0050724D01*
X0098422Y0051368D01*
X0098422Y0051905D01*
X0100298Y0051905D01*
X0100298Y0050187D01*
X0097293Y0050187D01*
X0097274Y0050167D01*
X0097254Y0050187D01*
X0094143Y0050187D01*
X0094124Y0050167D01*
X0094105Y0050187D01*
X0090994Y0050187D01*
X0090974Y0050167D01*
X0090955Y0050187D01*
X0087844Y0050187D01*
X0087825Y0050167D01*
X0087806Y0050187D01*
X0084694Y0050187D01*
X0084675Y0050167D01*
X0084656Y0050187D01*
X0081545Y0050187D01*
X0080900Y0049542D01*
X0080900Y0043631D01*
X0081545Y0042987D01*
X0084656Y0042987D01*
X0084675Y0043006D01*
X0084694Y0042987D01*
X0087806Y0042987D01*
X0087825Y0043006D01*
X0087844Y0042987D01*
X0090955Y0042987D01*
X0090974Y0043006D01*
X0090994Y0042987D01*
X0094105Y0042987D01*
X0094124Y0043006D01*
X0094143Y0042987D01*
X0097254Y0042987D01*
X0097274Y0043006D01*
X0097293Y0042987D01*
X0100404Y0042987D01*
X0100423Y0043006D01*
X0100442Y0042987D01*
X0103548Y0042987D01*
X0103548Y0042313D01*
X0102753Y0042313D01*
X0102109Y0041668D01*
X0102109Y0037195D01*
X0102753Y0036550D01*
X0107227Y0036550D01*
X0107871Y0037195D01*
X0107871Y0041668D01*
X0107227Y0042313D01*
X0106748Y0042313D01*
X0106748Y0043031D01*
X0107348Y0043631D01*
X0107348Y0049542D01*
X0107348Y0048361D02*
X0118644Y0048361D01*
X0124225Y0053155D02*
X0126276Y0053155D01*
X0126276Y0054353D02*
X0124407Y0054353D01*
X0124407Y0055552D02*
X0126276Y0055552D01*
X0126276Y0056750D02*
X0124407Y0056750D01*
X0124268Y0057949D02*
X0126276Y0057949D01*
X0126276Y0059147D02*
X0114624Y0059147D01*
X0114624Y0057949D02*
X0118783Y0057949D01*
X0120322Y0061780D02*
X0118972Y0062340D01*
X0117938Y0063373D01*
X0117378Y0064724D01*
X0117378Y0066186D01*
X0117938Y0067537D01*
X0114624Y0067537D01*
X0114624Y0067324D02*
X0114624Y0069767D01*
X0114605Y0069786D01*
X0114624Y0069805D01*
X0114624Y0072916D01*
X0114605Y0072935D01*
X0114624Y0072955D01*
X0114624Y0076066D01*
X0113980Y0076710D01*
X0108068Y0076710D01*
X0107424Y0076066D01*
X0107424Y0072955D01*
X0107443Y0072935D01*
X0107424Y0072916D01*
X0107424Y0069805D01*
X0107443Y0069786D01*
X0107424Y0069767D01*
X0107424Y0067324D01*
X0107244Y0067144D01*
X0107033Y0066779D01*
X0106924Y0066372D01*
X0106924Y0065061D01*
X0111024Y0065061D01*
X0115124Y0065061D01*
X0115124Y0066372D01*
X0115015Y0066779D01*
X0114804Y0067144D01*
X0114624Y0067324D01*
X0115124Y0066338D02*
X0117441Y0066338D01*
X0117378Y0065140D02*
X0115124Y0065140D01*
X0115124Y0063941D02*
X0117703Y0063941D01*
X0118568Y0062743D02*
X0114624Y0062743D01*
X0114624Y0061544D02*
X0126276Y0061544D01*
X0126276Y0060346D02*
X0114614Y0060346D01*
X0120322Y0061780D02*
X0121784Y0061780D01*
X0123135Y0062340D01*
X0124168Y0063373D01*
X0124728Y0064724D01*
X0124728Y0066186D01*
X0124168Y0067537D01*
X0126276Y0067537D01*
X0126276Y0068735D02*
X0122736Y0068735D01*
X0123135Y0068570D02*
X0121784Y0069130D01*
X0120322Y0069130D01*
X0118972Y0068570D01*
X0117938Y0067537D01*
X0119370Y0068735D02*
X0114624Y0068735D01*
X0114624Y0069934D02*
X0119647Y0069934D01*
X0120322Y0069654D02*
X0121784Y0069654D01*
X0123135Y0070214D01*
X0124168Y0071248D01*
X0124728Y0072598D01*
X0124728Y0074060D01*
X0124168Y0075411D01*
X0123135Y0076444D01*
X0121784Y0077004D01*
X0120322Y0077004D01*
X0118972Y0076444D01*
X0117938Y0075411D01*
X0117378Y0074060D01*
X0117378Y0072598D01*
X0117938Y0071248D01*
X0118972Y0070214D01*
X0120322Y0069654D01*
X0122459Y0069934D02*
X0126276Y0069934D01*
X0126276Y0071132D02*
X0124053Y0071132D01*
X0124617Y0072331D02*
X0126276Y0072331D01*
X0126276Y0073529D02*
X0124728Y0073529D01*
X0124451Y0074728D02*
X0126276Y0074728D01*
X0126276Y0075927D02*
X0123653Y0075927D01*
X0123135Y0078088D02*
X0124168Y0079122D01*
X0124728Y0080472D01*
X0124728Y0081934D01*
X0124168Y0083285D01*
X0123135Y0084318D01*
X0121784Y0084878D01*
X0120322Y0084878D01*
X0118972Y0084318D01*
X0117938Y0083285D01*
X0117378Y0081934D01*
X0117378Y0080472D01*
X0117938Y0079122D01*
X0118972Y0078088D01*
X0120322Y0077528D01*
X0121784Y0077528D01*
X0123135Y0078088D01*
X0123370Y0078324D02*
X0126276Y0078324D01*
X0126276Y0079522D02*
X0124334Y0079522D01*
X0124728Y0080721D02*
X0126276Y0080721D01*
X0126276Y0081919D02*
X0124728Y0081919D01*
X0124238Y0083118D02*
X0126276Y0083118D01*
X0126276Y0084316D02*
X0123137Y0084316D01*
X0122055Y0085515D02*
X0126276Y0085515D01*
X0126276Y0086713D02*
X0123886Y0086713D01*
X0124168Y0086996D02*
X0124728Y0088346D01*
X0124728Y0089808D01*
X0124168Y0091159D01*
X0123135Y0092193D01*
X0121784Y0092752D01*
X0120322Y0092752D01*
X0118972Y0092193D01*
X0117938Y0091159D01*
X0117378Y0089808D01*
X0117378Y0088346D01*
X0117938Y0086996D01*
X0118972Y0085962D01*
X0120322Y0085402D01*
X0121784Y0085402D01*
X0123135Y0085962D01*
X0124168Y0086996D01*
X0124548Y0087912D02*
X0126276Y0087912D01*
X0126276Y0089110D02*
X0124728Y0089110D01*
X0124521Y0090309D02*
X0126276Y0090309D01*
X0126276Y0091507D02*
X0123820Y0091507D01*
X0123203Y0093904D02*
X0126276Y0093904D01*
X0126276Y0092706D02*
X0121896Y0092706D01*
X0120210Y0092706D02*
X0115641Y0092706D01*
X0115641Y0093904D02*
X0118903Y0093904D01*
X0117841Y0095103D02*
X0115339Y0095103D01*
X0117378Y0096301D02*
X0112506Y0096301D01*
X0113952Y0097500D02*
X0117378Y0097500D01*
X0117799Y0098698D02*
X0113952Y0098698D01*
X0109637Y0096301D02*
X0106116Y0096301D01*
X0106976Y0097500D02*
X0108190Y0097500D01*
X0108190Y0098698D02*
X0107284Y0098698D01*
X0107465Y0095103D02*
X0109413Y0095103D01*
X0109111Y0093904D02*
X0107767Y0093904D01*
X0107767Y0092706D02*
X0109111Y0092706D01*
X0109111Y0091507D02*
X0107767Y0091507D01*
X0107767Y0090309D02*
X0109111Y0090309D01*
X0109111Y0089110D02*
X0107767Y0089110D01*
X0107302Y0087912D02*
X0109576Y0087912D01*
X0107348Y0083118D02*
X0117869Y0083118D01*
X0117378Y0081919D02*
X0107348Y0081919D01*
X0107348Y0080721D02*
X0117378Y0080721D01*
X0117772Y0079522D02*
X0107348Y0079522D01*
X0107348Y0078324D02*
X0118736Y0078324D01*
X0118454Y0075927D02*
X0114624Y0075927D01*
X0114624Y0074728D02*
X0117655Y0074728D01*
X0117378Y0073529D02*
X0114624Y0073529D01*
X0114624Y0072331D02*
X0117489Y0072331D01*
X0118053Y0071132D02*
X0114624Y0071132D01*
X0107424Y0071132D02*
X0105903Y0071132D01*
X0105903Y0069934D02*
X0107424Y0069934D01*
X0107424Y0068735D02*
X0105554Y0068735D01*
X0107424Y0067537D02*
X0081324Y0067537D01*
X0081324Y0068735D02*
X0100490Y0068735D01*
X0100141Y0073529D02*
X0094385Y0073529D01*
X0094385Y0074728D02*
X0107424Y0074728D01*
X0107424Y0075927D02*
X0094385Y0075927D01*
X0091185Y0075927D02*
X0087958Y0075927D01*
X0089230Y0074728D02*
X0091185Y0074728D01*
X0091185Y0073529D02*
X0089239Y0073529D01*
X0089239Y0072331D02*
X0091185Y0072331D01*
X0091185Y0071132D02*
X0089239Y0071132D01*
X0088927Y0069934D02*
X0091910Y0069934D01*
X0089432Y0066338D02*
X0106924Y0066338D01*
X0106924Y0065140D02*
X0089961Y0065140D01*
X0089961Y0063941D02*
X0106924Y0063941D01*
X0107424Y0062743D02*
X0089961Y0062743D01*
X0089961Y0061544D02*
X0107424Y0061544D01*
X0107434Y0060346D02*
X0090942Y0060346D01*
X0090942Y0059147D02*
X0107424Y0059147D01*
X0107424Y0057949D02*
X0090942Y0057949D01*
X0090942Y0056750D02*
X0107424Y0056750D01*
X0107424Y0055552D02*
X0098422Y0055552D01*
X0095541Y0053605D02*
X0101998Y0053605D01*
X0101998Y0046587D01*
X0100298Y0050758D02*
X0097812Y0050758D01*
X0093270Y0050758D02*
X0080674Y0050758D01*
X0080824Y0051956D02*
X0092660Y0051956D01*
X0092660Y0053155D02*
X0080824Y0053155D01*
X0080824Y0054353D02*
X0092660Y0054353D01*
X0092660Y0055552D02*
X0090402Y0055552D01*
X0085720Y0055552D02*
X0080824Y0055552D01*
X0080824Y0056750D02*
X0085180Y0056750D01*
X0086161Y0061544D02*
X0081324Y0061544D01*
X0081324Y0062743D02*
X0086161Y0062743D01*
X0083788Y0069934D02*
X0081212Y0069934D01*
X0080824Y0071132D02*
X0083477Y0071132D01*
X0083477Y0072331D02*
X0080824Y0072331D01*
X0080824Y0073529D02*
X0083477Y0073529D01*
X0083486Y0074728D02*
X0080824Y0074728D01*
X0080824Y0075927D02*
X0084758Y0075927D01*
X0081206Y0077125D02*
X0074535Y0077125D01*
X0074535Y0078324D02*
X0080900Y0078324D01*
X0080900Y0079522D02*
X0074535Y0079522D01*
X0074555Y0080721D02*
X0080900Y0080721D01*
X0080900Y0081919D02*
X0074229Y0081919D01*
X0071666Y0079522D02*
X0059896Y0079522D01*
X0062864Y0077227D02*
X0063376Y0077227D01*
X0064911Y0074728D02*
X0066172Y0074728D01*
X0065622Y0073529D02*
X0065460Y0073529D01*
X0065460Y0072331D02*
X0065622Y0072331D01*
X0065622Y0071132D02*
X0065460Y0071132D01*
X0065460Y0069934D02*
X0065622Y0069934D01*
X0065622Y0068735D02*
X0065460Y0068735D01*
X0065242Y0067537D02*
X0065841Y0067537D01*
X0065346Y0066338D02*
X0073323Y0066338D01*
X0073124Y0067537D02*
X0071541Y0067537D01*
X0071759Y0068735D02*
X0073124Y0068735D01*
X0073236Y0069934D02*
X0071759Y0069934D01*
X0071759Y0071132D02*
X0073624Y0071132D01*
X0073624Y0072331D02*
X0071759Y0072331D01*
X0071759Y0073529D02*
X0072013Y0073529D01*
X0071666Y0074728D02*
X0071210Y0074728D01*
X0071666Y0075927D02*
X0070591Y0075927D01*
X0070670Y0077125D02*
X0071666Y0077125D01*
X0071666Y0078324D02*
X0070360Y0078324D01*
X0068770Y0077227D02*
X0068691Y0077148D01*
X0065958Y0081919D02*
X0040936Y0081919D01*
X0040936Y0080721D02*
X0045681Y0080721D01*
X0045681Y0079522D02*
X0040985Y0079522D01*
X0041239Y0078324D02*
X0045681Y0078324D01*
X0045681Y0077125D02*
X0041492Y0077125D01*
X0041745Y0075927D02*
X0045681Y0075927D01*
X0045515Y0074728D02*
X0041998Y0074728D01*
X0042252Y0073529D02*
X0045181Y0073529D01*
X0045181Y0072331D02*
X0042505Y0072331D01*
X0039487Y0071132D02*
X0037456Y0071132D01*
X0037571Y0071248D02*
X0038131Y0072598D01*
X0038131Y0074060D01*
X0037571Y0075411D01*
X0036538Y0076444D01*
X0035187Y0077004D01*
X0033725Y0077004D01*
X0032375Y0076444D01*
X0031341Y0075411D01*
X0030781Y0074060D01*
X0030781Y0072598D01*
X0031341Y0071248D01*
X0032375Y0070214D01*
X0033725Y0069654D01*
X0035187Y0069654D01*
X0036538Y0070214D01*
X0037571Y0071248D01*
X0038020Y0072331D02*
X0039234Y0072331D01*
X0038981Y0073529D02*
X0038131Y0073529D01*
X0037854Y0074728D02*
X0038728Y0074728D01*
X0038474Y0075927D02*
X0037056Y0075927D01*
X0038221Y0077125D02*
X0025657Y0077125D01*
X0025657Y0075927D02*
X0031857Y0075927D01*
X0031058Y0074728D02*
X0025657Y0074728D01*
X0025657Y0073529D02*
X0030781Y0073529D01*
X0030892Y0072331D02*
X0025657Y0072331D01*
X0025657Y0071132D02*
X0031456Y0071132D01*
X0032268Y0069026D02*
X0031736Y0068639D01*
X0031272Y0068175D01*
X0030886Y0067643D01*
X0030587Y0067058D01*
X0030384Y0066433D01*
X0030281Y0065784D01*
X0030281Y0065643D01*
X0034269Y0065643D01*
X0034269Y0069630D01*
X0034128Y0069630D01*
X0033479Y0069527D01*
X0032854Y0069324D01*
X0032268Y0069026D01*
X0031869Y0068735D02*
X0025657Y0068735D01*
X0025657Y0067537D02*
X0030831Y0067537D01*
X0030369Y0066338D02*
X0025657Y0066338D01*
X0025657Y0065140D02*
X0030281Y0065140D01*
X0030281Y0065127D02*
X0030384Y0064478D01*
X0030587Y0063853D01*
X0030886Y0063267D01*
X0031272Y0062735D01*
X0031736Y0062271D01*
X0032268Y0061885D01*
X0032854Y0061586D01*
X0033479Y0061383D01*
X0034128Y0061280D01*
X0034269Y0061280D01*
X0034269Y0065268D01*
X0034644Y0065268D01*
X0034644Y0065643D01*
X0038631Y0065643D01*
X0038631Y0065784D01*
X0038528Y0066433D01*
X0038325Y0067058D01*
X0038027Y0067643D01*
X0037640Y0068175D01*
X0037176Y0068639D01*
X0036644Y0069026D01*
X0036059Y0069324D01*
X0035434Y0069527D01*
X0034785Y0069630D01*
X0034644Y0069630D01*
X0034644Y0065643D01*
X0034269Y0065643D01*
X0034269Y0065268D01*
X0030281Y0065268D01*
X0030281Y0065127D01*
X0030558Y0063941D02*
X0025657Y0063941D01*
X0026178Y0062743D02*
X0031266Y0062743D01*
X0032982Y0061544D02*
X0027074Y0061544D01*
X0027409Y0060346D02*
X0039117Y0060346D01*
X0039117Y0061544D02*
X0035930Y0061544D01*
X0036059Y0061586D02*
X0036644Y0061885D01*
X0037176Y0062271D01*
X0037640Y0062735D01*
X0038027Y0063267D01*
X0038325Y0063853D01*
X0038528Y0064478D01*
X0038631Y0065127D01*
X0038631Y0065268D01*
X0034644Y0065268D01*
X0034644Y0061280D01*
X0034785Y0061280D01*
X0035434Y0061383D01*
X0036059Y0061586D01*
X0034644Y0061544D02*
X0034269Y0061544D01*
X0034269Y0062743D02*
X0034644Y0062743D01*
X0034644Y0063941D02*
X0034269Y0063941D01*
X0034269Y0065140D02*
X0034644Y0065140D01*
X0034644Y0066338D02*
X0034269Y0066338D01*
X0034269Y0067537D02*
X0034644Y0067537D01*
X0034644Y0068735D02*
X0034269Y0068735D01*
X0033050Y0069934D02*
X0025657Y0069934D01*
X0025657Y0078324D02*
X0032139Y0078324D01*
X0031175Y0079522D02*
X0025657Y0079522D01*
X0025657Y0080721D02*
X0030781Y0080721D01*
X0030781Y0081919D02*
X0025657Y0081919D01*
X0025657Y0083118D02*
X0031272Y0083118D01*
X0032372Y0084316D02*
X0025657Y0084316D01*
X0025657Y0085515D02*
X0033454Y0085515D01*
X0035458Y0085515D02*
X0037736Y0085515D01*
X0037736Y0086713D02*
X0037289Y0086713D01*
X0037736Y0084316D02*
X0036540Y0084316D01*
X0037641Y0083118D02*
X0037736Y0083118D01*
X0040936Y0083118D02*
X0064759Y0083118D01*
X0063561Y0084316D02*
X0040936Y0084316D01*
X0040936Y0085515D02*
X0062362Y0085515D01*
X0061164Y0086713D02*
X0040936Y0086713D01*
X0040936Y0087912D02*
X0060622Y0087912D01*
X0060642Y0089110D02*
X0040936Y0089110D01*
X0040936Y0090309D02*
X0060642Y0090309D01*
X0060642Y0091507D02*
X0058350Y0091507D01*
X0058428Y0092706D02*
X0060642Y0092706D01*
X0060642Y0093904D02*
X0058428Y0093904D01*
X0058428Y0096301D02*
X0060642Y0096301D01*
X0060642Y0095103D02*
X0054475Y0095103D01*
X0054475Y0093904D02*
X0053275Y0093904D01*
X0053275Y0093967D02*
X0053275Y0090408D01*
X0050711Y0090408D01*
X0050304Y0090517D01*
X0049940Y0090728D01*
X0049642Y0091026D01*
X0049431Y0091391D01*
X0049322Y0091798D01*
X0049322Y0093967D01*
X0053275Y0093967D01*
X0053275Y0095103D02*
X0040936Y0095103D01*
X0040936Y0096301D02*
X0049322Y0096301D01*
X0049366Y0097500D02*
X0040936Y0097500D01*
X0040936Y0093904D02*
X0049322Y0093904D01*
X0049322Y0092706D02*
X0040936Y0092706D01*
X0040936Y0091507D02*
X0049400Y0091507D01*
X0053275Y0091507D02*
X0054475Y0091507D01*
X0054475Y0092706D02*
X0053275Y0092706D01*
X0058384Y0097500D02*
X0060642Y0097500D01*
X0063511Y0097500D02*
X0078690Y0097500D01*
X0082643Y0097500D02*
X0083843Y0097500D01*
X0083843Y0096301D02*
X0082643Y0096301D01*
X0082643Y0095103D02*
X0083843Y0095103D01*
X0087539Y0095103D02*
X0091926Y0095103D01*
X0091926Y0096301D02*
X0087796Y0096301D01*
X0087796Y0097500D02*
X0100393Y0097500D01*
X0099638Y0096301D02*
X0101252Y0096301D01*
X0101539Y0095103D02*
X0099638Y0095103D01*
X0099638Y0093904D02*
X0101237Y0093904D01*
X0101237Y0092706D02*
X0099638Y0092706D01*
X0099535Y0091507D02*
X0101237Y0091507D01*
X0101193Y0090309D02*
X0097201Y0090309D01*
X0097159Y0089110D02*
X0099995Y0089110D01*
X0098796Y0087912D02*
X0097153Y0087912D01*
X0097153Y0086713D02*
X0097598Y0086713D01*
X0098254Y0087369D02*
X0098254Y0087369D01*
X0097414Y0085515D02*
X0097153Y0085515D01*
X0097153Y0084316D02*
X0097414Y0084316D01*
X0100283Y0084316D02*
X0118969Y0084316D01*
X0120051Y0085515D02*
X0100457Y0085515D01*
X0101656Y0086713D02*
X0118220Y0086713D01*
X0117558Y0087912D02*
X0115176Y0087912D01*
X0115641Y0089110D02*
X0117378Y0089110D01*
X0117586Y0090309D02*
X0115641Y0090309D01*
X0115641Y0091507D02*
X0118286Y0091507D01*
X0124265Y0095103D02*
X0126276Y0095103D01*
X0126276Y0096301D02*
X0124728Y0096301D01*
X0124728Y0097500D02*
X0126276Y0097500D01*
X0126276Y0098698D02*
X0124307Y0098698D01*
X0126276Y0077125D02*
X0107042Y0077125D01*
X0107424Y0073529D02*
X0105903Y0073529D01*
X0105903Y0072331D02*
X0107424Y0072331D01*
X0123135Y0068570D02*
X0124168Y0067537D01*
X0124665Y0066338D02*
X0126276Y0066338D01*
X0126276Y0065140D02*
X0124728Y0065140D01*
X0124404Y0063941D02*
X0126276Y0063941D01*
X0126276Y0062743D02*
X0123538Y0062743D01*
X0107424Y0054353D02*
X0103654Y0054353D01*
X0103698Y0053155D02*
X0107424Y0053155D01*
X0107424Y0051956D02*
X0103698Y0051956D01*
X0103698Y0050758D02*
X0107574Y0050758D01*
X0107348Y0044765D02*
X0111138Y0044765D01*
X0110096Y0043567D02*
X0107283Y0043567D01*
X0106748Y0042368D02*
X0109658Y0042368D01*
X0109658Y0041170D02*
X0107871Y0041170D01*
X0107871Y0039971D02*
X0110116Y0039971D01*
X0111188Y0038773D02*
X0107871Y0038773D01*
X0107871Y0037574D02*
X0111358Y0037574D01*
X0111358Y0036376D02*
X0092796Y0036376D01*
X0092796Y0037574D02*
X0102109Y0037574D01*
X0102109Y0038773D02*
X0092627Y0038773D01*
X0092796Y0035177D02*
X0111358Y0035177D01*
X0111358Y0033979D02*
X0102106Y0033979D01*
X0102559Y0032780D02*
X0111358Y0032780D01*
X0111358Y0031582D02*
X0102559Y0031582D01*
X0102559Y0030383D02*
X0103103Y0030383D01*
X0107156Y0027739D02*
X0107156Y0027109D01*
X0111208Y0029185D02*
X0111358Y0029185D01*
X0111358Y0030383D02*
X0111208Y0030383D01*
X0115158Y0030383D02*
X0117452Y0030383D01*
X0116871Y0031582D02*
X0115158Y0031582D01*
X0115158Y0032780D02*
X0115979Y0032780D01*
X0115537Y0033979D02*
X0115158Y0033979D01*
X0115158Y0035177D02*
X0115437Y0035177D01*
X0115646Y0036376D02*
X0115158Y0036376D01*
X0115158Y0037574D02*
X0116199Y0037574D01*
X0115328Y0038773D02*
X0117323Y0038773D01*
X0120098Y0038773D02*
X0120276Y0038773D01*
X0120276Y0037574D02*
X0120098Y0037574D01*
X0120098Y0036376D02*
X0120276Y0036376D01*
X0120276Y0035177D02*
X0120098Y0035177D01*
X0116447Y0029185D02*
X0115158Y0029185D01*
X0116895Y0024391D02*
X0111502Y0024391D01*
X0111708Y0023192D02*
X0118538Y0023192D01*
X0102109Y0039971D02*
X0069235Y0039971D01*
X0070604Y0041170D02*
X0102109Y0041170D01*
X0103548Y0042368D02*
X0074013Y0042368D01*
X0074013Y0041919D02*
X0073369Y0041275D01*
X0070725Y0041275D01*
X0067114Y0038115D01*
X0067114Y0029409D01*
X0066469Y0028765D01*
X0063196Y0028765D01*
X0062552Y0029409D01*
X0062552Y0038982D01*
X0062933Y0039363D01*
X0062933Y0039431D01*
X0062984Y0039483D01*
X0062989Y0039556D01*
X0063534Y0040032D01*
X0064046Y0040544D01*
X0064119Y0040544D01*
X0068251Y0044160D01*
X0068251Y0046393D01*
X0068895Y0047037D01*
X0073369Y0047037D01*
X0074013Y0046393D01*
X0074013Y0041919D01*
X0074013Y0043567D02*
X0080965Y0043567D01*
X0080900Y0044765D02*
X0074013Y0044765D01*
X0074013Y0045964D02*
X0080900Y0045964D01*
X0080900Y0047162D02*
X0064620Y0047162D01*
X0065709Y0048361D02*
X0068250Y0048361D01*
X0067224Y0049559D02*
X0067067Y0049559D01*
X0067074Y0053155D02*
X0067268Y0053155D01*
X0067074Y0054353D02*
X0068356Y0054353D01*
X0067074Y0055552D02*
X0071464Y0055552D01*
X0070547Y0056750D02*
X0025322Y0056750D01*
X0025934Y0055552D02*
X0020476Y0055552D01*
X0020476Y0056750D02*
X0022296Y0056750D01*
X0020789Y0057949D02*
X0020476Y0057949D01*
X0020476Y0054353D02*
X0024396Y0054353D01*
X0023455Y0053155D02*
X0020476Y0053155D01*
X0020476Y0051956D02*
X0022959Y0051956D01*
X0022709Y0050758D02*
X0020476Y0050758D01*
X0020476Y0049559D02*
X0022709Y0049559D01*
X0022944Y0048361D02*
X0020476Y0048361D01*
X0020476Y0047162D02*
X0023440Y0047162D01*
X0024359Y0045964D02*
X0020476Y0045964D01*
X0020476Y0044765D02*
X0025845Y0044765D01*
X0026545Y0042368D02*
X0020476Y0042368D01*
X0020476Y0041170D02*
X0025438Y0041170D01*
X0024942Y0039971D02*
X0020476Y0039971D01*
X0020476Y0038773D02*
X0024909Y0038773D01*
X0025227Y0037574D02*
X0020476Y0037574D01*
X0020476Y0036376D02*
X0026035Y0036376D01*
X0031588Y0033979D02*
X0042552Y0033979D01*
X0042552Y0032780D02*
X0032393Y0032780D01*
X0032709Y0031582D02*
X0042552Y0031582D01*
X0042552Y0030383D02*
X0033705Y0030383D01*
X0035592Y0029185D02*
X0042776Y0029185D01*
X0046889Y0029185D02*
X0047776Y0029185D01*
X0047552Y0030383D02*
X0047114Y0030383D01*
X0047114Y0031582D02*
X0047552Y0031582D01*
X0047552Y0032780D02*
X0047114Y0032780D01*
X0047114Y0033979D02*
X0047552Y0033979D01*
X0047552Y0035177D02*
X0047114Y0035177D01*
X0047114Y0036376D02*
X0047552Y0036376D01*
X0047552Y0037574D02*
X0047114Y0037574D01*
X0047114Y0038773D02*
X0047552Y0038773D01*
X0047933Y0039971D02*
X0046665Y0039971D01*
X0046071Y0043567D02*
X0045043Y0043567D01*
X0045133Y0044765D02*
X0045977Y0044765D01*
X0045977Y0045964D02*
X0045133Y0045964D01*
X0041851Y0045964D02*
X0040885Y0045964D01*
X0040885Y0044765D02*
X0041851Y0044765D01*
X0041851Y0043567D02*
X0040885Y0043567D01*
X0037694Y0043567D02*
X0020476Y0043567D01*
X0026829Y0057949D02*
X0069631Y0057949D01*
X0072581Y0060346D02*
X0073192Y0060346D01*
X0073124Y0061544D02*
X0071759Y0061544D01*
X0071759Y0062743D02*
X0073124Y0062743D01*
X0073413Y0063941D02*
X0071759Y0063941D01*
X0071759Y0065140D02*
X0073624Y0065140D01*
X0073624Y0059147D02*
X0073498Y0059147D01*
X0073572Y0049559D02*
X0080917Y0049559D01*
X0080900Y0048361D02*
X0072546Y0048361D01*
X0068251Y0045964D02*
X0063422Y0045964D01*
X0062223Y0044765D02*
X0068251Y0044765D01*
X0067573Y0043567D02*
X0062202Y0043567D01*
X0062202Y0042368D02*
X0066203Y0042368D01*
X0064834Y0041170D02*
X0061733Y0041170D01*
X0061733Y0039971D02*
X0063464Y0039971D01*
X0062552Y0038773D02*
X0062114Y0038773D01*
X0062114Y0037574D02*
X0062552Y0037574D01*
X0062552Y0036376D02*
X0062114Y0036376D01*
X0062114Y0035177D02*
X0062552Y0035177D01*
X0062552Y0033979D02*
X0062114Y0033979D01*
X0062114Y0032780D02*
X0062552Y0032780D01*
X0062552Y0031582D02*
X0062114Y0031582D01*
X0062114Y0030383D02*
X0062552Y0030383D01*
X0062776Y0029185D02*
X0061889Y0029185D01*
X0066889Y0029185D02*
X0069464Y0029185D01*
X0069926Y0030383D02*
X0067114Y0030383D01*
X0067114Y0031582D02*
X0070389Y0031582D01*
X0070852Y0032780D02*
X0067114Y0032780D01*
X0067114Y0033979D02*
X0071314Y0033979D01*
X0071777Y0035177D02*
X0067114Y0035177D01*
X0067114Y0036376D02*
X0072240Y0036376D01*
X0072702Y0037574D02*
X0067114Y0037574D01*
X0067865Y0038773D02*
X0073101Y0038773D01*
X0080659Y0028880D02*
X0080659Y0028880D01*
X0084274Y0026788D02*
X0087218Y0026788D01*
X0086358Y0025589D02*
X0084122Y0025589D01*
X0084122Y0024391D02*
X0086358Y0024391D01*
X0086358Y0023192D02*
X0083712Y0023192D01*
X0094351Y0020795D02*
X0095551Y0020795D01*
X0095551Y0019596D02*
X0094351Y0019596D01*
X0094351Y0018398D02*
X0095551Y0018398D01*
X0069001Y0027986D02*
X0037478Y0027986D01*
X0039365Y0026788D02*
X0068538Y0026788D01*
X0057776Y0029185D02*
X0057469Y0029185D01*
X0054833Y0029185D02*
X0054833Y0029185D01*
X0054833Y0030383D02*
X0054833Y0030383D01*
X0054833Y0031582D02*
X0054833Y0031582D01*
X0054833Y0032780D02*
X0054833Y0032780D01*
X0054833Y0033979D02*
X0054833Y0033979D01*
X0054833Y0035177D02*
X0054833Y0035177D01*
X0054833Y0036376D02*
X0054833Y0036376D01*
X0054833Y0037574D02*
X0054833Y0037574D01*
X0054833Y0038773D02*
X0054833Y0038773D01*
X0054833Y0039971D02*
X0054833Y0039971D01*
X0052955Y0039971D02*
X0051733Y0039971D01*
X0051733Y0041170D02*
X0057933Y0041170D01*
X0057933Y0039971D02*
X0056711Y0039971D01*
X0056440Y0042368D02*
X0051733Y0042368D01*
X0052413Y0043567D02*
X0056440Y0043567D01*
X0056440Y0044765D02*
X0052507Y0044765D01*
X0052507Y0045964D02*
X0056440Y0045964D01*
X0056816Y0047162D02*
X0052507Y0047162D01*
X0047342Y0051956D02*
X0034659Y0051956D01*
X0034909Y0050758D02*
X0038069Y0050758D01*
X0037603Y0049559D02*
X0034909Y0049559D01*
X0034675Y0048361D02*
X0037603Y0048361D01*
X0040885Y0048361D02*
X0041851Y0048361D01*
X0041851Y0049559D02*
X0040885Y0049559D01*
X0040885Y0050758D02*
X0041851Y0050758D01*
X0047342Y0053155D02*
X0034163Y0053155D01*
X0033223Y0054353D02*
X0048130Y0054353D01*
X0044879Y0059147D02*
X0058875Y0059147D01*
X0058823Y0060346D02*
X0044879Y0060346D01*
X0044879Y0061544D02*
X0058823Y0061544D01*
X0058823Y0062743D02*
X0044879Y0062743D01*
X0044259Y0063941D02*
X0058823Y0063941D01*
X0058823Y0065140D02*
X0043598Y0065140D01*
X0040398Y0065140D02*
X0038631Y0065140D01*
X0038543Y0066338D02*
X0040398Y0066338D01*
X0040247Y0067537D02*
X0038081Y0067537D01*
X0037044Y0068735D02*
X0039994Y0068735D01*
X0039741Y0069934D02*
X0035862Y0069934D01*
X0038354Y0063941D02*
X0039737Y0063941D01*
X0039117Y0062743D02*
X0037646Y0062743D01*
X0039117Y0059147D02*
X0027344Y0059147D01*
X0031684Y0055552D02*
X0052670Y0055552D01*
X0050333Y0067537D02*
X0049134Y0067537D01*
X0049134Y0068735D02*
X0050333Y0068735D01*
X0059349Y0074728D02*
X0059873Y0074728D01*
X0074501Y0087912D02*
X0074730Y0087912D01*
X0075559Y0089110D02*
X0086559Y0089110D01*
X0086361Y0087912D02*
X0080132Y0087912D01*
X0083938Y0086713D02*
X0086361Y0086713D01*
X0086361Y0085515D02*
X0084555Y0085515D01*
X0084555Y0084316D02*
X0086484Y0084316D01*
X0080900Y0083118D02*
X0080172Y0083118D01*
X0075559Y0092706D02*
X0091926Y0092706D01*
X0091926Y0093904D02*
X0074502Y0093904D01*
X0037736Y0093904D02*
X0036606Y0093904D01*
X0037668Y0095103D02*
X0037736Y0095103D01*
X0037736Y0092706D02*
X0035299Y0092706D01*
X0033613Y0092706D02*
X0025657Y0092706D01*
X0025657Y0093904D02*
X0032306Y0093904D01*
X0031689Y0091507D02*
X0025657Y0091507D01*
X0025657Y0090309D02*
X0030989Y0090309D01*
X0030781Y0089110D02*
X0025657Y0089110D01*
X0025657Y0087912D02*
X0030961Y0087912D01*
X0031623Y0086713D02*
X0025657Y0086713D01*
X0036773Y0078324D02*
X0037968Y0078324D01*
X0037736Y0091507D02*
X0037223Y0091507D01*
X0051889Y0029185D02*
X0052197Y0029185D01*
X0046491Y0014802D02*
X0034394Y0014802D01*
X0034890Y0013604D02*
X0046343Y0013604D01*
X0046343Y0012405D02*
X0034909Y0012405D01*
X0034909Y0011207D02*
X0046343Y0011207D01*
X0037834Y0023192D02*
X0032709Y0023192D01*
X0032709Y0024391D02*
X0036051Y0024391D01*
X0034165Y0025589D02*
X0032274Y0025589D01*
X0032278Y0026788D02*
X0031299Y0026788D01*
D31*
X0068943Y0080991D02*
X0073100Y0080991D01*
X0068943Y0080991D02*
X0062077Y0087857D01*
X0072407Y0090908D02*
X0095767Y0090938D01*
X0095699Y0088959D01*
X0095699Y0080387D01*
X0083100Y0080387D02*
X0083100Y0085494D01*
X0077431Y0085494D01*
X0077431Y0098093D02*
X0077575Y0106173D01*
X0079436Y0106173D01*
X0079436Y0102315D01*
X0079531Y0102220D01*
X0079459Y0102178D01*
X0079206Y0101926D01*
X0079028Y0101617D01*
X0078936Y0101273D01*
X0078936Y0098890D01*
X0082889Y0098890D01*
X0082889Y0098181D01*
X0078936Y0098181D01*
X0078936Y0098093D01*
X0077431Y0098093D01*
X0077435Y0098286D02*
X0082889Y0098286D01*
X0083597Y0098286D02*
X0100333Y0098286D01*
X0100330Y0098293D02*
X0100413Y0098093D01*
X0087550Y0098093D01*
X0087550Y0098181D01*
X0083597Y0098181D01*
X0083597Y0098890D01*
X0087550Y0098890D01*
X0087550Y0101273D01*
X0087458Y0101617D01*
X0087279Y0101926D01*
X0087027Y0102178D01*
X0086955Y0102220D01*
X0087050Y0102315D01*
X0087050Y0103388D01*
X0087283Y0103156D01*
X0091218Y0103156D01*
X0092172Y0102656D01*
X0092172Y0099586D01*
X0092672Y0099085D01*
X0098892Y0099085D01*
X0099392Y0099586D01*
X0099392Y0104624D01*
X0098892Y0105125D01*
X0092672Y0105125D01*
X0092642Y0105094D01*
X0092053Y0105403D01*
X0092053Y0107926D01*
X0091553Y0108426D01*
X0087283Y0108426D01*
X0087024Y0108167D01*
X0086550Y0108642D01*
X0079936Y0108642D01*
X0079845Y0108551D01*
X0077618Y0108551D01*
X0077631Y0109268D01*
X0093696Y0109268D01*
X0095157Y0109044D01*
X0097923Y0107915D01*
X0100204Y0105987D01*
X0101778Y0103447D01*
X0102145Y0101954D01*
X0101784Y0101804D01*
X0100841Y0100860D01*
X0100330Y0099628D01*
X0100330Y0098293D01*
X0100330Y0098993D02*
X0087550Y0098993D01*
X0087550Y0099700D02*
X0092172Y0099700D01*
X0092172Y0100407D02*
X0087550Y0100407D01*
X0087550Y0101114D02*
X0092172Y0101114D01*
X0092172Y0101822D02*
X0087340Y0101822D01*
X0087050Y0102529D02*
X0092172Y0102529D01*
X0092140Y0105357D02*
X0100594Y0105357D01*
X0101033Y0104650D02*
X0099366Y0104650D01*
X0099392Y0103943D02*
X0101471Y0103943D01*
X0101830Y0103236D02*
X0099392Y0103236D01*
X0099392Y0102529D02*
X0102004Y0102529D01*
X0101827Y0101822D02*
X0099392Y0101822D01*
X0099392Y0101114D02*
X0101095Y0101114D01*
X0100653Y0100407D02*
X0099392Y0100407D01*
X0099392Y0099700D02*
X0100360Y0099700D01*
X0104657Y0102188D02*
X0104108Y0104426D01*
X0104108Y0104426D01*
X0102117Y0107637D01*
X0102117Y0107637D01*
X0099232Y0110076D01*
X0099232Y0110076D01*
X0095734Y0111504D01*
X0095734Y0111504D01*
X0094291Y0111610D01*
X0094255Y0111646D01*
X0093806Y0111646D01*
X0093359Y0111679D01*
X0093320Y0111646D01*
X0077673Y0111646D01*
X0077825Y0120140D01*
X0079294Y0120140D01*
X0079294Y0119866D01*
X0079795Y0119365D01*
X0087902Y0119365D01*
X0088403Y0119866D01*
X0088403Y0120140D01*
X0091187Y0120140D01*
X0091962Y0119365D01*
X0095735Y0119365D01*
X0096468Y0120098D01*
X0103142Y0114774D01*
X0103142Y0112493D01*
X0103643Y0111993D01*
X0107913Y0111993D01*
X0108413Y0112493D01*
X0108413Y0116763D01*
X0107913Y0117264D01*
X0104364Y0117264D01*
X0100758Y0120140D01*
X0101187Y0120140D01*
X0101962Y0119365D01*
X0105735Y0119365D01*
X0105899Y0119530D01*
X0108467Y0116962D01*
X0108467Y0112818D01*
X0108967Y0112317D01*
X0115187Y0112317D01*
X0115687Y0112818D01*
X0115687Y0117856D01*
X0115187Y0118357D01*
X0111751Y0118357D01*
X0109968Y0120140D01*
X0117624Y0120140D01*
X0117624Y0119891D01*
X0118146Y0118631D01*
X0119111Y0117666D01*
X0120371Y0117144D01*
X0121735Y0117144D01*
X0122996Y0117666D01*
X0123960Y0118631D01*
X0124482Y0119891D01*
X0124482Y0120140D01*
X0126522Y0120140D01*
X0126522Y0098093D01*
X0124292Y0098093D01*
X0123960Y0098894D01*
X0122996Y0099858D01*
X0121735Y0100380D01*
X0120371Y0100380D01*
X0119111Y0099858D01*
X0118146Y0098894D01*
X0117814Y0098093D01*
X0113707Y0098093D01*
X0113707Y0101627D01*
X0113206Y0102127D01*
X0112726Y0102127D01*
X0112726Y0102640D01*
X0113116Y0104443D01*
X0115187Y0104443D01*
X0115687Y0104944D01*
X0115687Y0109982D01*
X0115187Y0110483D01*
X0108967Y0110483D01*
X0108467Y0109982D01*
X0108467Y0104944D01*
X0108967Y0104443D01*
X0109731Y0104443D01*
X0109557Y0103643D01*
X0109417Y0103503D01*
X0109417Y0102994D01*
X0109310Y0102497D01*
X0109417Y0102331D01*
X0109417Y0102127D01*
X0108936Y0102127D01*
X0108436Y0101627D01*
X0108436Y0098093D01*
X0106956Y0098093D01*
X0107039Y0098293D01*
X0107039Y0099628D01*
X0106528Y0100860D01*
X0105584Y0101804D01*
X0104657Y0102188D01*
X0104574Y0102529D02*
X0109316Y0102529D01*
X0109417Y0103236D02*
X0104400Y0103236D01*
X0104226Y0103943D02*
X0109622Y0103943D01*
X0108760Y0104650D02*
X0103969Y0104650D01*
X0103531Y0105357D02*
X0108467Y0105357D01*
X0108467Y0106065D02*
X0103092Y0106065D01*
X0102654Y0106772D02*
X0108467Y0106772D01*
X0108467Y0107479D02*
X0102215Y0107479D01*
X0101468Y0108186D02*
X0108467Y0108186D01*
X0108467Y0108893D02*
X0100631Y0108893D01*
X0099795Y0109600D02*
X0108467Y0109600D01*
X0108792Y0110308D02*
X0098665Y0110308D01*
X0097259Y0108186D02*
X0091793Y0108186D01*
X0092053Y0107479D02*
X0098439Y0107479D01*
X0099276Y0106772D02*
X0092053Y0106772D01*
X0092053Y0106065D02*
X0100112Y0106065D01*
X0096933Y0111015D02*
X0118039Y0111015D01*
X0118146Y0110757D02*
X0119111Y0109792D01*
X0120371Y0109270D01*
X0121735Y0109270D01*
X0122996Y0109792D01*
X0123960Y0110757D01*
X0124482Y0112017D01*
X0124482Y0113381D01*
X0123960Y0114642D01*
X0122996Y0115606D01*
X0121735Y0116128D01*
X0120371Y0116128D01*
X0119111Y0115606D01*
X0118146Y0114642D01*
X0117624Y0113381D01*
X0117624Y0112017D01*
X0118146Y0110757D01*
X0118595Y0110308D02*
X0115362Y0110308D01*
X0115687Y0109600D02*
X0119574Y0109600D01*
X0120206Y0108186D02*
X0115687Y0108186D01*
X0115687Y0107479D02*
X0118857Y0107479D01*
X0119111Y0107732D02*
X0118146Y0106768D01*
X0117624Y0105507D01*
X0117624Y0104143D01*
X0118146Y0102883D01*
X0119111Y0101918D01*
X0120371Y0101396D01*
X0121735Y0101396D01*
X0122996Y0101918D01*
X0123960Y0102883D01*
X0124482Y0104143D01*
X0124482Y0105507D01*
X0123960Y0106768D01*
X0122996Y0107732D01*
X0121735Y0108254D01*
X0120371Y0108254D01*
X0119111Y0107732D01*
X0118150Y0106772D02*
X0115687Y0106772D01*
X0115687Y0106065D02*
X0117855Y0106065D01*
X0117624Y0105357D02*
X0115687Y0105357D01*
X0115393Y0104650D02*
X0117624Y0104650D01*
X0117707Y0103943D02*
X0113008Y0103943D01*
X0112855Y0103236D02*
X0118000Y0103236D01*
X0118500Y0102529D02*
X0112726Y0102529D01*
X0113512Y0101822D02*
X0119344Y0101822D01*
X0118952Y0099700D02*
X0113707Y0099700D01*
X0113707Y0100407D02*
X0126522Y0100407D01*
X0126522Y0099700D02*
X0123154Y0099700D01*
X0123861Y0098993D02*
X0126522Y0098993D01*
X0126522Y0098286D02*
X0124212Y0098286D01*
X0126522Y0101114D02*
X0113707Y0101114D01*
X0113707Y0098993D02*
X0118245Y0098993D01*
X0117894Y0098286D02*
X0113707Y0098286D01*
X0108436Y0098286D02*
X0107036Y0098286D01*
X0107039Y0098993D02*
X0108436Y0098993D01*
X0108436Y0099700D02*
X0107009Y0099700D01*
X0106716Y0100407D02*
X0108436Y0100407D01*
X0108436Y0101114D02*
X0106274Y0101114D01*
X0105542Y0101822D02*
X0108631Y0101822D01*
X0115687Y0108893D02*
X0126522Y0108893D01*
X0126522Y0108186D02*
X0121900Y0108186D01*
X0123249Y0107479D02*
X0126522Y0107479D01*
X0126522Y0106772D02*
X0123956Y0106772D01*
X0124251Y0106065D02*
X0126522Y0106065D01*
X0126522Y0105357D02*
X0124482Y0105357D01*
X0124482Y0104650D02*
X0126522Y0104650D01*
X0126522Y0103943D02*
X0124399Y0103943D01*
X0124106Y0103236D02*
X0126522Y0103236D01*
X0126522Y0102529D02*
X0123606Y0102529D01*
X0122762Y0101822D02*
X0126522Y0101822D01*
X0126522Y0109600D02*
X0122533Y0109600D01*
X0123511Y0110308D02*
X0126522Y0110308D01*
X0126522Y0111015D02*
X0124067Y0111015D01*
X0124360Y0111722D02*
X0126522Y0111722D01*
X0126522Y0112429D02*
X0124482Y0112429D01*
X0124482Y0113136D02*
X0126522Y0113136D01*
X0126522Y0113843D02*
X0124291Y0113843D01*
X0123998Y0114551D02*
X0126522Y0114551D01*
X0126522Y0115258D02*
X0123344Y0115258D01*
X0122505Y0115809D02*
X0121735Y0116128D01*
X0120371Y0116128D01*
X0119601Y0115809D01*
X0115687Y0115809D01*
X0115687Y0117856D01*
X0115187Y0118357D01*
X0111751Y0118357D01*
X0108239Y0121869D01*
X0108403Y0122033D01*
X0108403Y0125806D01*
X0105735Y0128474D01*
X0101962Y0128474D01*
X0099294Y0125806D01*
X0099294Y0122033D01*
X0101962Y0119365D01*
X0105735Y0119365D01*
X0105899Y0119530D01*
X0108467Y0116962D01*
X0108467Y0115809D01*
X0108413Y0115809D01*
X0108413Y0116763D01*
X0107913Y0117264D01*
X0104364Y0117264D01*
X0098395Y0122025D01*
X0098403Y0122033D01*
X0098403Y0125806D01*
X0095735Y0128474D01*
X0091962Y0128474D01*
X0089294Y0125806D01*
X0089294Y0122033D01*
X0091962Y0119365D01*
X0095735Y0119365D01*
X0096468Y0120098D01*
X0101844Y0115809D01*
X0062408Y0115809D01*
X0062408Y0115869D01*
X0064486Y0115869D01*
X0064987Y0116370D01*
X0064987Y0122196D01*
X0064891Y0122291D01*
X0064964Y0122333D01*
X0065216Y0122585D01*
X0065394Y0122894D01*
X0065487Y0123238D01*
X0065487Y0125621D01*
X0061534Y0125621D01*
X0061534Y0126330D01*
X0065487Y0126330D01*
X0065487Y0128713D01*
X0065394Y0129057D01*
X0065216Y0129366D01*
X0064964Y0129618D01*
X0064655Y0129797D01*
X0064311Y0129889D01*
X0061534Y0129889D01*
X0061534Y0126330D01*
X0060825Y0126330D01*
X0060825Y0125621D01*
X0056872Y0125621D01*
X0056872Y0123238D01*
X0056965Y0122894D01*
X0057143Y0122585D01*
X0057395Y0122333D01*
X0057468Y0122291D01*
X0057372Y0122196D01*
X0057372Y0116370D01*
X0057442Y0116300D01*
X0054818Y0116300D01*
X0054896Y0116378D01*
X0054896Y0122204D01*
X0054801Y0122300D01*
X0054873Y0122341D01*
X0055125Y0122594D01*
X0055304Y0122902D01*
X0055396Y0123247D01*
X0055396Y0125630D01*
X0052478Y0125630D01*
X0052496Y0126338D01*
X0055396Y0126338D01*
X0055396Y0128722D01*
X0055304Y0129066D01*
X0055125Y0129375D01*
X0054873Y0129627D01*
X0054564Y0129805D01*
X0054220Y0129898D01*
X0052584Y0129898D01*
X0052628Y0131678D01*
X0053582Y0131678D01*
X0054082Y0132178D01*
X0054082Y0136448D01*
X0053582Y0136949D01*
X0052759Y0136949D01*
X0052983Y0145963D01*
X0123376Y0145963D01*
X0123990Y0145903D01*
X0125124Y0145433D01*
X0125992Y0144565D01*
X0126461Y0143431D01*
X0126522Y0142817D01*
X0126522Y0115809D01*
X0122505Y0115809D01*
X0122130Y0115965D02*
X0126522Y0115965D01*
X0122130Y0115965D01*
X0121735Y0117144D02*
X0120371Y0117144D01*
X0119111Y0117666D01*
X0118146Y0118631D01*
X0117624Y0119891D01*
X0117624Y0121255D01*
X0118146Y0122516D01*
X0119111Y0123480D01*
X0120371Y0124002D01*
X0121735Y0124002D01*
X0122996Y0123480D01*
X0123960Y0122516D01*
X0124482Y0121255D01*
X0124482Y0119891D01*
X0123960Y0118631D01*
X0122996Y0117666D01*
X0121735Y0117144D01*
X0122303Y0117379D02*
X0126522Y0117379D01*
X0122303Y0117379D01*
X0123416Y0118086D02*
X0126522Y0118086D01*
X0123416Y0118086D01*
X0124028Y0118794D02*
X0126522Y0118794D01*
X0124028Y0118794D01*
X0124321Y0119501D02*
X0126522Y0119501D01*
X0124321Y0119501D01*
X0124482Y0120208D02*
X0126522Y0120208D01*
X0126522Y0120915D02*
X0124482Y0120915D01*
X0124330Y0121622D02*
X0126522Y0121622D01*
X0126522Y0122330D02*
X0124037Y0122330D01*
X0123439Y0123037D02*
X0126522Y0123037D01*
X0126522Y0123744D02*
X0122359Y0123744D01*
X0121735Y0125018D02*
X0122996Y0125540D01*
X0123960Y0126505D01*
X0124482Y0127765D01*
X0124482Y0129129D01*
X0123960Y0130390D01*
X0122996Y0131354D01*
X0121735Y0131876D01*
X0120371Y0131876D01*
X0119111Y0131354D01*
X0118146Y0130390D01*
X0117624Y0129129D01*
X0117624Y0127765D01*
X0118146Y0126505D01*
X0119111Y0125540D01*
X0120371Y0125018D01*
X0121735Y0125018D01*
X0122073Y0125158D02*
X0126522Y0125158D01*
X0126522Y0124451D02*
X0108403Y0124451D01*
X0108403Y0123744D02*
X0119747Y0123744D01*
X0118667Y0123037D02*
X0108403Y0123037D01*
X0108403Y0122330D02*
X0118069Y0122330D01*
X0117776Y0121622D02*
X0108485Y0121622D01*
X0109192Y0120915D02*
X0117624Y0120915D01*
X0117624Y0120208D02*
X0109900Y0120208D01*
X0110607Y0119501D02*
X0117786Y0119501D01*
X0110607Y0119501D01*
X0111314Y0118794D02*
X0118079Y0118794D01*
X0111314Y0118794D01*
X0108467Y0116672D02*
X0108413Y0116672D01*
X0108467Y0116672D01*
X0108467Y0115965D02*
X0108413Y0115965D01*
X0108467Y0115965D01*
X0108467Y0115258D02*
X0108413Y0115258D01*
X0108413Y0114551D02*
X0108467Y0114551D01*
X0108467Y0113843D02*
X0108413Y0113843D01*
X0108413Y0113136D02*
X0108467Y0113136D01*
X0108349Y0112429D02*
X0108855Y0112429D01*
X0108049Y0117379D02*
X0104219Y0117379D01*
X0108049Y0117379D01*
X0107342Y0118086D02*
X0103333Y0118086D01*
X0107342Y0118086D01*
X0106635Y0118794D02*
X0102446Y0118794D01*
X0106635Y0118794D01*
X0105928Y0119501D02*
X0105870Y0119501D01*
X0105928Y0119501D01*
X0101826Y0119501D02*
X0101560Y0119501D01*
X0101826Y0119501D01*
X0101119Y0120208D02*
X0100673Y0120208D01*
X0100412Y0120915D02*
X0099787Y0120915D01*
X0099705Y0121622D02*
X0098900Y0121622D01*
X0099294Y0122330D02*
X0098403Y0122330D01*
X0098403Y0123037D02*
X0099294Y0123037D01*
X0099294Y0123744D02*
X0098403Y0123744D01*
X0098403Y0124451D02*
X0099294Y0124451D01*
X0099294Y0125158D02*
X0098403Y0125158D01*
X0098344Y0125865D02*
X0099353Y0125865D01*
X0100061Y0126573D02*
X0097636Y0126573D01*
X0096929Y0127280D02*
X0100768Y0127280D01*
X0101475Y0127987D02*
X0096222Y0127987D01*
X0095735Y0129365D02*
X0098403Y0132033D01*
X0098403Y0135806D01*
X0095735Y0138474D01*
X0095203Y0138474D01*
X0095203Y0141292D01*
X0093746Y0142748D01*
X0092953Y0143542D01*
X0072933Y0143542D01*
X0070965Y0141573D01*
X0070171Y0140780D01*
X0070171Y0132755D01*
X0069293Y0131437D01*
X0067028Y0131437D01*
X0066528Y0130937D01*
X0066528Y0126667D01*
X0067028Y0126166D01*
X0071298Y0126166D01*
X0071799Y0126667D01*
X0071799Y0130313D01*
X0072578Y0131482D01*
X0072880Y0131784D01*
X0072880Y0131935D01*
X0072964Y0132060D01*
X0072880Y0132479D01*
X0072880Y0139658D01*
X0074055Y0140833D01*
X0091831Y0140833D01*
X0092494Y0140170D01*
X0092494Y0138474D01*
X0091962Y0138474D01*
X0089294Y0135806D01*
X0089294Y0132033D01*
X0091962Y0129365D01*
X0095735Y0129365D01*
X0095771Y0129401D02*
X0101219Y0129401D01*
X0101755Y0128865D02*
X0103494Y0128865D01*
X0103494Y0133565D01*
X0104203Y0133565D01*
X0104203Y0128865D01*
X0105942Y0128865D01*
X0108903Y0131826D01*
X0108903Y0133565D01*
X0104203Y0133565D01*
X0104203Y0134274D01*
X0108903Y0134274D01*
X0108903Y0136013D01*
X0105942Y0138974D01*
X0104203Y0138974D01*
X0104203Y0134274D01*
X0103494Y0134274D01*
X0103494Y0133565D01*
X0098794Y0133565D01*
X0098794Y0131826D01*
X0101755Y0128865D01*
X0100512Y0130108D02*
X0096478Y0130108D01*
X0097185Y0130816D02*
X0099805Y0130816D01*
X0099097Y0131523D02*
X0097892Y0131523D01*
X0098403Y0132230D02*
X0098794Y0132230D01*
X0098794Y0132937D02*
X0098403Y0132937D01*
X0098403Y0133644D02*
X0103494Y0133644D01*
X0103494Y0134274D02*
X0098794Y0134274D01*
X0098794Y0136013D01*
X0101755Y0138974D01*
X0103494Y0138974D01*
X0103494Y0134274D01*
X0103494Y0134351D02*
X0104203Y0134351D01*
X0104203Y0133644D02*
X0117624Y0133644D01*
X0117624Y0133393D02*
X0118124Y0132892D01*
X0123982Y0132892D01*
X0124482Y0133393D01*
X0124482Y0139250D01*
X0123982Y0139750D01*
X0118124Y0139750D01*
X0117624Y0139250D01*
X0117624Y0133393D01*
X0118079Y0132937D02*
X0108903Y0132937D01*
X0108903Y0132230D02*
X0126522Y0132230D01*
X0126522Y0132937D02*
X0124027Y0132937D01*
X0124482Y0133644D02*
X0126522Y0133644D01*
X0126522Y0134351D02*
X0124482Y0134351D01*
X0124482Y0135059D02*
X0126522Y0135059D01*
X0126522Y0135766D02*
X0124482Y0135766D01*
X0124482Y0136473D02*
X0126522Y0136473D01*
X0126522Y0137180D02*
X0124482Y0137180D01*
X0124482Y0137887D02*
X0126522Y0137887D01*
X0126522Y0138594D02*
X0124482Y0138594D01*
X0124431Y0139302D02*
X0126522Y0139302D01*
X0126522Y0140009D02*
X0095203Y0140009D01*
X0095203Y0140716D02*
X0126522Y0140716D01*
X0126522Y0141423D02*
X0095071Y0141423D01*
X0094364Y0142130D02*
X0126522Y0142130D01*
X0126520Y0142838D02*
X0093657Y0142838D01*
X0091948Y0140716D02*
X0073938Y0140716D01*
X0073231Y0140009D02*
X0092494Y0140009D01*
X0092494Y0139302D02*
X0072880Y0139302D01*
X0072880Y0138594D02*
X0092494Y0138594D01*
X0091375Y0137887D02*
X0086322Y0137887D01*
X0085735Y0138474D02*
X0081962Y0138474D01*
X0079294Y0135806D01*
X0079294Y0132033D01*
X0081962Y0129365D01*
X0085735Y0129365D01*
X0088403Y0132033D01*
X0088403Y0135806D01*
X0085735Y0138474D01*
X0087029Y0137180D02*
X0090668Y0137180D01*
X0089961Y0136473D02*
X0087736Y0136473D01*
X0088403Y0135766D02*
X0089294Y0135766D01*
X0089294Y0135059D02*
X0088403Y0135059D01*
X0088403Y0134351D02*
X0089294Y0134351D01*
X0089294Y0133644D02*
X0088403Y0133644D01*
X0088403Y0132937D02*
X0089294Y0132937D01*
X0089294Y0132230D02*
X0088403Y0132230D01*
X0087892Y0131523D02*
X0089805Y0131523D01*
X0090512Y0130816D02*
X0087185Y0130816D01*
X0086478Y0130108D02*
X0091219Y0130108D01*
X0091926Y0129401D02*
X0085771Y0129401D01*
X0087902Y0128474D02*
X0079795Y0128474D01*
X0079294Y0127974D01*
X0079294Y0119866D01*
X0079795Y0119365D01*
X0087902Y0119365D01*
X0088403Y0119866D01*
X0088403Y0127974D01*
X0087902Y0128474D01*
X0088389Y0127987D02*
X0091475Y0127987D01*
X0090768Y0127280D02*
X0088403Y0127280D01*
X0088403Y0126573D02*
X0090061Y0126573D01*
X0089353Y0125865D02*
X0088403Y0125865D01*
X0088403Y0125158D02*
X0089294Y0125158D01*
X0089294Y0124451D02*
X0088403Y0124451D01*
X0088403Y0123744D02*
X0089294Y0123744D01*
X0089294Y0123037D02*
X0088403Y0123037D01*
X0088403Y0122330D02*
X0089294Y0122330D01*
X0089705Y0121622D02*
X0088403Y0121622D01*
X0088403Y0120915D02*
X0090412Y0120915D01*
X0091119Y0120208D02*
X0088403Y0120208D01*
X0088038Y0119501D02*
X0091826Y0119501D01*
X0088038Y0119501D01*
X0095870Y0119501D02*
X0097216Y0119501D01*
X0095870Y0119501D01*
X0098103Y0118794D02*
X0077801Y0118794D01*
X0077813Y0119501D02*
X0079659Y0119501D01*
X0064987Y0119501D01*
X0064987Y0120208D02*
X0079294Y0120208D01*
X0079294Y0120915D02*
X0064987Y0120915D01*
X0064987Y0121622D02*
X0079294Y0121622D01*
X0079294Y0122330D02*
X0064958Y0122330D01*
X0065433Y0123037D02*
X0079294Y0123037D01*
X0079294Y0123744D02*
X0065487Y0123744D01*
X0065487Y0124451D02*
X0079294Y0124451D01*
X0079294Y0125158D02*
X0065487Y0125158D01*
X0065487Y0126573D02*
X0066622Y0126573D01*
X0066528Y0127280D02*
X0065487Y0127280D01*
X0065487Y0127987D02*
X0066528Y0127987D01*
X0066528Y0128694D02*
X0065487Y0128694D01*
X0065181Y0129401D02*
X0066528Y0129401D01*
X0066528Y0130108D02*
X0052589Y0130108D01*
X0052607Y0130816D02*
X0066528Y0130816D01*
X0069350Y0131523D02*
X0052625Y0131523D01*
X0053582Y0131678D02*
X0054082Y0132178D01*
X0054082Y0136448D01*
X0053582Y0136949D01*
X0049312Y0136949D01*
X0048811Y0136448D01*
X0048811Y0135668D01*
X0039897Y0135668D01*
X0038775Y0135668D01*
X0037981Y0134874D01*
X0037981Y0098880D01*
X0037369Y0098880D01*
X0037363Y0098894D01*
X0036399Y0099858D01*
X0035138Y0100380D01*
X0033774Y0100380D01*
X0032514Y0099858D01*
X0031549Y0098894D01*
X0031544Y0098880D01*
X0020230Y0098880D01*
X0020230Y0142817D01*
X0020291Y0143431D01*
X0020760Y0144565D01*
X0021628Y0145433D01*
X0022762Y0145903D01*
X0023376Y0145963D01*
X0054990Y0145963D01*
X0054990Y0129510D01*
X0054873Y0129627D01*
X0054564Y0129805D01*
X0054220Y0129898D01*
X0051443Y0129898D01*
X0051443Y0126339D01*
X0050734Y0126339D01*
X0050734Y0129898D01*
X0047958Y0129898D01*
X0047613Y0129805D01*
X0047304Y0129627D01*
X0047052Y0129375D01*
X0046874Y0129066D01*
X0046782Y0128722D01*
X0046782Y0126338D01*
X0050734Y0126338D01*
X0050734Y0125630D01*
X0046782Y0125630D01*
X0046782Y0123247D01*
X0046874Y0122902D01*
X0047052Y0122594D01*
X0047304Y0122341D01*
X0047377Y0122300D01*
X0047282Y0122204D01*
X0047282Y0116378D01*
X0047782Y0115878D01*
X0049900Y0115878D01*
X0049900Y0113173D01*
X0050596Y0112476D01*
X0053712Y0112476D01*
X0053712Y0111530D01*
X0054212Y0111030D01*
X0054990Y0111030D01*
X0054990Y0110126D01*
X0052114Y0110126D01*
X0052114Y0111252D01*
X0051613Y0111752D01*
X0047343Y0111752D01*
X0046843Y0111252D01*
X0046843Y0106982D01*
X0047343Y0106481D01*
X0051439Y0106481D01*
X0051439Y0106459D01*
X0051348Y0106368D01*
X0049749Y0106368D01*
X0049549Y0106465D01*
X0049275Y0106368D01*
X0048986Y0106368D01*
X0048829Y0106212D01*
X0048619Y0106138D01*
X0048494Y0105877D01*
X0048289Y0105672D01*
X0048289Y0105450D01*
X0047457Y0103716D01*
X0045103Y0103716D01*
X0044603Y0103216D01*
X0044603Y0098946D01*
X0044668Y0098880D01*
X0040690Y0098880D01*
X0040690Y0132959D01*
X0048811Y0132959D01*
X0048811Y0132178D01*
X0049312Y0131678D01*
X0053582Y0131678D01*
X0054082Y0132230D02*
X0069821Y0132230D01*
X0070171Y0132937D02*
X0054082Y0132937D01*
X0054990Y0132937D01*
X0054990Y0132230D02*
X0054082Y0132230D01*
X0054990Y0131523D02*
X0040690Y0131523D01*
X0040690Y0132230D02*
X0048811Y0132230D01*
X0048811Y0132937D02*
X0040690Y0132937D01*
X0039897Y0135668D02*
X0039897Y0135668D01*
X0038166Y0135059D02*
X0037885Y0135059D01*
X0037885Y0135766D02*
X0048811Y0135766D01*
X0048836Y0136473D02*
X0037885Y0136473D01*
X0037885Y0137180D02*
X0054990Y0137180D01*
X0054990Y0136473D02*
X0054058Y0136473D01*
X0070171Y0136473D01*
X0070171Y0137180D02*
X0052765Y0137180D01*
X0052783Y0137887D02*
X0070171Y0137887D01*
X0070171Y0138594D02*
X0052800Y0138594D01*
X0052818Y0139302D02*
X0070171Y0139302D01*
X0070171Y0140009D02*
X0052835Y0140009D01*
X0052853Y0140716D02*
X0070171Y0140716D01*
X0070815Y0141423D02*
X0052871Y0141423D01*
X0052888Y0142130D02*
X0071522Y0142130D01*
X0072229Y0142838D02*
X0052906Y0142838D01*
X0052923Y0143545D02*
X0126414Y0143545D01*
X0126121Y0144252D02*
X0052941Y0144252D01*
X0052958Y0144959D02*
X0125597Y0144959D01*
X0124560Y0145666D02*
X0052976Y0145666D01*
X0054990Y0145666D02*
X0022192Y0145666D01*
X0021155Y0144959D02*
X0054990Y0144959D01*
X0054990Y0144252D02*
X0020631Y0144252D01*
X0020338Y0143545D02*
X0054990Y0143545D01*
X0054990Y0142838D02*
X0020232Y0142838D01*
X0020230Y0142130D02*
X0054990Y0142130D01*
X0054990Y0141423D02*
X0020230Y0141423D01*
X0020230Y0140716D02*
X0054990Y0140716D01*
X0054990Y0140009D02*
X0020230Y0140009D01*
X0020230Y0139302D02*
X0031079Y0139302D01*
X0031027Y0139250D02*
X0031027Y0133393D01*
X0031527Y0132892D01*
X0037385Y0132892D01*
X0037885Y0133393D01*
X0037885Y0139250D01*
X0037385Y0139750D01*
X0031527Y0139750D01*
X0031027Y0139250D01*
X0031027Y0138594D02*
X0020230Y0138594D01*
X0020230Y0137887D02*
X0031027Y0137887D01*
X0031027Y0137180D02*
X0020230Y0137180D01*
X0020230Y0136473D02*
X0031027Y0136473D01*
X0031027Y0135766D02*
X0020230Y0135766D01*
X0020230Y0135059D02*
X0031027Y0135059D01*
X0031027Y0134351D02*
X0020230Y0134351D01*
X0020230Y0133644D02*
X0031027Y0133644D01*
X0031482Y0132937D02*
X0020230Y0132937D01*
X0020230Y0132230D02*
X0037981Y0132230D01*
X0037981Y0132937D02*
X0037430Y0132937D01*
X0037885Y0133644D02*
X0037981Y0133644D01*
X0037981Y0134351D02*
X0037885Y0134351D01*
X0037981Y0131523D02*
X0035992Y0131523D01*
X0036399Y0131354D02*
X0035138Y0131876D01*
X0033774Y0131876D01*
X0032514Y0131354D01*
X0031549Y0130390D01*
X0031027Y0129129D01*
X0031027Y0127765D01*
X0031549Y0126505D01*
X0032514Y0125540D01*
X0033774Y0125018D01*
X0035138Y0125018D01*
X0036399Y0125540D01*
X0037363Y0126505D01*
X0037885Y0127765D01*
X0037885Y0129129D01*
X0037363Y0130390D01*
X0036399Y0131354D01*
X0036937Y0130816D02*
X0037981Y0130816D01*
X0037981Y0130108D02*
X0037480Y0130108D01*
X0037773Y0129401D02*
X0037981Y0129401D01*
X0037981Y0128694D02*
X0037885Y0128694D01*
X0037885Y0127987D02*
X0037981Y0127987D01*
X0037981Y0127280D02*
X0037684Y0127280D01*
X0037391Y0126573D02*
X0037981Y0126573D01*
X0037981Y0125865D02*
X0036724Y0125865D01*
X0035476Y0125158D02*
X0037981Y0125158D01*
X0037981Y0124451D02*
X0020230Y0124451D01*
X0020230Y0123744D02*
X0033150Y0123744D01*
X0033774Y0124002D02*
X0032514Y0123480D01*
X0031549Y0122516D01*
X0031027Y0121255D01*
X0031027Y0119891D01*
X0031549Y0118631D01*
X0032514Y0117666D01*
X0033774Y0117144D01*
X0035138Y0117144D01*
X0036399Y0117666D01*
X0037363Y0118631D01*
X0037885Y0119891D01*
X0037885Y0121255D01*
X0037363Y0122516D01*
X0036399Y0123480D01*
X0035138Y0124002D01*
X0033774Y0124002D01*
X0033436Y0125158D02*
X0020230Y0125158D01*
X0020230Y0125865D02*
X0032188Y0125865D01*
X0031521Y0126573D02*
X0020230Y0126573D01*
X0020230Y0127280D02*
X0031228Y0127280D01*
X0031027Y0127987D02*
X0020230Y0127987D01*
X0020230Y0128694D02*
X0031027Y0128694D01*
X0031140Y0129401D02*
X0020230Y0129401D01*
X0020230Y0130108D02*
X0031433Y0130108D01*
X0031975Y0130816D02*
X0020230Y0130816D01*
X0020230Y0131523D02*
X0032920Y0131523D01*
X0037885Y0137887D02*
X0054990Y0137887D01*
X0054990Y0138594D02*
X0037885Y0138594D01*
X0037834Y0139302D02*
X0054990Y0139302D01*
X0054990Y0135766D02*
X0054082Y0135766D01*
X0070171Y0135766D01*
X0070171Y0135059D02*
X0054082Y0135059D01*
X0054990Y0135059D01*
X0054990Y0134351D02*
X0054082Y0134351D01*
X0070171Y0134351D01*
X0070171Y0133644D02*
X0054082Y0133644D01*
X0054990Y0133644D01*
X0054990Y0130816D02*
X0040690Y0130816D01*
X0040690Y0130108D02*
X0054990Y0130108D01*
X0055099Y0129401D02*
X0057178Y0129401D01*
X0057143Y0129366D02*
X0056965Y0129057D01*
X0056872Y0128713D01*
X0056872Y0126330D01*
X0060825Y0126330D01*
X0060825Y0129889D01*
X0058048Y0129889D01*
X0057704Y0129797D01*
X0057395Y0129618D01*
X0057143Y0129366D01*
X0056872Y0128694D02*
X0055396Y0128694D01*
X0055396Y0127987D02*
X0056872Y0127987D01*
X0056872Y0127280D02*
X0055396Y0127280D01*
X0055396Y0126573D02*
X0056872Y0126573D01*
X0056872Y0125158D02*
X0055396Y0125158D01*
X0055396Y0124451D02*
X0056872Y0124451D01*
X0056872Y0123744D02*
X0055396Y0123744D01*
X0055340Y0123037D02*
X0056926Y0123037D01*
X0057401Y0122330D02*
X0054852Y0122330D01*
X0054896Y0121622D02*
X0057372Y0121622D01*
X0057372Y0120915D02*
X0054896Y0120915D01*
X0054896Y0120208D02*
X0057372Y0120208D01*
X0057372Y0119501D02*
X0054896Y0119501D01*
X0054896Y0118794D02*
X0057372Y0118794D01*
X0057372Y0118086D02*
X0054896Y0118086D01*
X0054896Y0117379D02*
X0057372Y0117379D01*
X0057372Y0116672D02*
X0054896Y0116672D01*
X0053712Y0112429D02*
X0040690Y0112429D01*
X0040690Y0111722D02*
X0047313Y0111722D01*
X0046843Y0111015D02*
X0040690Y0111015D01*
X0040690Y0110308D02*
X0046843Y0110308D01*
X0046843Y0109600D02*
X0040690Y0109600D01*
X0040690Y0108893D02*
X0046843Y0108893D01*
X0046843Y0108186D02*
X0040690Y0108186D01*
X0040690Y0107479D02*
X0046843Y0107479D01*
X0047053Y0106772D02*
X0040690Y0106772D01*
X0040690Y0106065D02*
X0048584Y0106065D01*
X0048245Y0105357D02*
X0040690Y0105357D01*
X0040690Y0104650D02*
X0047906Y0104650D01*
X0047566Y0103943D02*
X0040690Y0103943D01*
X0040690Y0103236D02*
X0044623Y0103236D01*
X0044603Y0102529D02*
X0040690Y0102529D01*
X0040690Y0101822D02*
X0044603Y0101822D01*
X0044603Y0101114D02*
X0040690Y0101114D01*
X0040690Y0100407D02*
X0044603Y0100407D01*
X0044603Y0099700D02*
X0040690Y0099700D01*
X0040690Y0098993D02*
X0044603Y0098993D01*
X0037981Y0098993D02*
X0037264Y0098993D01*
X0036557Y0099700D02*
X0037981Y0099700D01*
X0037981Y0100407D02*
X0020230Y0100407D01*
X0020230Y0099700D02*
X0032355Y0099700D01*
X0031648Y0098993D02*
X0020230Y0098993D01*
X0020230Y0101114D02*
X0037981Y0101114D01*
X0037981Y0101822D02*
X0036165Y0101822D01*
X0036399Y0101918D02*
X0037363Y0102883D01*
X0037885Y0104143D01*
X0037885Y0105507D01*
X0037363Y0106768D01*
X0036399Y0107732D01*
X0035138Y0108254D01*
X0033774Y0108254D01*
X0032514Y0107732D01*
X0031549Y0106768D01*
X0031027Y0105507D01*
X0031027Y0104143D01*
X0031549Y0102883D01*
X0032514Y0101918D01*
X0033774Y0101396D01*
X0035138Y0101396D01*
X0036399Y0101918D01*
X0037009Y0102529D02*
X0037981Y0102529D01*
X0037981Y0103236D02*
X0037509Y0103236D01*
X0037802Y0103943D02*
X0037981Y0103943D01*
X0037981Y0104650D02*
X0037885Y0104650D01*
X0037885Y0105357D02*
X0037981Y0105357D01*
X0037981Y0106065D02*
X0037654Y0106065D01*
X0037359Y0106772D02*
X0037981Y0106772D01*
X0037981Y0107479D02*
X0036652Y0107479D01*
X0037981Y0108186D02*
X0035303Y0108186D01*
X0035138Y0109270D02*
X0033774Y0109270D01*
X0032514Y0109792D01*
X0031549Y0110757D01*
X0031027Y0112017D01*
X0031027Y0113381D01*
X0031549Y0114642D01*
X0032514Y0115606D01*
X0033774Y0116128D01*
X0035138Y0116128D01*
X0036399Y0115606D01*
X0037363Y0114642D01*
X0037885Y0113381D01*
X0037885Y0112017D01*
X0037363Y0110757D01*
X0036399Y0109792D01*
X0035138Y0109270D01*
X0035936Y0109600D02*
X0037981Y0109600D01*
X0037981Y0108893D02*
X0020230Y0108893D01*
X0020230Y0108186D02*
X0033609Y0108186D01*
X0032260Y0107479D02*
X0020230Y0107479D01*
X0020230Y0106772D02*
X0031553Y0106772D01*
X0031258Y0106065D02*
X0020230Y0106065D01*
X0020230Y0105357D02*
X0031027Y0105357D01*
X0031027Y0104650D02*
X0020230Y0104650D01*
X0020230Y0103943D02*
X0031110Y0103943D01*
X0031403Y0103236D02*
X0020230Y0103236D01*
X0020230Y0102529D02*
X0031903Y0102529D01*
X0032747Y0101822D02*
X0020230Y0101822D01*
X0020230Y0109600D02*
X0032977Y0109600D01*
X0031998Y0110308D02*
X0020230Y0110308D01*
X0020230Y0111015D02*
X0031442Y0111015D01*
X0031149Y0111722D02*
X0020230Y0111722D01*
X0020230Y0112429D02*
X0031027Y0112429D01*
X0031027Y0113136D02*
X0020230Y0113136D01*
X0020230Y0113843D02*
X0031218Y0113843D01*
X0031511Y0114551D02*
X0020230Y0114551D01*
X0020230Y0115258D02*
X0032165Y0115258D01*
X0033380Y0115965D02*
X0020230Y0115965D01*
X0020230Y0116672D02*
X0037981Y0116672D01*
X0037981Y0115965D02*
X0035533Y0115965D01*
X0036747Y0115258D02*
X0037981Y0115258D01*
X0037981Y0114551D02*
X0037401Y0114551D01*
X0037694Y0113843D02*
X0037981Y0113843D01*
X0037981Y0113136D02*
X0037885Y0113136D01*
X0037885Y0112429D02*
X0037981Y0112429D01*
X0037981Y0111722D02*
X0037763Y0111722D01*
X0037981Y0111015D02*
X0037470Y0111015D01*
X0037981Y0110308D02*
X0036914Y0110308D01*
X0040690Y0113136D02*
X0049936Y0113136D01*
X0049900Y0113843D02*
X0040690Y0113843D01*
X0040690Y0114551D02*
X0049900Y0114551D01*
X0049900Y0115258D02*
X0040690Y0115258D01*
X0040690Y0115965D02*
X0047695Y0115965D01*
X0047282Y0116672D02*
X0040690Y0116672D01*
X0040690Y0117379D02*
X0047282Y0117379D01*
X0047282Y0118086D02*
X0040690Y0118086D01*
X0040690Y0118794D02*
X0047282Y0118794D01*
X0047282Y0119501D02*
X0040690Y0119501D01*
X0040690Y0120208D02*
X0047282Y0120208D01*
X0047282Y0120915D02*
X0040690Y0120915D01*
X0040690Y0121622D02*
X0047282Y0121622D01*
X0047325Y0122330D02*
X0040690Y0122330D01*
X0040690Y0123037D02*
X0046838Y0123037D01*
X0046782Y0123744D02*
X0040690Y0123744D01*
X0040690Y0124451D02*
X0046782Y0124451D01*
X0046782Y0125158D02*
X0040690Y0125158D01*
X0040690Y0125865D02*
X0050734Y0125865D01*
X0050734Y0126573D02*
X0051443Y0126573D01*
X0051443Y0127280D02*
X0050734Y0127280D01*
X0050734Y0127987D02*
X0051443Y0127987D01*
X0051443Y0128694D02*
X0050734Y0128694D01*
X0050734Y0129401D02*
X0051443Y0129401D01*
X0052484Y0125865D02*
X0060825Y0125865D01*
X0060825Y0126573D02*
X0061534Y0126573D01*
X0061534Y0127280D02*
X0060825Y0127280D01*
X0060825Y0127987D02*
X0061534Y0127987D01*
X0061534Y0128694D02*
X0060825Y0128694D01*
X0060825Y0129401D02*
X0061534Y0129401D01*
X0061534Y0125865D02*
X0079294Y0125865D01*
X0079294Y0126573D02*
X0071705Y0126573D01*
X0071799Y0127280D02*
X0079294Y0127280D01*
X0079307Y0127987D02*
X0071799Y0127987D01*
X0071799Y0128694D02*
X0117624Y0128694D01*
X0117624Y0127987D02*
X0106222Y0127987D01*
X0106929Y0127280D02*
X0117825Y0127280D01*
X0118118Y0126573D02*
X0107636Y0126573D01*
X0108344Y0125865D02*
X0118785Y0125865D01*
X0120033Y0125158D02*
X0108403Y0125158D01*
X0106478Y0129401D02*
X0117737Y0129401D01*
X0118030Y0130108D02*
X0107185Y0130108D01*
X0107892Y0130816D02*
X0118572Y0130816D01*
X0119517Y0131523D02*
X0108599Y0131523D01*
X0108903Y0134351D02*
X0117624Y0134351D01*
X0117624Y0135059D02*
X0108903Y0135059D01*
X0108903Y0135766D02*
X0117624Y0135766D01*
X0117624Y0136473D02*
X0108443Y0136473D01*
X0107736Y0137180D02*
X0117624Y0137180D01*
X0117624Y0137887D02*
X0107029Y0137887D01*
X0106322Y0138594D02*
X0117624Y0138594D01*
X0117676Y0139302D02*
X0095203Y0139302D01*
X0095203Y0138594D02*
X0101375Y0138594D01*
X0100668Y0137887D02*
X0096322Y0137887D01*
X0097029Y0137180D02*
X0099961Y0137180D01*
X0099254Y0136473D02*
X0097736Y0136473D01*
X0098403Y0135766D02*
X0098794Y0135766D01*
X0098794Y0135059D02*
X0098403Y0135059D01*
X0098403Y0134351D02*
X0098794Y0134351D01*
X0103494Y0135059D02*
X0104203Y0135059D01*
X0104203Y0135766D02*
X0103494Y0135766D01*
X0103494Y0136473D02*
X0104203Y0136473D01*
X0104203Y0137180D02*
X0103494Y0137180D01*
X0103494Y0137887D02*
X0104203Y0137887D01*
X0104203Y0138594D02*
X0103494Y0138594D01*
X0103494Y0132937D02*
X0104203Y0132937D01*
X0104203Y0132230D02*
X0103494Y0132230D01*
X0103494Y0131523D02*
X0104203Y0131523D01*
X0104203Y0130816D02*
X0103494Y0130816D01*
X0103494Y0130108D02*
X0104203Y0130108D01*
X0104203Y0129401D02*
X0103494Y0129401D01*
X0098103Y0118794D02*
X0064987Y0118794D01*
X0064987Y0118086D02*
X0098989Y0118086D01*
X0077788Y0118086D01*
X0077775Y0117379D02*
X0099876Y0117379D01*
X0064987Y0117379D01*
X0064987Y0116672D02*
X0100762Y0116672D01*
X0077763Y0116672D01*
X0077750Y0115965D02*
X0101649Y0115965D01*
X0064582Y0115965D01*
X0054990Y0111015D02*
X0052114Y0111015D01*
X0052114Y0110308D02*
X0054990Y0110308D01*
X0053712Y0111722D02*
X0051643Y0111722D01*
X0046782Y0126573D02*
X0040690Y0126573D01*
X0040690Y0127280D02*
X0046782Y0127280D01*
X0046782Y0127987D02*
X0040690Y0127987D01*
X0040690Y0128694D02*
X0046782Y0128694D01*
X0047079Y0129401D02*
X0040690Y0129401D01*
X0037981Y0123744D02*
X0035762Y0123744D01*
X0036842Y0123037D02*
X0037981Y0123037D01*
X0037981Y0122330D02*
X0037440Y0122330D01*
X0037733Y0121622D02*
X0037981Y0121622D01*
X0037981Y0120915D02*
X0037885Y0120915D01*
X0037885Y0120208D02*
X0037981Y0120208D01*
X0037981Y0119501D02*
X0037724Y0119501D01*
X0037981Y0118794D02*
X0037431Y0118794D01*
X0037981Y0118086D02*
X0036819Y0118086D01*
X0035706Y0117379D02*
X0037981Y0117379D01*
X0033206Y0117379D02*
X0020230Y0117379D01*
X0020230Y0118086D02*
X0032093Y0118086D01*
X0031482Y0118794D02*
X0020230Y0118794D01*
X0020230Y0119501D02*
X0031189Y0119501D01*
X0031027Y0120208D02*
X0020230Y0120208D01*
X0020230Y0120915D02*
X0031027Y0120915D01*
X0031179Y0121622D02*
X0020230Y0121622D01*
X0020230Y0122330D02*
X0031472Y0122330D01*
X0032070Y0123037D02*
X0020230Y0123037D01*
X0071799Y0129401D02*
X0081926Y0129401D01*
X0081219Y0130108D02*
X0071799Y0130108D01*
X0072134Y0130816D02*
X0080512Y0130816D01*
X0079805Y0131523D02*
X0072619Y0131523D01*
X0072930Y0132230D02*
X0079294Y0132230D01*
X0079294Y0132937D02*
X0072880Y0132937D01*
X0072880Y0133644D02*
X0079294Y0133644D01*
X0079294Y0134351D02*
X0072880Y0134351D01*
X0072880Y0135059D02*
X0079294Y0135059D01*
X0079294Y0135766D02*
X0072880Y0135766D01*
X0072880Y0136473D02*
X0079961Y0136473D01*
X0080668Y0137180D02*
X0072880Y0137180D01*
X0072880Y0137887D02*
X0081375Y0137887D01*
X0077738Y0115258D02*
X0102535Y0115258D01*
X0103142Y0114551D02*
X0077725Y0114551D01*
X0077712Y0113843D02*
X0103142Y0113843D01*
X0103142Y0113136D02*
X0077700Y0113136D01*
X0077687Y0112429D02*
X0103206Y0112429D01*
X0095527Y0108893D02*
X0077624Y0108893D01*
X0077573Y0106065D02*
X0079436Y0106065D01*
X0079436Y0105357D02*
X0077561Y0105357D01*
X0077548Y0104650D02*
X0079436Y0104650D01*
X0079436Y0103943D02*
X0077536Y0103943D01*
X0077523Y0103236D02*
X0079436Y0103236D01*
X0079436Y0102529D02*
X0077510Y0102529D01*
X0077498Y0101822D02*
X0079146Y0101822D01*
X0078936Y0101114D02*
X0077485Y0101114D01*
X0077472Y0100407D02*
X0078936Y0100407D01*
X0078936Y0099700D02*
X0077460Y0099700D01*
X0077447Y0098993D02*
X0078936Y0098993D01*
X0087050Y0103236D02*
X0087203Y0103236D01*
X0087042Y0108186D02*
X0087005Y0108186D01*
X0077674Y0111722D02*
X0117746Y0111722D01*
X0117624Y0112429D02*
X0115298Y0112429D01*
X0115687Y0113136D02*
X0117624Y0113136D01*
X0117815Y0113843D02*
X0115687Y0113843D01*
X0115687Y0114551D02*
X0118108Y0114551D01*
X0118762Y0115258D02*
X0115687Y0115258D01*
X0115687Y0115965D02*
X0119977Y0115965D01*
X0115687Y0115965D01*
X0115687Y0116672D02*
X0126522Y0116672D01*
X0115687Y0116672D01*
X0115687Y0117379D02*
X0119803Y0117379D01*
X0115687Y0117379D01*
X0115457Y0118086D02*
X0118690Y0118086D01*
X0115457Y0118086D01*
X0123321Y0125865D02*
X0126522Y0125865D01*
X0126522Y0126573D02*
X0123988Y0126573D01*
X0124281Y0127280D02*
X0126522Y0127280D01*
X0126522Y0127987D02*
X0124482Y0127987D01*
X0124482Y0128694D02*
X0126522Y0128694D01*
X0126522Y0129401D02*
X0124370Y0129401D01*
X0124077Y0130108D02*
X0126522Y0130108D01*
X0126522Y0130816D02*
X0123534Y0130816D01*
X0122589Y0131523D02*
X0126522Y0131523D01*
D32*
X0105778Y0114628D03*
X0111071Y0099492D03*
X0089418Y0105791D03*
X0089242Y0086676D03*
X0077431Y0085494D03*
X0066407Y0092975D03*
X0057015Y0077512D03*
X0041998Y0061085D03*
X0059321Y0044550D03*
X0071132Y0044156D03*
X0088061Y0058329D03*
X0095541Y0053605D03*
X0104990Y0039431D03*
X0121526Y0048880D03*
X0121526Y0055573D03*
X0103022Y0071321D03*
X0086358Y0072482D03*
X0056347Y0113665D03*
X0049478Y0109117D03*
X0047238Y0101081D03*
X0069163Y0128802D03*
X0051447Y0134313D03*
X0041998Y0010298D03*
X0067195Y0010298D03*
D33*
X0073100Y0074471D02*
X0073140Y0074510D01*
X0077224Y0074510D01*
X0073100Y0074471D02*
X0073100Y0080991D01*
X0072407Y0090908D02*
X0072801Y0092975D01*
X0066407Y0092975D01*
X0062077Y0087857D02*
X0062077Y0099274D01*
X0058533Y0099274D01*
X0058533Y0104212D01*
X0062726Y0104212D01*
X0062637Y0104123D01*
X0062726Y0105787D02*
X0054269Y0105787D01*
X0053875Y0101260D01*
X0051841Y0105180D02*
X0049478Y0105180D01*
X0048026Y0102152D01*
X0047238Y0101081D01*
X0051841Y0105180D02*
X0052628Y0105967D01*
X0052630Y0106040D01*
X0052636Y0106113D01*
X0052645Y0106185D01*
X0052658Y0106257D01*
X0052676Y0106328D01*
X0052696Y0106398D01*
X0052721Y0106467D01*
X0052749Y0106534D01*
X0052780Y0106600D01*
X0052815Y0106665D01*
X0052853Y0106727D01*
X0052894Y0106787D01*
X0052939Y0106845D01*
X0052986Y0106900D01*
X0053037Y0106953D01*
X0053090Y0107004D01*
X0053145Y0107051D01*
X0053203Y0107096D01*
X0053263Y0107137D01*
X0053326Y0107175D01*
X0053390Y0107210D01*
X0053456Y0107241D01*
X0053523Y0107269D01*
X0053592Y0107294D01*
X0053662Y0107314D01*
X0053733Y0107332D01*
X0053805Y0107345D01*
X0053877Y0107354D01*
X0053950Y0107360D01*
X0054023Y0107362D01*
X0062726Y0107362D01*
X0062710Y0107378D01*
X0062726Y0108937D02*
X0049478Y0108937D01*
X0049478Y0109117D01*
X0051089Y0113665D02*
X0051089Y0119291D01*
X0051089Y0113665D02*
X0056347Y0113665D01*
X0061244Y0113665D01*
X0061180Y0119283D01*
X0056347Y0113665D02*
X0056347Y0110511D01*
X0062726Y0110511D01*
X0069813Y0110511D02*
X0069816Y0110509D01*
X0075903Y0110509D01*
X0077136Y0110457D01*
X0093763Y0110457D01*
X0089418Y0105791D02*
X0089024Y0105648D01*
X0082062Y0105648D01*
X0083243Y0105228D01*
X0082062Y0107362D01*
X0069813Y0107362D01*
X0069813Y0108937D02*
X0077645Y0108937D01*
X0077680Y0105787D02*
X0069813Y0105787D01*
X0069813Y0104212D02*
X0077680Y0104212D01*
X0089024Y0105648D02*
X0095782Y0102105D01*
X0103684Y0098961D02*
X0103700Y0099220D01*
X0103710Y0099479D01*
X0103713Y0099738D01*
X0103710Y0099998D01*
X0103701Y0100257D01*
X0103685Y0100516D01*
X0103664Y0100775D01*
X0103636Y0101033D01*
X0103602Y0101290D01*
X0103561Y0101546D01*
X0103515Y0101802D01*
X0103462Y0102056D01*
X0103403Y0102308D01*
X0103338Y0102560D01*
X0103267Y0102809D01*
X0103190Y0103057D01*
X0103107Y0103303D01*
X0103019Y0103547D01*
X0102924Y0103788D01*
X0102823Y0104028D01*
X0102717Y0104264D01*
X0102605Y0104498D01*
X0102487Y0104730D01*
X0102364Y0104958D01*
X0102236Y0105183D01*
X0102102Y0105406D01*
X0101962Y0105625D01*
X0101818Y0105840D01*
X0101668Y0106052D01*
X0101513Y0106260D01*
X0101353Y0106464D01*
X0101188Y0106665D01*
X0101019Y0106861D01*
X0100845Y0107054D01*
X0100666Y0107242D01*
X0100482Y0107425D01*
X0100295Y0107605D01*
X0100103Y0107779D01*
X0099907Y0107949D01*
X0099706Y0108114D01*
X0099502Y0108274D01*
X0099294Y0108430D01*
X0099083Y0108580D01*
X0098868Y0108725D01*
X0098649Y0108865D01*
X0098427Y0108999D01*
X0098202Y0109128D01*
X0097974Y0109252D01*
X0097743Y0109370D01*
X0097509Y0109482D01*
X0097272Y0109589D01*
X0097033Y0109690D01*
X0096792Y0109785D01*
X0096548Y0109874D01*
X0096302Y0109957D01*
X0096055Y0110035D01*
X0095805Y0110106D01*
X0095554Y0110172D01*
X0095301Y0110231D01*
X0095047Y0110284D01*
X0094792Y0110331D01*
X0094536Y0110372D01*
X0094279Y0110407D01*
X0094021Y0110435D01*
X0093762Y0110457D01*
X0103684Y0098960D02*
X0104502Y0098143D01*
X0104502Y0091588D01*
X0098848Y0085935D01*
X0098848Y0080387D01*
X0095767Y0090938D02*
X0095782Y0092817D01*
X0095782Y0094231D01*
X0111071Y0092893D02*
X0111071Y0099492D01*
X0111071Y0092893D02*
X0112376Y0091588D01*
X0062470Y0076915D02*
X0062470Y0076833D01*
X0062470Y0076915D02*
X0057015Y0077512D01*
X0055425Y0077217D01*
X0049734Y0077865D01*
D34*
X0062470Y0076833D02*
X0062470Y0071046D01*
X0062392Y0070967D01*
X0062470Y0076833D02*
X0062864Y0077227D01*
X0063376Y0077227D02*
X0063376Y0077439D01*
X0063376Y0077227D02*
X0068770Y0077227D01*
X0068691Y0077148D02*
X0068691Y0070967D01*
X0068691Y0062306D02*
X0073809Y0055613D01*
X0077224Y0055613D01*
X0077224Y0058762D02*
X0087628Y0058762D01*
X0088061Y0058329D01*
X0088061Y0065022D01*
X0088022Y0065061D01*
X0077224Y0065061D01*
X0077224Y0052463D02*
X0069911Y0052463D01*
X0070398Y0051304D01*
X0063809Y0052778D02*
X0063809Y0049038D01*
X0059321Y0044550D01*
X0059833Y0044038D01*
X0059833Y0034195D01*
X0064833Y0034195D02*
X0064833Y0038644D01*
X0071132Y0044156D01*
X0074833Y0037817D02*
X0069833Y0024865D01*
X0038848Y0024865D01*
X0028809Y0031243D01*
X0028809Y0039117D02*
X0044833Y0039117D01*
X0044833Y0034195D01*
X0049833Y0034195D02*
X0049833Y0046872D01*
X0049242Y0046872D01*
X0049242Y0052778D01*
X0055935Y0052778D01*
X0074833Y0037817D02*
X0090896Y0037817D01*
X0090896Y0032620D01*
X0090896Y0032739D01*
X0100659Y0032739D01*
X0100659Y0027739D01*
X0107156Y0027739D01*
X0107156Y0027109D02*
X0113258Y0027109D01*
X0113258Y0041794D01*
X0121526Y0048880D02*
X0117156Y0052463D01*
X0111024Y0052463D01*
X0111024Y0055613D02*
X0121526Y0055613D01*
X0121526Y0055573D01*
X0120187Y0027109D02*
X0113258Y0027109D01*
X0090896Y0025140D02*
X0088258Y0025140D01*
X0088258Y0017266D01*
X0088192Y0017264D01*
X0088126Y0017259D01*
X0088060Y0017249D01*
X0087995Y0017236D01*
X0087931Y0017220D01*
X0087868Y0017200D01*
X0087806Y0017176D01*
X0087746Y0017149D01*
X0087687Y0017119D01*
X0087630Y0017085D01*
X0087575Y0017048D01*
X0087522Y0017008D01*
X0087471Y0016966D01*
X0087423Y0016920D01*
X0087377Y0016872D01*
X0087335Y0016821D01*
X0087295Y0016768D01*
X0087258Y0016713D01*
X0087224Y0016656D01*
X0087194Y0016597D01*
X0087167Y0016537D01*
X0087143Y0016475D01*
X0087123Y0016412D01*
X0087107Y0016348D01*
X0087094Y0016283D01*
X0087084Y0016217D01*
X0087079Y0016151D01*
X0087077Y0016085D01*
X0087077Y0008487D01*
X0076486Y0016951D02*
X0076486Y0025140D01*
X0080659Y0025140D01*
X0111071Y0099492D02*
X0111071Y0102817D01*
X0112077Y0107463D01*
X0112077Y0115337D02*
X0111683Y0116085D01*
X0103848Y0123920D01*
M02*
