G75*
%MOIN*%
%OFA0B0*%
%FSLAX25Y25*%
%IPPOS*%
%LPD*%
%AMOC8*
5,1,8,0,0,1.08239X$1,22.5*
%
%ADD10C,0.01000*%
%ADD11R,0.06306X0.05518*%
%ADD12R,0.05518X0.06306*%
%ADD13R,0.05124X0.02565*%
%ADD14R,0.07800X0.07800*%
%ADD15OC8,0.07800*%
%ADD16C,0.05400*%
%ADD17R,0.04731X0.05912*%
%ADD18R,0.05912X0.04731*%
%ADD19R,0.04337X0.05912*%
%ADD20R,0.05400X0.02600*%
%ADD21R,0.02600X0.05400*%
%ADD22R,0.02762X0.09061*%
%ADD23R,0.14180X0.09061*%
%ADD24R,0.05550X0.05550*%
%ADD25C,0.05550*%
%ADD26C,0.06699*%
%ADD27C,0.06000*%
%ADD28C,0.10400*%
%ADD29R,0.02762X0.01286*%
D10*
X0018376Y0007817D02*
X0018376Y0142817D01*
X0018378Y0142957D01*
X0018384Y0143097D01*
X0018394Y0143237D01*
X0018407Y0143377D01*
X0018425Y0143516D01*
X0018447Y0143655D01*
X0018472Y0143792D01*
X0018501Y0143930D01*
X0018534Y0144066D01*
X0018571Y0144201D01*
X0018612Y0144335D01*
X0018657Y0144468D01*
X0018705Y0144600D01*
X0018757Y0144730D01*
X0018812Y0144859D01*
X0018871Y0144986D01*
X0018934Y0145112D01*
X0019000Y0145236D01*
X0019069Y0145357D01*
X0019142Y0145477D01*
X0019219Y0145595D01*
X0019298Y0145710D01*
X0019381Y0145824D01*
X0019467Y0145934D01*
X0019556Y0146043D01*
X0019648Y0146149D01*
X0019743Y0146252D01*
X0019840Y0146353D01*
X0019941Y0146450D01*
X0020044Y0146545D01*
X0020150Y0146637D01*
X0020259Y0146726D01*
X0020369Y0146812D01*
X0020483Y0146895D01*
X0020598Y0146974D01*
X0020716Y0147051D01*
X0020836Y0147124D01*
X0020957Y0147193D01*
X0021081Y0147259D01*
X0021207Y0147322D01*
X0021334Y0147381D01*
X0021463Y0147436D01*
X0021593Y0147488D01*
X0021725Y0147536D01*
X0021858Y0147581D01*
X0021992Y0147622D01*
X0022127Y0147659D01*
X0022263Y0147692D01*
X0022401Y0147721D01*
X0022538Y0147746D01*
X0022677Y0147768D01*
X0022816Y0147786D01*
X0022956Y0147799D01*
X0023096Y0147809D01*
X0023236Y0147815D01*
X0023376Y0147817D01*
X0123376Y0147817D01*
X0123516Y0147815D01*
X0123656Y0147809D01*
X0123796Y0147799D01*
X0123936Y0147786D01*
X0124075Y0147768D01*
X0124214Y0147746D01*
X0124351Y0147721D01*
X0124489Y0147692D01*
X0124625Y0147659D01*
X0124760Y0147622D01*
X0124894Y0147581D01*
X0125027Y0147536D01*
X0125159Y0147488D01*
X0125289Y0147436D01*
X0125418Y0147381D01*
X0125545Y0147322D01*
X0125671Y0147259D01*
X0125795Y0147193D01*
X0125916Y0147124D01*
X0126036Y0147051D01*
X0126154Y0146974D01*
X0126269Y0146895D01*
X0126383Y0146812D01*
X0126493Y0146726D01*
X0126602Y0146637D01*
X0126708Y0146545D01*
X0126811Y0146450D01*
X0126912Y0146353D01*
X0127009Y0146252D01*
X0127104Y0146149D01*
X0127196Y0146043D01*
X0127285Y0145934D01*
X0127371Y0145824D01*
X0127454Y0145710D01*
X0127533Y0145595D01*
X0127610Y0145477D01*
X0127683Y0145357D01*
X0127752Y0145236D01*
X0127818Y0145112D01*
X0127881Y0144986D01*
X0127940Y0144859D01*
X0127995Y0144730D01*
X0128047Y0144600D01*
X0128095Y0144468D01*
X0128140Y0144335D01*
X0128181Y0144201D01*
X0128218Y0144066D01*
X0128251Y0143930D01*
X0128280Y0143792D01*
X0128305Y0143655D01*
X0128327Y0143516D01*
X0128345Y0143377D01*
X0128358Y0143237D01*
X0128368Y0143097D01*
X0128374Y0142957D01*
X0128376Y0142817D01*
X0128376Y0007817D01*
X0128374Y0007677D01*
X0128368Y0007537D01*
X0128358Y0007397D01*
X0128345Y0007257D01*
X0128327Y0007118D01*
X0128305Y0006979D01*
X0128280Y0006842D01*
X0128251Y0006704D01*
X0128218Y0006568D01*
X0128181Y0006433D01*
X0128140Y0006299D01*
X0128095Y0006166D01*
X0128047Y0006034D01*
X0127995Y0005904D01*
X0127940Y0005775D01*
X0127881Y0005648D01*
X0127818Y0005522D01*
X0127752Y0005398D01*
X0127683Y0005277D01*
X0127610Y0005157D01*
X0127533Y0005039D01*
X0127454Y0004924D01*
X0127371Y0004810D01*
X0127285Y0004700D01*
X0127196Y0004591D01*
X0127104Y0004485D01*
X0127009Y0004382D01*
X0126912Y0004281D01*
X0126811Y0004184D01*
X0126708Y0004089D01*
X0126602Y0003997D01*
X0126493Y0003908D01*
X0126383Y0003822D01*
X0126269Y0003739D01*
X0126154Y0003660D01*
X0126036Y0003583D01*
X0125916Y0003510D01*
X0125795Y0003441D01*
X0125671Y0003375D01*
X0125545Y0003312D01*
X0125418Y0003253D01*
X0125289Y0003198D01*
X0125159Y0003146D01*
X0125027Y0003098D01*
X0124894Y0003053D01*
X0124760Y0003012D01*
X0124625Y0002975D01*
X0124489Y0002942D01*
X0124351Y0002913D01*
X0124214Y0002888D01*
X0124075Y0002866D01*
X0123936Y0002848D01*
X0123796Y0002835D01*
X0123656Y0002825D01*
X0123516Y0002819D01*
X0123376Y0002817D01*
X0023376Y0002817D01*
X0023236Y0002819D01*
X0023096Y0002825D01*
X0022956Y0002835D01*
X0022816Y0002848D01*
X0022677Y0002866D01*
X0022538Y0002888D01*
X0022401Y0002913D01*
X0022263Y0002942D01*
X0022127Y0002975D01*
X0021992Y0003012D01*
X0021858Y0003053D01*
X0021725Y0003098D01*
X0021593Y0003146D01*
X0021463Y0003198D01*
X0021334Y0003253D01*
X0021207Y0003312D01*
X0021081Y0003375D01*
X0020957Y0003441D01*
X0020836Y0003510D01*
X0020716Y0003583D01*
X0020598Y0003660D01*
X0020483Y0003739D01*
X0020369Y0003822D01*
X0020259Y0003908D01*
X0020150Y0003997D01*
X0020044Y0004089D01*
X0019941Y0004184D01*
X0019840Y0004281D01*
X0019743Y0004382D01*
X0019648Y0004485D01*
X0019556Y0004591D01*
X0019467Y0004700D01*
X0019381Y0004810D01*
X0019298Y0004924D01*
X0019219Y0005039D01*
X0019142Y0005157D01*
X0019069Y0005277D01*
X0019000Y0005398D01*
X0018934Y0005522D01*
X0018871Y0005648D01*
X0018812Y0005775D01*
X0018757Y0005904D01*
X0018705Y0006034D01*
X0018657Y0006166D01*
X0018612Y0006299D01*
X0018571Y0006433D01*
X0018534Y0006568D01*
X0018501Y0006704D01*
X0018472Y0006842D01*
X0018447Y0006979D01*
X0018425Y0007118D01*
X0018407Y0007257D01*
X0018394Y0007397D01*
X0018384Y0007537D01*
X0018378Y0007677D01*
X0018376Y0007817D01*
D11*
X0049734Y0071172D03*
X0049734Y0077865D03*
X0053875Y0094567D03*
X0053875Y0101260D03*
X0051089Y0119291D03*
X0051089Y0125984D03*
X0061180Y0125976D03*
X0061180Y0119283D03*
X0083243Y0105228D03*
X0083243Y0098535D03*
X0107156Y0027739D03*
X0107156Y0021046D03*
D12*
X0094951Y0017266D03*
X0088258Y0017266D03*
D13*
X0090896Y0025140D03*
X0090896Y0032620D03*
X0080659Y0032620D03*
X0080659Y0028880D03*
X0080659Y0025140D03*
D14*
X0083848Y0123920D03*
D15*
X0083848Y0133920D03*
X0093848Y0133920D03*
X0093848Y0123920D03*
X0103848Y0123920D03*
X0103848Y0133920D03*
D16*
X0103684Y0098960D03*
X0072407Y0090908D03*
X0070398Y0051304D03*
X0076486Y0016951D03*
X0023809Y0060020D03*
D17*
X0041368Y0046872D03*
X0049242Y0046872D03*
X0055935Y0052778D03*
X0063809Y0052778D03*
X0104502Y0091588D03*
X0112376Y0091588D03*
D18*
X0112077Y0107463D03*
X0112077Y0115337D03*
X0095782Y0102105D03*
X0095782Y0094231D03*
D19*
X0068691Y0070967D03*
X0062392Y0070967D03*
X0062392Y0062306D03*
X0068691Y0062306D03*
D20*
X0077224Y0061912D03*
X0077224Y0065061D03*
X0077224Y0068211D03*
X0077224Y0071361D03*
X0077224Y0074510D03*
X0077224Y0058762D03*
X0077224Y0055613D03*
X0077224Y0052463D03*
X0111024Y0052463D03*
X0111024Y0055613D03*
X0111024Y0058762D03*
X0111024Y0061912D03*
X0111024Y0065061D03*
X0111024Y0068211D03*
X0111024Y0071361D03*
X0111024Y0074510D03*
D21*
X0105148Y0080387D03*
X0101998Y0080387D03*
X0098848Y0080387D03*
X0095699Y0080387D03*
X0092549Y0080387D03*
X0089400Y0080387D03*
X0086250Y0080387D03*
X0083100Y0080387D03*
X0083100Y0046587D03*
X0086250Y0046587D03*
X0089400Y0046587D03*
X0092549Y0046587D03*
X0095699Y0046587D03*
X0098848Y0046587D03*
X0101998Y0046587D03*
X0105148Y0046587D03*
D22*
X0064833Y0034195D03*
X0059833Y0034195D03*
X0054833Y0034195D03*
X0049833Y0034195D03*
X0044833Y0034195D03*
D23*
X0054833Y0009786D03*
D24*
X0034456Y0136321D03*
X0121053Y0136321D03*
D25*
X0121053Y0128447D03*
X0121053Y0120573D03*
X0121053Y0112699D03*
X0121053Y0104825D03*
X0121053Y0096951D03*
X0121053Y0089077D03*
X0121053Y0081203D03*
X0121053Y0073329D03*
X0121053Y0065455D03*
X0034456Y0065455D03*
X0034456Y0073329D03*
X0034456Y0081203D03*
X0034456Y0089077D03*
X0034456Y0096951D03*
X0034456Y0104825D03*
X0034456Y0112699D03*
X0034456Y0120573D03*
X0034456Y0128447D03*
D26*
X0120187Y0034983D03*
X0120187Y0027109D03*
X0094951Y0008487D03*
X0087077Y0008487D03*
D27*
X0028809Y0023762D03*
X0028809Y0031243D03*
X0028809Y0039117D03*
D28*
X0028809Y0050140D03*
X0028809Y0012345D03*
D29*
X0062726Y0104212D03*
X0062726Y0105787D03*
X0062726Y0107362D03*
X0062726Y0108937D03*
X0062726Y0110511D03*
X0069813Y0110511D03*
X0069813Y0108937D03*
X0069813Y0107362D03*
X0069813Y0105787D03*
X0069813Y0104212D03*
M02*
