G75*
%MOIN*%
%OFA0B0*%
%FSLAX25Y25*%
%IPPOS*%
%LPD*%
%AMOC8*
5,1,8,0,0,1.08239X$1,22.5*
%
%ADD10C,0.01000*%
%ADD11R,0.07400X0.07400*%
%ADD12OC8,0.07400*%
%ADD13R,0.05150X0.05150*%
%ADD14C,0.05150*%
%ADD15C,0.06299*%
%ADD16C,0.05600*%
%ADD17C,0.10000*%
%ADD18R,0.03562X0.03562*%
%ADD19C,0.01600*%
%ADD20C,0.00669*%
%ADD21C,0.01200*%
D10*
X0018376Y0007817D02*
X0018376Y0142817D01*
X0018378Y0142957D01*
X0018384Y0143097D01*
X0018394Y0143237D01*
X0018407Y0143377D01*
X0018425Y0143516D01*
X0018447Y0143655D01*
X0018472Y0143792D01*
X0018501Y0143930D01*
X0018534Y0144066D01*
X0018571Y0144201D01*
X0018612Y0144335D01*
X0018657Y0144468D01*
X0018705Y0144600D01*
X0018757Y0144730D01*
X0018812Y0144859D01*
X0018871Y0144986D01*
X0018934Y0145112D01*
X0019000Y0145236D01*
X0019069Y0145357D01*
X0019142Y0145477D01*
X0019219Y0145595D01*
X0019298Y0145710D01*
X0019381Y0145824D01*
X0019467Y0145934D01*
X0019556Y0146043D01*
X0019648Y0146149D01*
X0019743Y0146252D01*
X0019840Y0146353D01*
X0019941Y0146450D01*
X0020044Y0146545D01*
X0020150Y0146637D01*
X0020259Y0146726D01*
X0020369Y0146812D01*
X0020483Y0146895D01*
X0020598Y0146974D01*
X0020716Y0147051D01*
X0020836Y0147124D01*
X0020957Y0147193D01*
X0021081Y0147259D01*
X0021207Y0147322D01*
X0021334Y0147381D01*
X0021463Y0147436D01*
X0021593Y0147488D01*
X0021725Y0147536D01*
X0021858Y0147581D01*
X0021992Y0147622D01*
X0022127Y0147659D01*
X0022263Y0147692D01*
X0022401Y0147721D01*
X0022538Y0147746D01*
X0022677Y0147768D01*
X0022816Y0147786D01*
X0022956Y0147799D01*
X0023096Y0147809D01*
X0023236Y0147815D01*
X0023376Y0147817D01*
X0123376Y0147817D01*
X0123516Y0147815D01*
X0123656Y0147809D01*
X0123796Y0147799D01*
X0123936Y0147786D01*
X0124075Y0147768D01*
X0124214Y0147746D01*
X0124351Y0147721D01*
X0124489Y0147692D01*
X0124625Y0147659D01*
X0124760Y0147622D01*
X0124894Y0147581D01*
X0125027Y0147536D01*
X0125159Y0147488D01*
X0125289Y0147436D01*
X0125418Y0147381D01*
X0125545Y0147322D01*
X0125671Y0147259D01*
X0125795Y0147193D01*
X0125916Y0147124D01*
X0126036Y0147051D01*
X0126154Y0146974D01*
X0126269Y0146895D01*
X0126383Y0146812D01*
X0126493Y0146726D01*
X0126602Y0146637D01*
X0126708Y0146545D01*
X0126811Y0146450D01*
X0126912Y0146353D01*
X0127009Y0146252D01*
X0127104Y0146149D01*
X0127196Y0146043D01*
X0127285Y0145934D01*
X0127371Y0145824D01*
X0127454Y0145710D01*
X0127533Y0145595D01*
X0127610Y0145477D01*
X0127683Y0145357D01*
X0127752Y0145236D01*
X0127818Y0145112D01*
X0127881Y0144986D01*
X0127940Y0144859D01*
X0127995Y0144730D01*
X0128047Y0144600D01*
X0128095Y0144468D01*
X0128140Y0144335D01*
X0128181Y0144201D01*
X0128218Y0144066D01*
X0128251Y0143930D01*
X0128280Y0143792D01*
X0128305Y0143655D01*
X0128327Y0143516D01*
X0128345Y0143377D01*
X0128358Y0143237D01*
X0128368Y0143097D01*
X0128374Y0142957D01*
X0128376Y0142817D01*
X0128376Y0007817D01*
X0128374Y0007677D01*
X0128368Y0007537D01*
X0128358Y0007397D01*
X0128345Y0007257D01*
X0128327Y0007118D01*
X0128305Y0006979D01*
X0128280Y0006842D01*
X0128251Y0006704D01*
X0128218Y0006568D01*
X0128181Y0006433D01*
X0128140Y0006299D01*
X0128095Y0006166D01*
X0128047Y0006034D01*
X0127995Y0005904D01*
X0127940Y0005775D01*
X0127881Y0005648D01*
X0127818Y0005522D01*
X0127752Y0005398D01*
X0127683Y0005277D01*
X0127610Y0005157D01*
X0127533Y0005039D01*
X0127454Y0004924D01*
X0127371Y0004810D01*
X0127285Y0004700D01*
X0127196Y0004591D01*
X0127104Y0004485D01*
X0127009Y0004382D01*
X0126912Y0004281D01*
X0126811Y0004184D01*
X0126708Y0004089D01*
X0126602Y0003997D01*
X0126493Y0003908D01*
X0126383Y0003822D01*
X0126269Y0003739D01*
X0126154Y0003660D01*
X0126036Y0003583D01*
X0125916Y0003510D01*
X0125795Y0003441D01*
X0125671Y0003375D01*
X0125545Y0003312D01*
X0125418Y0003253D01*
X0125289Y0003198D01*
X0125159Y0003146D01*
X0125027Y0003098D01*
X0124894Y0003053D01*
X0124760Y0003012D01*
X0124625Y0002975D01*
X0124489Y0002942D01*
X0124351Y0002913D01*
X0124214Y0002888D01*
X0124075Y0002866D01*
X0123936Y0002848D01*
X0123796Y0002835D01*
X0123656Y0002825D01*
X0123516Y0002819D01*
X0123376Y0002817D01*
X0023376Y0002817D01*
X0023236Y0002819D01*
X0023096Y0002825D01*
X0022956Y0002835D01*
X0022816Y0002848D01*
X0022677Y0002866D01*
X0022538Y0002888D01*
X0022401Y0002913D01*
X0022263Y0002942D01*
X0022127Y0002975D01*
X0021992Y0003012D01*
X0021858Y0003053D01*
X0021725Y0003098D01*
X0021593Y0003146D01*
X0021463Y0003198D01*
X0021334Y0003253D01*
X0021207Y0003312D01*
X0021081Y0003375D01*
X0020957Y0003441D01*
X0020836Y0003510D01*
X0020716Y0003583D01*
X0020598Y0003660D01*
X0020483Y0003739D01*
X0020369Y0003822D01*
X0020259Y0003908D01*
X0020150Y0003997D01*
X0020044Y0004089D01*
X0019941Y0004184D01*
X0019840Y0004281D01*
X0019743Y0004382D01*
X0019648Y0004485D01*
X0019556Y0004591D01*
X0019467Y0004700D01*
X0019381Y0004810D01*
X0019298Y0004924D01*
X0019219Y0005039D01*
X0019142Y0005157D01*
X0019069Y0005277D01*
X0019000Y0005398D01*
X0018934Y0005522D01*
X0018871Y0005648D01*
X0018812Y0005775D01*
X0018757Y0005904D01*
X0018705Y0006034D01*
X0018657Y0006166D01*
X0018612Y0006299D01*
X0018571Y0006433D01*
X0018534Y0006568D01*
X0018501Y0006704D01*
X0018472Y0006842D01*
X0018447Y0006979D01*
X0018425Y0007118D01*
X0018407Y0007257D01*
X0018394Y0007397D01*
X0018384Y0007537D01*
X0018378Y0007677D01*
X0018376Y0007817D01*
X0056565Y0050849D02*
X0041998Y0061085D01*
X0056565Y0050849D02*
X0084124Y0050849D01*
X0095541Y0039431D01*
X0104990Y0039431D01*
X0114833Y0048487D02*
X0109715Y0062266D01*
X0107746Y0062266D01*
X0107746Y0076046D01*
X0105778Y0076046D01*
X0105778Y0114628D01*
X0103848Y0119353D02*
X0098691Y0116164D01*
X0098691Y0101636D01*
X0103022Y0101636D01*
X0103022Y0071321D01*
X0095541Y0065022D02*
X0093179Y0065022D01*
X0093179Y0115022D01*
X0078612Y0116597D01*
X0070344Y0124865D01*
X0069163Y0128802D01*
X0075069Y0126439D02*
X0077589Y0123920D01*
X0083848Y0123920D01*
X0075069Y0126439D02*
X0075069Y0134313D01*
X0051447Y0134313D01*
X0036307Y0120573D02*
X0040516Y0116365D01*
X0040516Y0094489D01*
X0042605Y0089250D01*
X0061845Y0089250D01*
X0075158Y0079480D01*
X0075158Y0072482D01*
X0086358Y0072482D01*
X0095541Y0065022D02*
X0095541Y0053605D01*
X0114833Y0048487D02*
X0117589Y0048487D01*
X0121526Y0048880D01*
X0089242Y0086676D02*
X0089242Y0094156D01*
X0079006Y0094156D01*
X0079006Y0094550D02*
X0073888Y0099668D01*
X0073888Y0115022D01*
X0067589Y0121321D01*
X0036307Y0120573D02*
X0034456Y0120573D01*
D11*
X0083848Y0123920D03*
D12*
X0083848Y0133920D03*
X0093848Y0133920D03*
X0093848Y0123920D03*
X0103848Y0123920D03*
X0103848Y0133920D03*
D13*
X0121053Y0136321D03*
X0034456Y0136321D03*
D14*
X0034456Y0128447D03*
X0034456Y0120573D03*
X0034456Y0112699D03*
X0034456Y0104825D03*
X0034456Y0096951D03*
X0034456Y0089077D03*
X0034456Y0081203D03*
X0034456Y0073329D03*
X0034456Y0065455D03*
X0121053Y0065455D03*
X0121053Y0073329D03*
X0121053Y0081203D03*
X0121053Y0089077D03*
X0121053Y0096951D03*
X0121053Y0104825D03*
X0121053Y0112699D03*
X0121053Y0120573D03*
X0121053Y0128447D03*
D15*
X0120187Y0034983D03*
X0120187Y0027109D03*
X0094951Y0008487D03*
X0087077Y0008487D03*
D16*
X0028809Y0023762D03*
X0028809Y0031243D03*
X0028809Y0039117D03*
D17*
X0028809Y0050140D03*
X0028809Y0012345D03*
D18*
X0041998Y0010298D03*
X0067195Y0010298D03*
X0071132Y0044156D03*
X0059321Y0044550D03*
X0041998Y0061085D03*
X0057015Y0077512D03*
X0066407Y0092975D03*
X0077431Y0085494D03*
X0089242Y0086676D03*
X0086358Y0072482D03*
X0088061Y0058329D03*
X0095541Y0053605D03*
X0104990Y0039431D03*
X0121526Y0048880D03*
X0121526Y0055573D03*
X0103022Y0071321D03*
X0111071Y0099492D03*
X0105778Y0114628D03*
X0089418Y0105791D03*
X0069163Y0128802D03*
X0056347Y0113665D03*
X0049478Y0109117D03*
X0047238Y0101081D03*
X0051447Y0134313D03*
D19*
X0054528Y0132513D02*
X0073269Y0132513D01*
X0073269Y0125694D01*
X0075789Y0123174D01*
X0076843Y0122120D01*
X0078848Y0122120D01*
X0078848Y0119681D01*
X0079610Y0118920D01*
X0088087Y0118920D01*
X0088848Y0119681D01*
X0088848Y0128158D01*
X0088087Y0128920D01*
X0086627Y0128920D01*
X0089202Y0131495D01*
X0091777Y0128920D01*
X0095919Y0128920D01*
X0098848Y0131849D01*
X0098848Y0135991D01*
X0095919Y0138920D01*
X0091777Y0138920D01*
X0089202Y0136344D01*
X0086127Y0139420D01*
X0084048Y0139420D01*
X0084048Y0134120D01*
X0083648Y0134120D01*
X0083648Y0133720D01*
X0078348Y0133720D01*
X0078348Y0131642D01*
X0081070Y0128920D01*
X0079610Y0128920D01*
X0078848Y0128158D01*
X0078848Y0125720D01*
X0078334Y0125720D01*
X0076869Y0127185D01*
X0076869Y0135059D01*
X0075814Y0136113D01*
X0054528Y0136113D01*
X0054528Y0136633D01*
X0053766Y0137394D01*
X0049127Y0137394D01*
X0048366Y0136633D01*
X0048366Y0131994D01*
X0049127Y0131232D01*
X0053766Y0131232D01*
X0054528Y0131994D01*
X0054528Y0132513D01*
X0054528Y0132297D02*
X0073269Y0132297D01*
X0072244Y0131121D02*
X0071483Y0131883D01*
X0066844Y0131883D01*
X0066082Y0131121D01*
X0066082Y0126482D01*
X0066844Y0125720D01*
X0068208Y0125720D01*
X0068544Y0124600D01*
X0068544Y0124119D01*
X0068751Y0123913D01*
X0068835Y0123633D01*
X0069258Y0123405D01*
X0077271Y0115393D01*
X0077677Y0114887D01*
X0077788Y0114875D01*
X0077867Y0114797D01*
X0078515Y0114797D01*
X0091379Y0113406D01*
X0091379Y0089757D01*
X0091042Y0089757D01*
X0091042Y0094901D01*
X0089988Y0095956D01*
X0080287Y0095956D01*
X0079793Y0096450D01*
X0079651Y0096450D01*
X0075688Y0100413D01*
X0075688Y0115768D01*
X0069489Y0121967D01*
X0069489Y0122108D01*
X0068376Y0123221D01*
X0040748Y0123221D01*
X0040748Y0129234D01*
X0039635Y0130347D01*
X0037863Y0130347D01*
X0037741Y0130642D01*
X0036651Y0131732D01*
X0036134Y0131946D01*
X0037268Y0131946D01*
X0037726Y0132069D01*
X0038136Y0132306D01*
X0038471Y0132641D01*
X0038708Y0133052D01*
X0038831Y0133509D01*
X0038831Y0136321D01*
X0034456Y0136321D01*
X0030081Y0136321D01*
X0030081Y0133509D01*
X0030204Y0133052D01*
X0030441Y0132641D01*
X0030776Y0132306D01*
X0031187Y0132069D01*
X0031644Y0131946D01*
X0032779Y0131946D01*
X0032261Y0131732D01*
X0031171Y0130642D01*
X0030581Y0129218D01*
X0030581Y0127676D01*
X0031171Y0126252D01*
X0032261Y0125162D01*
X0033685Y0124572D01*
X0035227Y0124572D01*
X0036651Y0125162D01*
X0036948Y0125460D01*
X0036948Y0123561D01*
X0036651Y0123858D01*
X0035227Y0124448D01*
X0033685Y0124448D01*
X0032261Y0123858D01*
X0031171Y0122768D01*
X0030581Y0121344D01*
X0030581Y0119802D01*
X0031171Y0118378D01*
X0032261Y0117288D01*
X0033685Y0116698D01*
X0035227Y0116698D01*
X0036651Y0117288D01*
X0036849Y0117486D01*
X0038716Y0115619D01*
X0038716Y0094859D01*
X0038568Y0094515D01*
X0038716Y0094143D01*
X0038716Y0093743D01*
X0038981Y0093478D01*
X0040805Y0088904D01*
X0040805Y0088504D01*
X0041071Y0088239D01*
X0041210Y0087890D01*
X0041577Y0087732D01*
X0041860Y0087450D01*
X0042235Y0087450D01*
X0042580Y0087301D01*
X0042951Y0087450D01*
X0061256Y0087450D01*
X0073358Y0078569D01*
X0073358Y0071737D01*
X0074412Y0070682D01*
X0083277Y0070682D01*
X0083277Y0070163D01*
X0084038Y0069401D01*
X0088677Y0069401D01*
X0089439Y0070163D01*
X0089439Y0074802D01*
X0088677Y0075563D01*
X0084038Y0075563D01*
X0083277Y0074802D01*
X0083277Y0074282D01*
X0076958Y0074282D01*
X0076958Y0078891D01*
X0077050Y0079016D01*
X0076958Y0079618D01*
X0076958Y0080226D01*
X0076847Y0080336D01*
X0076824Y0080490D01*
X0076333Y0080850D01*
X0075903Y0081280D01*
X0075747Y0081280D01*
X0072232Y0083860D01*
X0074350Y0083860D01*
X0074350Y0083175D01*
X0075112Y0082413D01*
X0079751Y0082413D01*
X0080512Y0083175D01*
X0080512Y0087814D01*
X0079751Y0088576D01*
X0075112Y0088576D01*
X0074350Y0087814D01*
X0074350Y0087129D01*
X0070486Y0087129D01*
X0066719Y0089894D01*
X0068727Y0089894D01*
X0069489Y0090655D01*
X0069489Y0095294D01*
X0068727Y0096056D01*
X0065325Y0096056D01*
X0059265Y0101250D01*
X0052559Y0108260D01*
X0052559Y0111436D01*
X0051798Y0112198D01*
X0047159Y0112198D01*
X0046397Y0111436D01*
X0046397Y0106797D01*
X0047159Y0106035D01*
X0050163Y0106035D01*
X0056555Y0099354D01*
X0056562Y0099261D01*
X0057014Y0098873D01*
X0057427Y0098442D01*
X0057519Y0098440D01*
X0063326Y0093463D01*
X0063326Y0092383D01*
X0062999Y0092623D01*
X0062610Y0093014D01*
X0062467Y0093014D01*
X0062352Y0093099D01*
X0061807Y0093015D01*
X0048878Y0093034D01*
X0048873Y0093266D01*
X0048873Y0097999D01*
X0049558Y0097999D01*
X0050319Y0098761D01*
X0050319Y0103400D01*
X0049558Y0104162D01*
X0044919Y0104162D01*
X0044157Y0103400D01*
X0044157Y0098761D01*
X0044919Y0097999D01*
X0045604Y0097999D01*
X0045604Y0093901D01*
X0045588Y0093884D01*
X0045604Y0093227D01*
X0045604Y0092569D01*
X0045620Y0092553D01*
X0045648Y0091383D01*
X0045647Y0091049D01*
X0043825Y0091049D01*
X0042316Y0094835D01*
X0042316Y0117110D01*
X0040005Y0119421D01*
X0066943Y0119421D01*
X0072088Y0114276D01*
X0072088Y0098922D01*
X0073142Y0097868D01*
X0077106Y0093904D01*
X0077106Y0093369D01*
X0078219Y0092256D01*
X0079793Y0092256D01*
X0079893Y0092356D01*
X0087442Y0092356D01*
X0087442Y0089757D01*
X0086923Y0089757D01*
X0086161Y0088995D01*
X0086161Y0084356D01*
X0086923Y0083594D01*
X0091379Y0083594D01*
X0091379Y0064276D01*
X0092434Y0063222D01*
X0093741Y0063222D01*
X0093741Y0056686D01*
X0093222Y0056686D01*
X0092460Y0055924D01*
X0092460Y0051285D01*
X0093222Y0050524D01*
X0097861Y0050524D01*
X0098622Y0051285D01*
X0098622Y0055924D01*
X0097861Y0056686D01*
X0097341Y0056686D01*
X0097341Y0065768D01*
X0096287Y0066822D01*
X0094979Y0066822D01*
X0094979Y0114925D01*
X0095049Y0115570D01*
X0094979Y0115656D01*
X0094979Y0115768D01*
X0094521Y0116226D01*
X0094114Y0116731D01*
X0094003Y0116743D01*
X0093925Y0116822D01*
X0093276Y0116822D01*
X0079436Y0118318D01*
X0071938Y0125816D01*
X0071855Y0126093D01*
X0072244Y0126482D01*
X0072244Y0131121D01*
X0072244Y0130698D02*
X0073269Y0130698D01*
X0073269Y0129100D02*
X0072244Y0129100D01*
X0072244Y0127501D02*
X0073269Y0127501D01*
X0073269Y0125903D02*
X0071912Y0125903D01*
X0073450Y0124304D02*
X0074658Y0124304D01*
X0075049Y0122706D02*
X0076257Y0122706D01*
X0076647Y0121107D02*
X0078848Y0121107D01*
X0079021Y0119509D02*
X0078246Y0119509D01*
X0076352Y0116312D02*
X0075144Y0116312D01*
X0074753Y0117910D02*
X0073545Y0117910D01*
X0073155Y0119509D02*
X0071947Y0119509D01*
X0071556Y0121107D02*
X0070348Y0121107D01*
X0069958Y0122706D02*
X0068891Y0122706D01*
X0068544Y0124304D02*
X0040748Y0124304D01*
X0040748Y0125903D02*
X0066662Y0125903D01*
X0066082Y0127501D02*
X0040748Y0127501D01*
X0040748Y0129100D02*
X0066082Y0129100D01*
X0066082Y0130698D02*
X0037685Y0130698D01*
X0038120Y0132297D02*
X0048366Y0132297D01*
X0048366Y0133895D02*
X0038831Y0133895D01*
X0038831Y0135494D02*
X0048366Y0135494D01*
X0048825Y0137092D02*
X0038831Y0137092D01*
X0038831Y0136321D02*
X0038831Y0139133D01*
X0038708Y0139591D01*
X0038471Y0140001D01*
X0038136Y0140336D01*
X0037726Y0140573D01*
X0037268Y0140696D01*
X0034456Y0140696D01*
X0031644Y0140696D01*
X0031187Y0140573D01*
X0030776Y0140336D01*
X0030441Y0140001D01*
X0030204Y0139591D01*
X0030081Y0139133D01*
X0030081Y0136321D01*
X0034456Y0136321D01*
X0034456Y0136321D01*
X0034456Y0136321D01*
X0034456Y0140696D01*
X0034456Y0136321D01*
X0034456Y0136321D01*
X0038831Y0136321D01*
X0038831Y0138691D02*
X0080841Y0138691D01*
X0081570Y0139420D02*
X0078348Y0136198D01*
X0078348Y0134120D01*
X0083648Y0134120D01*
X0083648Y0139420D01*
X0081570Y0139420D01*
X0083648Y0138691D02*
X0084048Y0138691D01*
X0084048Y0137092D02*
X0083648Y0137092D01*
X0083648Y0135494D02*
X0084048Y0135494D01*
X0083648Y0133895D02*
X0076869Y0133895D01*
X0076869Y0132297D02*
X0078348Y0132297D01*
X0079292Y0130698D02*
X0076869Y0130698D01*
X0076869Y0129100D02*
X0080890Y0129100D01*
X0078848Y0127501D02*
X0076869Y0127501D01*
X0078151Y0125903D02*
X0078848Y0125903D01*
X0086807Y0129100D02*
X0091597Y0129100D01*
X0091777Y0128920D02*
X0088848Y0125991D01*
X0088848Y0121849D01*
X0091777Y0118920D01*
X0095919Y0118920D01*
X0098848Y0121849D01*
X0098848Y0125991D01*
X0095919Y0128920D01*
X0091777Y0128920D01*
X0090359Y0127501D02*
X0088848Y0127501D01*
X0088848Y0125903D02*
X0088848Y0125903D01*
X0088848Y0124304D02*
X0088848Y0124304D01*
X0088848Y0122706D02*
X0088848Y0122706D01*
X0088848Y0121107D02*
X0089590Y0121107D01*
X0088676Y0119509D02*
X0091188Y0119509D01*
X0094452Y0116312D02*
X0096876Y0116312D01*
X0096891Y0116373D02*
X0096768Y0115851D01*
X0096891Y0115652D01*
X0096891Y0100891D01*
X0097945Y0099836D01*
X0101222Y0099836D01*
X0101222Y0074402D01*
X0100702Y0074402D01*
X0099941Y0073641D01*
X0099941Y0069002D01*
X0100702Y0068240D01*
X0105341Y0068240D01*
X0105946Y0068845D01*
X0105946Y0061521D01*
X0107000Y0060466D01*
X0108463Y0060466D01*
X0113033Y0048163D01*
X0113033Y0047741D01*
X0113282Y0047492D01*
X0113405Y0047161D01*
X0113789Y0046985D01*
X0114087Y0046687D01*
X0114440Y0046687D01*
X0114760Y0046540D01*
X0115156Y0046687D01*
X0116946Y0046687D01*
X0117026Y0046621D01*
X0117678Y0046687D01*
X0118334Y0046687D01*
X0118407Y0046759D01*
X0118444Y0046763D01*
X0118444Y0046561D01*
X0119206Y0045799D01*
X0123845Y0045799D01*
X0124607Y0046561D01*
X0124607Y0051200D01*
X0123845Y0051961D01*
X0119206Y0051961D01*
X0118444Y0051200D01*
X0118444Y0050381D01*
X0117499Y0050287D01*
X0116084Y0050287D01*
X0111515Y0062590D01*
X0111515Y0063012D01*
X0111265Y0063261D01*
X0111142Y0063592D01*
X0110759Y0063768D01*
X0110460Y0064066D01*
X0110107Y0064066D01*
X0109787Y0064213D01*
X0109546Y0064124D01*
X0109546Y0076791D01*
X0108492Y0077846D01*
X0107578Y0077846D01*
X0107578Y0111547D01*
X0108097Y0111547D01*
X0108859Y0112309D01*
X0108859Y0116948D01*
X0108097Y0117709D01*
X0105175Y0117709D01*
X0105948Y0118483D01*
X0105948Y0118949D01*
X0108848Y0121849D01*
X0108848Y0125991D01*
X0105919Y0128920D01*
X0108848Y0131849D01*
X0108848Y0135991D01*
X0105919Y0138920D01*
X0101777Y0138920D01*
X0098848Y0135991D01*
X0098848Y0131849D01*
X0101777Y0128920D01*
X0105919Y0128920D01*
X0101777Y0128920D01*
X0098848Y0125991D01*
X0098848Y0121849D01*
X0100993Y0119704D01*
X0098179Y0117964D01*
X0097945Y0117964D01*
X0097566Y0117585D01*
X0097110Y0117303D01*
X0097056Y0117075D01*
X0096891Y0116909D01*
X0096891Y0116373D01*
X0096891Y0114713D02*
X0094979Y0114713D01*
X0094979Y0113115D02*
X0096891Y0113115D01*
X0096891Y0111516D02*
X0094979Y0111516D01*
X0094979Y0109918D02*
X0096891Y0109918D01*
X0096891Y0108319D02*
X0094979Y0108319D01*
X0094979Y0106721D02*
X0096891Y0106721D01*
X0096891Y0105122D02*
X0094979Y0105122D01*
X0094979Y0103524D02*
X0096891Y0103524D01*
X0096891Y0101925D02*
X0094979Y0101925D01*
X0094979Y0100327D02*
X0097455Y0100327D01*
X0094979Y0098728D02*
X0101222Y0098728D01*
X0101222Y0097129D02*
X0094979Y0097129D01*
X0094979Y0095531D02*
X0101222Y0095531D01*
X0101222Y0093932D02*
X0094979Y0093932D01*
X0094979Y0092334D02*
X0101222Y0092334D01*
X0101222Y0090735D02*
X0094979Y0090735D01*
X0094979Y0089137D02*
X0101222Y0089137D01*
X0101222Y0087538D02*
X0094979Y0087538D01*
X0094979Y0085940D02*
X0101222Y0085940D01*
X0101222Y0084341D02*
X0094979Y0084341D01*
X0094979Y0082743D02*
X0101222Y0082743D01*
X0101222Y0081144D02*
X0094979Y0081144D01*
X0094979Y0079546D02*
X0101222Y0079546D01*
X0101222Y0077947D02*
X0094979Y0077947D01*
X0094979Y0076349D02*
X0101222Y0076349D01*
X0101222Y0074750D02*
X0094979Y0074750D01*
X0094979Y0073152D02*
X0099941Y0073152D01*
X0099941Y0071553D02*
X0094979Y0071553D01*
X0094979Y0069955D02*
X0099941Y0069955D01*
X0100586Y0068356D02*
X0094979Y0068356D01*
X0096351Y0066758D02*
X0105946Y0066758D01*
X0105946Y0068356D02*
X0105457Y0068356D01*
X0105946Y0065159D02*
X0097341Y0065159D01*
X0097341Y0063561D02*
X0105946Y0063561D01*
X0105946Y0061962D02*
X0097341Y0061962D01*
X0097341Y0060364D02*
X0108501Y0060364D01*
X0109095Y0058765D02*
X0097341Y0058765D01*
X0097341Y0057167D02*
X0109688Y0057167D01*
X0110282Y0055568D02*
X0098622Y0055568D01*
X0098622Y0053970D02*
X0110876Y0053970D01*
X0111470Y0052371D02*
X0098622Y0052371D01*
X0098110Y0050773D02*
X0112063Y0050773D01*
X0112657Y0049174D02*
X0088344Y0049174D01*
X0089943Y0047576D02*
X0113198Y0047576D01*
X0115904Y0050773D02*
X0118444Y0050773D01*
X0115310Y0052371D02*
X0126076Y0052371D01*
X0126076Y0050773D02*
X0124607Y0050773D01*
X0124607Y0049174D02*
X0126076Y0049174D01*
X0126076Y0047576D02*
X0124607Y0047576D01*
X0124023Y0045977D02*
X0126076Y0045977D01*
X0126076Y0044379D02*
X0093140Y0044379D01*
X0091541Y0045977D02*
X0119028Y0045977D01*
X0119302Y0039432D02*
X0117666Y0038755D01*
X0116415Y0037503D01*
X0115737Y0035868D01*
X0115737Y0034098D01*
X0116415Y0032462D01*
X0117666Y0031210D01*
X0118064Y0031046D01*
X0117666Y0030881D01*
X0116415Y0029629D01*
X0115737Y0027994D01*
X0115737Y0026224D01*
X0116415Y0024588D01*
X0117666Y0023336D01*
X0119302Y0022659D01*
X0121072Y0022659D01*
X0122708Y0023336D01*
X0123959Y0024588D01*
X0124637Y0026224D01*
X0124637Y0027994D01*
X0123959Y0029629D01*
X0122708Y0030881D01*
X0122310Y0031046D01*
X0122708Y0031210D01*
X0123959Y0032462D01*
X0124637Y0034098D01*
X0124637Y0035868D01*
X0123959Y0037503D01*
X0122708Y0038755D01*
X0121072Y0039432D01*
X0119302Y0039432D01*
X0116896Y0037985D02*
X0108071Y0037985D01*
X0108071Y0037112D02*
X0107310Y0036350D01*
X0102671Y0036350D01*
X0101909Y0037112D01*
X0101909Y0037631D01*
X0094796Y0037631D01*
X0083378Y0049049D01*
X0056721Y0049049D01*
X0056140Y0048947D01*
X0055996Y0049049D01*
X0055819Y0049049D01*
X0055402Y0049466D01*
X0043252Y0058004D01*
X0039678Y0058004D01*
X0038917Y0058765D01*
X0020676Y0058765D01*
X0020676Y0057167D02*
X0044443Y0057167D01*
X0046718Y0055568D02*
X0032167Y0055568D01*
X0032378Y0055481D02*
X0030062Y0056440D01*
X0027556Y0056440D01*
X0025240Y0055481D01*
X0023468Y0053709D01*
X0022509Y0051393D01*
X0022509Y0048887D01*
X0023468Y0046571D01*
X0025240Y0044799D01*
X0027556Y0043840D01*
X0030062Y0043840D01*
X0032378Y0044799D01*
X0034150Y0046571D01*
X0035109Y0048887D01*
X0035109Y0051393D01*
X0034150Y0053709D01*
X0032378Y0055481D01*
X0033889Y0053970D02*
X0048993Y0053970D01*
X0051268Y0052371D02*
X0034704Y0052371D01*
X0035109Y0050773D02*
X0053543Y0050773D01*
X0055694Y0049174D02*
X0035109Y0049174D01*
X0034566Y0047576D02*
X0084852Y0047576D01*
X0086450Y0045977D02*
X0074213Y0045977D01*
X0074213Y0046475D02*
X0073451Y0047237D01*
X0068812Y0047237D01*
X0068051Y0046475D01*
X0068051Y0044281D01*
X0064843Y0041531D01*
X0032192Y0041531D01*
X0031132Y0042592D01*
X0029625Y0043217D01*
X0027994Y0043217D01*
X0026487Y0042592D01*
X0025333Y0041439D01*
X0024709Y0039932D01*
X0024709Y0038301D01*
X0025333Y0036794D01*
X0026487Y0035641D01*
X0027600Y0035180D01*
X0026487Y0034718D01*
X0025333Y0033565D01*
X0024709Y0032058D01*
X0024709Y0030427D01*
X0025333Y0028920D01*
X0026487Y0027767D01*
X0027125Y0027502D01*
X0026487Y0027238D01*
X0025333Y0026085D01*
X0024709Y0024578D01*
X0024709Y0022947D01*
X0025333Y0021440D01*
X0026487Y0020286D01*
X0027994Y0019662D01*
X0029625Y0019662D01*
X0031132Y0020286D01*
X0032285Y0021440D01*
X0032909Y0022947D01*
X0032909Y0024578D01*
X0032285Y0026085D01*
X0031132Y0027238D01*
X0030493Y0027502D01*
X0031132Y0027767D01*
X0032285Y0028920D01*
X0032909Y0030427D01*
X0032909Y0032058D01*
X0032285Y0033565D01*
X0031132Y0034718D01*
X0030018Y0035180D01*
X0031132Y0035641D01*
X0032285Y0036794D01*
X0032507Y0037331D01*
X0065539Y0037331D01*
X0066326Y0037271D01*
X0066397Y0037331D01*
X0066490Y0037331D01*
X0067048Y0037889D01*
X0070764Y0041075D01*
X0073451Y0041075D01*
X0074213Y0041836D01*
X0074213Y0046475D01*
X0074213Y0044379D02*
X0088049Y0044379D01*
X0089647Y0042780D02*
X0074213Y0042780D01*
X0073558Y0041182D02*
X0091246Y0041182D01*
X0092844Y0039583D02*
X0069024Y0039583D01*
X0067159Y0037985D02*
X0094443Y0037985D01*
X0096287Y0041231D02*
X0085924Y0051594D01*
X0084870Y0052649D01*
X0057134Y0052649D01*
X0045079Y0061120D01*
X0045079Y0063405D01*
X0044318Y0064166D01*
X0039678Y0064166D01*
X0038917Y0063405D01*
X0038917Y0058765D01*
X0038917Y0060364D02*
X0020676Y0060364D01*
X0020676Y0061962D02*
X0032763Y0061962D01*
X0032261Y0062170D02*
X0033685Y0061580D01*
X0035227Y0061580D01*
X0036651Y0062170D01*
X0037741Y0063260D01*
X0038331Y0064684D01*
X0038331Y0066226D01*
X0037741Y0067650D01*
X0036651Y0068740D01*
X0035227Y0069330D01*
X0033685Y0069330D01*
X0032261Y0068740D01*
X0031171Y0067650D01*
X0030581Y0066226D01*
X0030581Y0064684D01*
X0031171Y0063260D01*
X0032261Y0062170D01*
X0031047Y0063561D02*
X0020676Y0063561D01*
X0020676Y0065159D02*
X0030581Y0065159D01*
X0030802Y0066758D02*
X0020676Y0066758D01*
X0020676Y0068356D02*
X0031877Y0068356D01*
X0032477Y0069955D02*
X0020676Y0069955D01*
X0020676Y0071553D02*
X0030998Y0071553D01*
X0031171Y0071134D02*
X0032261Y0070044D01*
X0033685Y0069454D01*
X0035227Y0069454D01*
X0036651Y0070044D01*
X0037741Y0071134D01*
X0038331Y0072558D01*
X0038331Y0074100D01*
X0037741Y0075524D01*
X0036651Y0076614D01*
X0035227Y0077204D01*
X0033685Y0077204D01*
X0032261Y0076614D01*
X0031171Y0075524D01*
X0030581Y0074100D01*
X0030581Y0072558D01*
X0031171Y0071134D01*
X0030581Y0073152D02*
X0020676Y0073152D01*
X0020676Y0074750D02*
X0030851Y0074750D01*
X0031996Y0076349D02*
X0020676Y0076349D01*
X0020676Y0077947D02*
X0032232Y0077947D01*
X0032261Y0077918D02*
X0033685Y0077328D01*
X0035227Y0077328D01*
X0036651Y0077918D01*
X0037741Y0079008D01*
X0038331Y0080432D01*
X0038331Y0081974D01*
X0037741Y0083398D01*
X0036651Y0084488D01*
X0035227Y0085078D01*
X0033685Y0085078D01*
X0032261Y0084488D01*
X0031171Y0083398D01*
X0030581Y0081974D01*
X0030581Y0080432D01*
X0031171Y0079008D01*
X0032261Y0077918D01*
X0030949Y0079546D02*
X0020676Y0079546D01*
X0020676Y0081144D02*
X0030581Y0081144D01*
X0030900Y0082743D02*
X0020676Y0082743D01*
X0020676Y0084341D02*
X0032115Y0084341D01*
X0032261Y0085792D02*
X0033685Y0085202D01*
X0035227Y0085202D01*
X0036651Y0085792D01*
X0037741Y0086882D01*
X0038331Y0088306D01*
X0038331Y0089848D01*
X0037741Y0091272D01*
X0036651Y0092362D01*
X0035227Y0092952D01*
X0033685Y0092952D01*
X0032261Y0092362D01*
X0031171Y0091272D01*
X0030581Y0089848D01*
X0030581Y0088306D01*
X0031171Y0086882D01*
X0032261Y0085792D01*
X0032114Y0085940D02*
X0020676Y0085940D01*
X0020676Y0087538D02*
X0030899Y0087538D01*
X0030581Y0089137D02*
X0020676Y0089137D01*
X0020676Y0090735D02*
X0030949Y0090735D01*
X0032233Y0092334D02*
X0020676Y0092334D01*
X0020676Y0093932D02*
X0031995Y0093932D01*
X0032261Y0093666D02*
X0033685Y0093076D01*
X0035227Y0093076D01*
X0036651Y0093666D01*
X0037741Y0094756D01*
X0038331Y0096180D01*
X0038331Y0097722D01*
X0037741Y0099146D01*
X0036651Y0100236D01*
X0035227Y0100826D01*
X0033685Y0100826D01*
X0032261Y0100236D01*
X0031171Y0099146D01*
X0030581Y0097722D01*
X0030581Y0096180D01*
X0031171Y0094756D01*
X0032261Y0093666D01*
X0030850Y0095531D02*
X0020676Y0095531D01*
X0020676Y0097129D02*
X0030581Y0097129D01*
X0030998Y0098728D02*
X0020676Y0098728D01*
X0020676Y0100327D02*
X0032480Y0100327D01*
X0032261Y0101540D02*
X0031171Y0102630D01*
X0030581Y0104054D01*
X0030581Y0105596D01*
X0031171Y0107020D01*
X0032261Y0108110D01*
X0033685Y0108700D01*
X0035227Y0108700D01*
X0036651Y0108110D01*
X0037741Y0107020D01*
X0038331Y0105596D01*
X0038331Y0104054D01*
X0037741Y0102630D01*
X0036651Y0101540D01*
X0035227Y0100950D01*
X0033685Y0100950D01*
X0032261Y0101540D01*
X0031876Y0101925D02*
X0020676Y0101925D01*
X0020676Y0103524D02*
X0030801Y0103524D01*
X0030581Y0105122D02*
X0020676Y0105122D01*
X0020676Y0106721D02*
X0031047Y0106721D01*
X0032766Y0108319D02*
X0020676Y0108319D01*
X0020676Y0109918D02*
X0031758Y0109918D01*
X0032261Y0109414D02*
X0033685Y0108824D01*
X0035227Y0108824D01*
X0036651Y0109414D01*
X0037741Y0110504D01*
X0038331Y0111928D01*
X0038331Y0113470D01*
X0037741Y0114894D01*
X0036651Y0115984D01*
X0035227Y0116574D01*
X0033685Y0116574D01*
X0032261Y0115984D01*
X0031171Y0114894D01*
X0030581Y0113470D01*
X0030581Y0111928D01*
X0031171Y0110504D01*
X0032261Y0109414D01*
X0030752Y0111516D02*
X0020676Y0111516D01*
X0020676Y0113115D02*
X0030581Y0113115D01*
X0031096Y0114713D02*
X0020676Y0114713D01*
X0020676Y0116312D02*
X0033052Y0116312D01*
X0031639Y0117910D02*
X0020676Y0117910D01*
X0020676Y0119509D02*
X0030703Y0119509D01*
X0030581Y0121107D02*
X0020676Y0121107D01*
X0020676Y0122706D02*
X0031145Y0122706D01*
X0033338Y0124304D02*
X0020676Y0124304D01*
X0020676Y0125903D02*
X0031521Y0125903D01*
X0030654Y0127501D02*
X0020676Y0127501D01*
X0020676Y0129100D02*
X0030581Y0129100D01*
X0031227Y0130698D02*
X0020676Y0130698D01*
X0020676Y0132297D02*
X0030792Y0132297D01*
X0030081Y0133895D02*
X0020676Y0133895D01*
X0020676Y0135494D02*
X0030081Y0135494D01*
X0030081Y0137092D02*
X0020676Y0137092D01*
X0020676Y0138691D02*
X0030081Y0138691D01*
X0030729Y0140289D02*
X0020676Y0140289D01*
X0020676Y0141888D02*
X0126076Y0141888D01*
X0126076Y0142817D02*
X0126076Y0007817D01*
X0126024Y0007291D01*
X0125621Y0006317D01*
X0124876Y0005572D01*
X0123903Y0005169D01*
X0123376Y0005117D01*
X0097874Y0005117D01*
X0098723Y0005966D01*
X0099400Y0007602D01*
X0099400Y0009372D01*
X0098723Y0011007D01*
X0097471Y0012259D01*
X0095836Y0012936D01*
X0094066Y0012936D01*
X0092430Y0012259D01*
X0091179Y0011007D01*
X0091014Y0010609D01*
X0090849Y0011007D01*
X0089597Y0012259D01*
X0087962Y0012936D01*
X0086192Y0012936D01*
X0084556Y0012259D01*
X0083305Y0011007D01*
X0082627Y0009372D01*
X0082627Y0007602D01*
X0083305Y0005966D01*
X0084153Y0005117D01*
X0023376Y0005117D01*
X0022849Y0005169D01*
X0021876Y0005572D01*
X0021131Y0006317D01*
X0020728Y0007291D01*
X0020676Y0007817D01*
X0020676Y0142817D01*
X0126076Y0142817D01*
X0126076Y0140289D02*
X0038183Y0140289D01*
X0034456Y0140289D02*
X0034456Y0140289D01*
X0034456Y0138691D02*
X0034456Y0138691D01*
X0034456Y0137092D02*
X0034456Y0137092D01*
X0035574Y0124304D02*
X0036948Y0124304D01*
X0041516Y0117910D02*
X0068454Y0117910D01*
X0070053Y0116312D02*
X0042316Y0116312D01*
X0042316Y0114713D02*
X0071651Y0114713D01*
X0072088Y0113115D02*
X0042316Y0113115D01*
X0042316Y0111516D02*
X0046477Y0111516D01*
X0046397Y0109918D02*
X0042316Y0109918D01*
X0042316Y0108319D02*
X0046397Y0108319D01*
X0046474Y0106721D02*
X0042316Y0106721D01*
X0042316Y0105122D02*
X0051037Y0105122D01*
X0050196Y0103524D02*
X0052566Y0103524D01*
X0054095Y0101925D02*
X0050319Y0101925D01*
X0050319Y0100327D02*
X0055624Y0100327D01*
X0057153Y0098728D02*
X0050286Y0098728D01*
X0048873Y0097129D02*
X0059049Y0097129D01*
X0060913Y0095531D02*
X0048873Y0095531D01*
X0048873Y0093932D02*
X0062778Y0093932D01*
X0064072Y0097129D02*
X0073880Y0097129D01*
X0072282Y0098728D02*
X0062207Y0098728D01*
X0060342Y0100327D02*
X0072088Y0100327D01*
X0072088Y0101925D02*
X0058619Y0101925D01*
X0057090Y0103524D02*
X0072088Y0103524D01*
X0072088Y0105122D02*
X0055561Y0105122D01*
X0054032Y0106721D02*
X0072088Y0106721D01*
X0072088Y0108319D02*
X0052559Y0108319D01*
X0052559Y0109918D02*
X0072088Y0109918D01*
X0072088Y0111516D02*
X0052479Y0111516D01*
X0044280Y0103524D02*
X0042316Y0103524D01*
X0042316Y0101925D02*
X0044157Y0101925D01*
X0044157Y0100327D02*
X0042316Y0100327D01*
X0042316Y0098728D02*
X0044190Y0098728D01*
X0045604Y0097129D02*
X0042316Y0097129D01*
X0042316Y0095531D02*
X0045604Y0095531D01*
X0045604Y0093932D02*
X0042675Y0093932D01*
X0043313Y0092334D02*
X0045625Y0092334D01*
X0041771Y0087538D02*
X0038013Y0087538D01*
X0038331Y0089137D02*
X0040712Y0089137D01*
X0040075Y0090735D02*
X0037963Y0090735D01*
X0036679Y0092334D02*
X0039437Y0092334D01*
X0038716Y0093932D02*
X0036917Y0093932D01*
X0038062Y0095531D02*
X0038716Y0095531D01*
X0038716Y0097129D02*
X0038331Y0097129D01*
X0038716Y0098728D02*
X0037914Y0098728D01*
X0038716Y0100327D02*
X0036433Y0100327D01*
X0037036Y0101925D02*
X0038716Y0101925D01*
X0038716Y0103524D02*
X0038111Y0103524D01*
X0038331Y0105122D02*
X0038716Y0105122D01*
X0038716Y0106721D02*
X0037865Y0106721D01*
X0038716Y0108319D02*
X0036146Y0108319D01*
X0037154Y0109918D02*
X0038716Y0109918D01*
X0038716Y0111516D02*
X0038160Y0111516D01*
X0038331Y0113115D02*
X0038716Y0113115D01*
X0038716Y0114713D02*
X0037816Y0114713D01*
X0038023Y0116312D02*
X0035860Y0116312D01*
X0054069Y0137092D02*
X0079243Y0137092D01*
X0078348Y0135494D02*
X0076434Y0135494D01*
X0086855Y0138691D02*
X0091548Y0138691D01*
X0089950Y0137092D02*
X0088454Y0137092D01*
X0088405Y0130698D02*
X0089999Y0130698D01*
X0096100Y0129100D02*
X0101597Y0129100D01*
X0100359Y0127501D02*
X0097338Y0127501D01*
X0098848Y0125903D02*
X0098848Y0125903D01*
X0098848Y0124304D02*
X0098848Y0124304D01*
X0098848Y0122706D02*
X0098848Y0122706D01*
X0098107Y0121107D02*
X0099590Y0121107D01*
X0100678Y0119509D02*
X0096508Y0119509D01*
X0097892Y0117910D02*
X0083211Y0117910D01*
X0079290Y0114713D02*
X0075688Y0114713D01*
X0075688Y0113115D02*
X0091379Y0113115D01*
X0091379Y0111516D02*
X0075688Y0111516D01*
X0075688Y0109918D02*
X0091379Y0109918D01*
X0091379Y0108319D02*
X0075688Y0108319D01*
X0075688Y0106721D02*
X0091379Y0106721D01*
X0091379Y0105122D02*
X0075688Y0105122D01*
X0075688Y0103524D02*
X0091379Y0103524D01*
X0091379Y0101925D02*
X0075688Y0101925D01*
X0075775Y0100327D02*
X0091379Y0100327D01*
X0091379Y0098728D02*
X0077373Y0098728D01*
X0078972Y0097129D02*
X0091379Y0097129D01*
X0091379Y0095531D02*
X0090413Y0095531D01*
X0091042Y0093932D02*
X0091379Y0093932D01*
X0091379Y0092334D02*
X0091042Y0092334D01*
X0091042Y0090735D02*
X0091379Y0090735D01*
X0087442Y0090735D02*
X0069489Y0090735D01*
X0069489Y0092334D02*
X0078141Y0092334D01*
X0079871Y0092334D02*
X0087442Y0092334D01*
X0086303Y0089137D02*
X0067750Y0089137D01*
X0069928Y0087538D02*
X0074350Y0087538D01*
X0074782Y0082743D02*
X0073754Y0082743D01*
X0076039Y0081144D02*
X0091379Y0081144D01*
X0091379Y0079546D02*
X0076969Y0079546D01*
X0076958Y0077947D02*
X0091379Y0077947D01*
X0091379Y0076349D02*
X0076958Y0076349D01*
X0076958Y0074750D02*
X0083277Y0074750D01*
X0083485Y0069955D02*
X0036435Y0069955D01*
X0037035Y0068356D02*
X0091379Y0068356D01*
X0091379Y0066758D02*
X0038111Y0066758D01*
X0038331Y0065159D02*
X0091379Y0065159D01*
X0092095Y0063561D02*
X0044923Y0063561D01*
X0045079Y0061962D02*
X0093741Y0061962D01*
X0093741Y0060364D02*
X0046155Y0060364D01*
X0048430Y0058765D02*
X0093741Y0058765D01*
X0093741Y0057167D02*
X0050705Y0057167D01*
X0052980Y0055568D02*
X0092460Y0055568D01*
X0092460Y0053970D02*
X0055254Y0053970D01*
X0066300Y0042780D02*
X0030678Y0042780D01*
X0031362Y0044379D02*
X0068051Y0044379D01*
X0068051Y0045977D02*
X0033556Y0045977D01*
X0028809Y0039431D02*
X0065620Y0039431D01*
X0071132Y0044156D01*
X0085147Y0052371D02*
X0092460Y0052371D01*
X0092973Y0050773D02*
X0086746Y0050773D01*
X0094738Y0042780D02*
X0126076Y0042780D01*
X0126076Y0041182D02*
X0108071Y0041182D01*
X0108071Y0041751D02*
X0107310Y0042513D01*
X0102671Y0042513D01*
X0101909Y0041751D01*
X0101909Y0041231D01*
X0096287Y0041231D01*
X0102635Y0036386D02*
X0031877Y0036386D01*
X0030964Y0034788D02*
X0115737Y0034788D01*
X0115952Y0036386D02*
X0107345Y0036386D01*
X0108071Y0037112D02*
X0108071Y0041751D01*
X0108071Y0039583D02*
X0126076Y0039583D01*
X0126076Y0037985D02*
X0123478Y0037985D01*
X0124422Y0036386D02*
X0126076Y0036386D01*
X0126076Y0034788D02*
X0124637Y0034788D01*
X0124260Y0033189D02*
X0126076Y0033189D01*
X0126076Y0031591D02*
X0123088Y0031591D01*
X0123596Y0029992D02*
X0126076Y0029992D01*
X0126076Y0028394D02*
X0124471Y0028394D01*
X0124637Y0026795D02*
X0126076Y0026795D01*
X0126076Y0025196D02*
X0124211Y0025196D01*
X0122969Y0023598D02*
X0126076Y0023598D01*
X0126076Y0021999D02*
X0032517Y0021999D01*
X0032909Y0023598D02*
X0117405Y0023598D01*
X0116163Y0025196D02*
X0032653Y0025196D01*
X0031575Y0026795D02*
X0115737Y0026795D01*
X0115903Y0028394D02*
X0031758Y0028394D01*
X0032729Y0029992D02*
X0116778Y0029992D01*
X0117286Y0031591D02*
X0032909Y0031591D01*
X0032441Y0033189D02*
X0116114Y0033189D01*
X0126076Y0020401D02*
X0031246Y0020401D01*
X0030062Y0018645D02*
X0027556Y0018645D01*
X0025240Y0017686D01*
X0023468Y0015914D01*
X0022509Y0013598D01*
X0022509Y0011092D01*
X0023468Y0008776D01*
X0025240Y0007004D01*
X0027556Y0006045D01*
X0030062Y0006045D01*
X0032378Y0007004D01*
X0034150Y0008776D01*
X0035109Y0011092D01*
X0035109Y0013598D01*
X0034150Y0015914D01*
X0032378Y0017686D01*
X0030062Y0018645D01*
X0026372Y0020401D02*
X0020676Y0020401D01*
X0020676Y0021999D02*
X0025101Y0021999D01*
X0024709Y0023598D02*
X0020676Y0023598D01*
X0020676Y0025196D02*
X0024965Y0025196D01*
X0026044Y0026795D02*
X0020676Y0026795D01*
X0020676Y0028394D02*
X0025860Y0028394D01*
X0024889Y0029992D02*
X0020676Y0029992D01*
X0020676Y0031591D02*
X0024709Y0031591D01*
X0025178Y0033189D02*
X0020676Y0033189D01*
X0020676Y0034788D02*
X0026654Y0034788D01*
X0025741Y0036386D02*
X0020676Y0036386D01*
X0020676Y0037985D02*
X0024840Y0037985D01*
X0024709Y0039583D02*
X0020676Y0039583D01*
X0020676Y0041182D02*
X0025227Y0041182D01*
X0026940Y0042780D02*
X0020676Y0042780D01*
X0020676Y0044379D02*
X0026256Y0044379D01*
X0024063Y0045977D02*
X0020676Y0045977D01*
X0020676Y0047576D02*
X0023052Y0047576D01*
X0022509Y0049174D02*
X0020676Y0049174D01*
X0020676Y0050773D02*
X0022509Y0050773D01*
X0022914Y0052371D02*
X0020676Y0052371D01*
X0020676Y0053970D02*
X0023729Y0053970D01*
X0025451Y0055568D02*
X0020676Y0055568D01*
X0028809Y0039431D02*
X0028809Y0039117D01*
X0020676Y0018802D02*
X0126076Y0018802D01*
X0126076Y0017204D02*
X0032860Y0017204D01*
X0034278Y0015605D02*
X0126076Y0015605D01*
X0126076Y0014007D02*
X0034940Y0014007D01*
X0035109Y0012408D02*
X0038917Y0012408D01*
X0038917Y0012617D02*
X0038917Y0007978D01*
X0039678Y0007217D01*
X0044318Y0007217D01*
X0045079Y0007978D01*
X0045079Y0012617D01*
X0044318Y0013379D01*
X0039678Y0013379D01*
X0038917Y0012617D01*
X0038917Y0010810D02*
X0034992Y0010810D01*
X0034330Y0009211D02*
X0038917Y0009211D01*
X0039282Y0007613D02*
X0032987Y0007613D01*
X0024632Y0007613D02*
X0020696Y0007613D01*
X0020676Y0009211D02*
X0023288Y0009211D01*
X0022626Y0010810D02*
X0020676Y0010810D01*
X0020676Y0012408D02*
X0022509Y0012408D01*
X0022678Y0014007D02*
X0020676Y0014007D01*
X0020676Y0015605D02*
X0023341Y0015605D01*
X0024759Y0017204D02*
X0020676Y0017204D01*
X0021434Y0006014D02*
X0083285Y0006014D01*
X0082627Y0007613D02*
X0069911Y0007613D01*
X0070276Y0007978D02*
X0069514Y0007217D01*
X0064875Y0007217D01*
X0064114Y0007978D01*
X0064114Y0012617D01*
X0064875Y0013379D01*
X0069514Y0013379D01*
X0070276Y0012617D01*
X0070276Y0007978D01*
X0070276Y0009211D02*
X0082627Y0009211D01*
X0083223Y0010810D02*
X0070276Y0010810D01*
X0070276Y0012408D02*
X0084917Y0012408D01*
X0089236Y0012408D02*
X0092791Y0012408D01*
X0091097Y0010810D02*
X0090931Y0010810D01*
X0091014Y0006364D02*
X0091179Y0005966D01*
X0092027Y0005117D01*
X0090000Y0005117D01*
X0090849Y0005966D01*
X0091014Y0006364D01*
X0090869Y0006014D02*
X0091159Y0006014D01*
X0097110Y0012408D02*
X0126076Y0012408D01*
X0126076Y0010810D02*
X0098805Y0010810D01*
X0099400Y0009211D02*
X0126076Y0009211D01*
X0126056Y0007613D02*
X0099400Y0007613D01*
X0098743Y0006014D02*
X0125318Y0006014D01*
X0126076Y0053970D02*
X0114716Y0053970D01*
X0114123Y0055568D02*
X0126076Y0055568D01*
X0126076Y0057167D02*
X0113529Y0057167D01*
X0112935Y0058765D02*
X0126076Y0058765D01*
X0126076Y0060364D02*
X0112341Y0060364D01*
X0111748Y0061962D02*
X0119360Y0061962D01*
X0118858Y0062170D02*
X0120282Y0061580D01*
X0121824Y0061580D01*
X0123248Y0062170D01*
X0124338Y0063260D01*
X0124928Y0064684D01*
X0124928Y0066226D01*
X0124338Y0067650D01*
X0123248Y0068740D01*
X0121824Y0069330D01*
X0120282Y0069330D01*
X0118858Y0068740D01*
X0117768Y0067650D01*
X0117178Y0066226D01*
X0117178Y0064684D01*
X0117768Y0063260D01*
X0118858Y0062170D01*
X0117644Y0063561D02*
X0111154Y0063561D01*
X0109546Y0065159D02*
X0117178Y0065159D01*
X0117399Y0066758D02*
X0109546Y0066758D01*
X0109546Y0068356D02*
X0118475Y0068356D01*
X0119074Y0069955D02*
X0109546Y0069955D01*
X0109546Y0071553D02*
X0117595Y0071553D01*
X0117768Y0071134D02*
X0118858Y0070044D01*
X0120282Y0069454D01*
X0121824Y0069454D01*
X0123248Y0070044D01*
X0124338Y0071134D01*
X0124928Y0072558D01*
X0124928Y0074100D01*
X0124338Y0075524D01*
X0123248Y0076614D01*
X0121824Y0077204D01*
X0120282Y0077204D01*
X0118858Y0076614D01*
X0117768Y0075524D01*
X0117178Y0074100D01*
X0117178Y0072558D01*
X0117768Y0071134D01*
X0117178Y0073152D02*
X0109546Y0073152D01*
X0109546Y0074750D02*
X0117448Y0074750D01*
X0118593Y0076349D02*
X0109546Y0076349D01*
X0107578Y0077947D02*
X0118829Y0077947D01*
X0118858Y0077918D02*
X0120282Y0077328D01*
X0121824Y0077328D01*
X0123248Y0077918D01*
X0124338Y0079008D01*
X0124928Y0080432D01*
X0124928Y0081974D01*
X0124338Y0083398D01*
X0123248Y0084488D01*
X0121824Y0085078D01*
X0120282Y0085078D01*
X0118858Y0084488D01*
X0117768Y0083398D01*
X0117178Y0081974D01*
X0117178Y0080432D01*
X0117768Y0079008D01*
X0118858Y0077918D01*
X0117546Y0079546D02*
X0107578Y0079546D01*
X0107578Y0081144D02*
X0117178Y0081144D01*
X0117497Y0082743D02*
X0107578Y0082743D01*
X0107578Y0084341D02*
X0118712Y0084341D01*
X0118858Y0085792D02*
X0120282Y0085202D01*
X0121824Y0085202D01*
X0123248Y0085792D01*
X0124338Y0086882D01*
X0124928Y0088306D01*
X0124928Y0089848D01*
X0124338Y0091272D01*
X0123248Y0092362D01*
X0121824Y0092952D01*
X0120282Y0092952D01*
X0118858Y0092362D01*
X0117768Y0091272D01*
X0117178Y0089848D01*
X0117178Y0088306D01*
X0117768Y0086882D01*
X0118858Y0085792D01*
X0118711Y0085940D02*
X0107578Y0085940D01*
X0107578Y0087538D02*
X0117496Y0087538D01*
X0117178Y0089137D02*
X0107578Y0089137D01*
X0107578Y0090735D02*
X0117546Y0090735D01*
X0118830Y0092334D02*
X0107578Y0092334D01*
X0107578Y0093932D02*
X0118592Y0093932D01*
X0118858Y0093666D02*
X0120282Y0093076D01*
X0121824Y0093076D01*
X0123248Y0093666D01*
X0124338Y0094756D01*
X0124928Y0096180D01*
X0124928Y0097722D01*
X0124338Y0099146D01*
X0123248Y0100236D01*
X0121824Y0100826D01*
X0120282Y0100826D01*
X0118858Y0100236D01*
X0117768Y0099146D01*
X0117178Y0097722D01*
X0117178Y0096180D01*
X0117768Y0094756D01*
X0118858Y0093666D01*
X0117447Y0095531D02*
X0107578Y0095531D01*
X0107578Y0097129D02*
X0117178Y0097129D01*
X0117595Y0098728D02*
X0107578Y0098728D01*
X0107578Y0100327D02*
X0119077Y0100327D01*
X0118858Y0101540D02*
X0117768Y0102630D01*
X0117178Y0104054D01*
X0117178Y0105596D01*
X0117768Y0107020D01*
X0118858Y0108110D01*
X0120282Y0108700D01*
X0121824Y0108700D01*
X0123248Y0108110D01*
X0124338Y0107020D01*
X0124928Y0105596D01*
X0124928Y0104054D01*
X0124338Y0102630D01*
X0123248Y0101540D01*
X0121824Y0100950D01*
X0120282Y0100950D01*
X0118858Y0101540D01*
X0118474Y0101925D02*
X0107578Y0101925D01*
X0107578Y0103524D02*
X0117398Y0103524D01*
X0117178Y0105122D02*
X0107578Y0105122D01*
X0107578Y0106721D02*
X0117644Y0106721D01*
X0119363Y0108319D02*
X0107578Y0108319D01*
X0107578Y0109918D02*
X0118355Y0109918D01*
X0118858Y0109414D02*
X0120282Y0108824D01*
X0121824Y0108824D01*
X0123248Y0109414D01*
X0124338Y0110504D01*
X0124928Y0111928D01*
X0124928Y0113470D01*
X0124338Y0114894D01*
X0123248Y0115984D01*
X0121824Y0116574D01*
X0120282Y0116574D01*
X0118858Y0115984D01*
X0117768Y0114894D01*
X0117178Y0113470D01*
X0117178Y0111928D01*
X0117768Y0110504D01*
X0118858Y0109414D01*
X0117349Y0111516D02*
X0107578Y0111516D01*
X0108859Y0113115D02*
X0117178Y0113115D01*
X0117693Y0114713D02*
X0108859Y0114713D01*
X0108859Y0116312D02*
X0119649Y0116312D01*
X0120282Y0116698D02*
X0118858Y0117288D01*
X0117768Y0118378D01*
X0117178Y0119802D01*
X0117178Y0121344D01*
X0117768Y0122768D01*
X0118858Y0123858D01*
X0120282Y0124448D01*
X0121824Y0124448D01*
X0123248Y0123858D01*
X0124338Y0122768D01*
X0124928Y0121344D01*
X0124928Y0119802D01*
X0124338Y0118378D01*
X0123248Y0117288D01*
X0121824Y0116698D01*
X0120282Y0116698D01*
X0118236Y0117910D02*
X0105376Y0117910D01*
X0103848Y0119353D02*
X0103848Y0123920D01*
X0106508Y0119509D02*
X0117300Y0119509D01*
X0117178Y0121107D02*
X0108107Y0121107D01*
X0108848Y0122706D02*
X0117742Y0122706D01*
X0118858Y0125162D02*
X0120282Y0124572D01*
X0121824Y0124572D01*
X0123248Y0125162D01*
X0124338Y0126252D01*
X0124928Y0127676D01*
X0124928Y0129218D01*
X0124338Y0130642D01*
X0123248Y0131732D01*
X0121824Y0132322D01*
X0120282Y0132322D01*
X0118858Y0131732D01*
X0117768Y0130642D01*
X0117178Y0129218D01*
X0117178Y0127676D01*
X0117768Y0126252D01*
X0118858Y0125162D01*
X0118118Y0125903D02*
X0108848Y0125903D01*
X0108848Y0124304D02*
X0119935Y0124304D01*
X0122171Y0124304D02*
X0126076Y0124304D01*
X0126076Y0122706D02*
X0124364Y0122706D01*
X0124928Y0121107D02*
X0126076Y0121107D01*
X0126076Y0119509D02*
X0124806Y0119509D01*
X0123870Y0117910D02*
X0126076Y0117910D01*
X0126076Y0116312D02*
X0122457Y0116312D01*
X0124413Y0114713D02*
X0126076Y0114713D01*
X0126076Y0113115D02*
X0124928Y0113115D01*
X0124757Y0111516D02*
X0126076Y0111516D01*
X0126076Y0109918D02*
X0123751Y0109918D01*
X0122744Y0108319D02*
X0126076Y0108319D01*
X0126076Y0106721D02*
X0124462Y0106721D01*
X0124928Y0105122D02*
X0126076Y0105122D01*
X0126076Y0103524D02*
X0124708Y0103524D01*
X0123633Y0101925D02*
X0126076Y0101925D01*
X0126076Y0100327D02*
X0123030Y0100327D01*
X0124511Y0098728D02*
X0126076Y0098728D01*
X0126076Y0097129D02*
X0124928Y0097129D01*
X0124659Y0095531D02*
X0126076Y0095531D01*
X0126076Y0093932D02*
X0123514Y0093932D01*
X0123276Y0092334D02*
X0126076Y0092334D01*
X0126076Y0090735D02*
X0124560Y0090735D01*
X0124928Y0089137D02*
X0126076Y0089137D01*
X0126076Y0087538D02*
X0124610Y0087538D01*
X0123396Y0085940D02*
X0126076Y0085940D01*
X0126076Y0084341D02*
X0123395Y0084341D01*
X0124609Y0082743D02*
X0126076Y0082743D01*
X0126076Y0081144D02*
X0124928Y0081144D01*
X0124561Y0079546D02*
X0126076Y0079546D01*
X0126076Y0077947D02*
X0123277Y0077947D01*
X0123513Y0076349D02*
X0126076Y0076349D01*
X0126076Y0074750D02*
X0124659Y0074750D01*
X0124928Y0073152D02*
X0126076Y0073152D01*
X0126076Y0071553D02*
X0124512Y0071553D01*
X0123032Y0069955D02*
X0126076Y0069955D01*
X0126076Y0068356D02*
X0123632Y0068356D01*
X0124708Y0066758D02*
X0126076Y0066758D01*
X0126076Y0065159D02*
X0124928Y0065159D01*
X0124463Y0063561D02*
X0126076Y0063561D01*
X0126076Y0061962D02*
X0122746Y0061962D01*
X0105946Y0073798D02*
X0105498Y0074246D01*
X0105946Y0074246D01*
X0105946Y0073798D01*
X0104875Y0074402D02*
X0104822Y0074456D01*
X0104822Y0074402D01*
X0104875Y0074402D01*
X0091379Y0074750D02*
X0089439Y0074750D01*
X0089439Y0073152D02*
X0091379Y0073152D01*
X0091379Y0071553D02*
X0089439Y0071553D01*
X0089231Y0069955D02*
X0091379Y0069955D01*
X0091379Y0082743D02*
X0080080Y0082743D01*
X0080512Y0084341D02*
X0086176Y0084341D01*
X0086161Y0085940D02*
X0080512Y0085940D01*
X0080512Y0087538D02*
X0086161Y0087538D01*
X0077077Y0093932D02*
X0069489Y0093932D01*
X0069252Y0095531D02*
X0075479Y0095531D01*
X0067669Y0082743D02*
X0038012Y0082743D01*
X0038331Y0081144D02*
X0069848Y0081144D01*
X0072026Y0079546D02*
X0037964Y0079546D01*
X0036680Y0077947D02*
X0073358Y0077947D01*
X0073358Y0076349D02*
X0036916Y0076349D01*
X0038062Y0074750D02*
X0073358Y0074750D01*
X0073358Y0073152D02*
X0038331Y0073152D01*
X0037915Y0071553D02*
X0073541Y0071553D01*
X0065491Y0084341D02*
X0036798Y0084341D01*
X0036799Y0085940D02*
X0063313Y0085940D01*
X0039073Y0063561D02*
X0037866Y0063561D01*
X0038917Y0061962D02*
X0036149Y0061962D01*
X0045079Y0012408D02*
X0064114Y0012408D01*
X0064114Y0010810D02*
X0045079Y0010810D01*
X0045079Y0009211D02*
X0064114Y0009211D01*
X0064479Y0007613D02*
X0044714Y0007613D01*
X0100491Y0103436D02*
X0100491Y0115160D01*
X0102696Y0116524D01*
X0102696Y0112309D01*
X0103458Y0111547D01*
X0103978Y0111547D01*
X0103978Y0103226D01*
X0103767Y0103436D01*
X0100491Y0103436D01*
X0100491Y0103524D02*
X0103978Y0103524D01*
X0103978Y0105122D02*
X0100491Y0105122D01*
X0100491Y0106721D02*
X0103978Y0106721D01*
X0103978Y0108319D02*
X0100491Y0108319D01*
X0100491Y0109918D02*
X0103978Y0109918D01*
X0103978Y0111516D02*
X0100491Y0111516D01*
X0100491Y0113115D02*
X0102696Y0113115D01*
X0102696Y0114713D02*
X0100491Y0114713D01*
X0102353Y0116312D02*
X0102696Y0116312D01*
X0107338Y0127501D02*
X0117251Y0127501D01*
X0117178Y0129100D02*
X0106100Y0129100D01*
X0107698Y0130698D02*
X0117824Y0130698D01*
X0117940Y0132446D02*
X0124166Y0132446D01*
X0124928Y0133208D01*
X0124928Y0139435D01*
X0124166Y0140196D01*
X0117940Y0140196D01*
X0117178Y0139435D01*
X0117178Y0133208D01*
X0117940Y0132446D01*
X0117178Y0133895D02*
X0108848Y0133895D01*
X0108848Y0132297D02*
X0120221Y0132297D01*
X0121885Y0132297D02*
X0126076Y0132297D01*
X0126076Y0133895D02*
X0124928Y0133895D01*
X0124928Y0135494D02*
X0126076Y0135494D01*
X0126076Y0137092D02*
X0124928Y0137092D01*
X0124928Y0138691D02*
X0126076Y0138691D01*
X0126076Y0130698D02*
X0124282Y0130698D01*
X0124928Y0129100D02*
X0126076Y0129100D01*
X0126076Y0127501D02*
X0124855Y0127501D01*
X0123988Y0125903D02*
X0126076Y0125903D01*
X0117178Y0135494D02*
X0108848Y0135494D01*
X0107747Y0137092D02*
X0117178Y0137092D01*
X0117178Y0138691D02*
X0106148Y0138691D01*
X0101548Y0138691D02*
X0096148Y0138691D01*
X0097747Y0137092D02*
X0099950Y0137092D01*
X0098848Y0135494D02*
X0098848Y0135494D01*
X0098848Y0133895D02*
X0098848Y0133895D01*
X0098848Y0132297D02*
X0098848Y0132297D01*
X0097698Y0130698D02*
X0099999Y0130698D01*
D20*
X0066407Y0092975D02*
X0058140Y0100061D01*
X0049478Y0109117D01*
X0047238Y0101081D02*
X0047238Y0093246D01*
X0047282Y0091402D01*
X0061931Y0091380D01*
X0069951Y0085494D01*
X0077431Y0085494D01*
D21*
X0079006Y0094156D02*
X0079006Y0094550D01*
X0067589Y0121321D02*
X0038848Y0121321D01*
X0038848Y0128447D01*
X0034456Y0128447D01*
M02*
