%
M48
M72
T01C0.02362
T02C0.02756
T03C0.03150
T04C0.04000
T05C0.05512
%
T01
X41998Y10298
X67195Y10298
X71132Y44156
X59321Y44550
X41998Y61085
X57015Y77512
X66407Y92975
X77431Y85494
X89242Y86676
X86358Y72482
X88061Y58329
X95541Y53605
X104990Y39431
X121526Y48880
X121526Y55573
X103022Y71321
X111071Y99492
X105778Y114628
X89418Y105791
X69163Y128802
X56347Y113665
X49478Y109117
X47238Y101081
X51447Y134313
T02
X28809Y23762
X28809Y31243
X28809Y39117
X87077Y8487
X94951Y8487
X120187Y27109
X120187Y34983
T03
X34456Y65455
X34456Y73329
X34456Y81203
X34456Y89077
X34456Y96951
X34456Y104825
X34456Y112699
X34456Y120573
X34456Y128447
X34456Y136321
X121053Y136321
X121053Y128447
X121053Y120573
X121053Y112699
X121053Y104825
X121053Y96951
X121053Y89077
X121053Y81203
X121053Y73329
X121053Y65455
T04
X83848Y123920
X83848Y133920
X93848Y133920
X93848Y123920
X103848Y123920
X103848Y133920
T05
X28809Y12345
X28809Y50140
M30
